<svg width="76" height="74" viewBox="0 0 76 74" fill="none" xmlns="http://www.w3.org/2000/svg">
<g filter="url(#filter0_dd_1813_12871)">
<path d="M31.7776 37.8865H42.3198L39.0931 41.7621C39.0184 41.8519 38.9621 41.9557 38.9275 42.0673C38.8929 42.1789 38.8806 42.2963 38.8913 42.4127C38.913 42.6477 39.0271 42.8645 39.2087 43.0154C39.3902 43.1663 39.6242 43.2389 39.8593 43.2172C40.0943 43.1955 40.3111 43.0814 40.462 42.8998L44.9064 37.5665C44.9363 37.5241 44.9631 37.4795 44.9864 37.4332C44.9864 37.3887 45.0309 37.3621 45.0487 37.3176C45.089 37.2157 45.1101 37.1072 45.1109 36.9976C45.1101 36.888 45.089 36.7795 45.0487 36.6776C45.0487 36.6332 45.0042 36.6065 44.9864 36.5621C44.9631 36.5157 44.9363 36.4711 44.9064 36.4287L40.462 31.0954C40.3784 30.9951 40.2738 30.9144 40.1555 30.8591C40.0372 30.8037 39.9081 30.7752 39.7776 30.7754C39.5699 30.775 39.3686 30.8473 39.2087 30.9798C39.1187 31.0545 39.0443 31.1461 38.9897 31.2495C38.9352 31.3529 38.9016 31.4661 38.8909 31.5825C38.8801 31.699 38.8925 31.8164 38.9272 31.928C38.9619 32.0396 39.0183 32.1433 39.0931 32.2332L42.3198 36.1087H31.7776C31.5418 36.1087 31.3157 36.2024 31.149 36.3691C30.9823 36.5358 30.8887 36.7619 30.8887 36.9976C30.8887 37.2334 30.9823 37.4595 31.149 37.6262C31.3157 37.7929 31.5418 37.8865 31.7776 37.8865Z" fill="#0029FF"/>
<path d="M31.7776 37.8865H42.3198L39.0931 41.7621C39.0184 41.8519 38.9621 41.9557 38.9275 42.0673C38.8929 42.1789 38.8806 42.2963 38.8913 42.4127C38.913 42.6477 39.0271 42.8645 39.2087 43.0154C39.3902 43.1663 39.6242 43.2389 39.8593 43.2172C40.0943 43.1955 40.3111 43.0814 40.462 42.8998L44.9064 37.5665C44.9363 37.5241 44.9631 37.4795 44.9864 37.4332C44.9864 37.3887 45.0309 37.3621 45.0487 37.3176C45.089 37.2157 45.1101 37.1072 45.1109 36.9976C45.1101 36.888 45.089 36.7795 45.0487 36.6776C45.0487 36.6332 45.0042 36.6065 44.9864 36.5621C44.9631 36.5157 44.9363 36.4711 44.9064 36.4287L40.462 31.0954C40.3784 30.9951 40.2738 30.9144 40.1555 30.8591C40.0372 30.8037 39.9081 30.7752 39.7776 30.7754C39.5699 30.775 39.3686 30.8473 39.2087 30.9798C39.1187 31.0545 39.0443 31.1461 38.9897 31.2495C38.9352 31.3529 38.9016 31.4661 38.8909 31.5825C38.8801 31.699 38.8925 31.8164 38.9272 31.928C38.9619 32.0396 39.0183 32.1433 39.0931 32.2332L42.3198 36.1087H31.7776C31.5418 36.1087 31.3157 36.2024 31.149 36.3691C30.9823 36.5358 30.8887 36.7619 30.8887 36.9976C30.8887 37.2334 30.9823 37.4595 31.149 37.6262C31.3157 37.7929 31.5418 37.8865 31.7776 37.8865Z" fill="url(#paint0_linear_1813_12871)" fill-opacity="0.4" style="mix-blend-mode:soft-light"/>
</g>
<defs>
<filter id="filter0_dd_1813_12871" x="0.888672" y="0.775391" width="74.2222" height="72.4453" filterUnits="userSpaceOnUse" color-interpolation-filters="sRGB">
<feFlood flood-opacity="0" result="BackgroundImageFix"/>
<feColorMatrix in="SourceAlpha" type="matrix" values="0 0 0 0 0 0 0 0 0 0 0 0 0 0 0 0 0 0 127 0" result="hardAlpha"/>
<feOffset dx="10" dy="10"/>
<feGaussianBlur stdDeviation="10"/>
<feColorMatrix type="matrix" values="0 0 0 0 0.6512 0 0 0 0 0.66896 0 0 0 0 0.74 0 0 0 1 0"/>
<feBlend mode="normal" in2="BackgroundImageFix" result="effect1_dropShadow_1813_12871"/>
<feColorMatrix in="SourceAlpha" type="matrix" values="0 0 0 0 0 0 0 0 0 0 0 0 0 0 0 0 0 0 127 0" result="hardAlpha"/>
<feOffset dx="-10" dy="-10"/>
<feGaussianBlur stdDeviation="10"/>
<feColorMatrix type="matrix" values="0 0 0 0 0.979167 0 0 0 0 0.983333 0 0 0 0 1 0 0 0 1 0"/>
<feBlend mode="normal" in2="effect1_dropShadow_1813_12871" result="effect2_dropShadow_1813_12871"/>
<feBlend mode="normal" in="SourceGraphic" in2="effect2_dropShadow_1813_12871" result="shape"/>
</filter>
<linearGradient id="paint0_linear_1813_12871" x1="24.9131" y1="36.9988" x2="36.084" y2="49.9305" gradientUnits="userSpaceOnUse">
<stop/>
<stop offset="1" stop-color="white"/>
</linearGradient>
</defs>
</svg>
