<svg width="262" height="204" viewBox="0 0 262 204" fill="none" xmlns="http://www.w3.org/2000/svg">
<mask id="mask0_2076_10715" style="mask-type:alpha" maskUnits="userSpaceOnUse" x="0" y="0" width="262" height="204">
<rect width="262" height="204" rx="8" fill="white"/>
</mask>
<g mask="url(#mask0_2076_10715)">
<rect width="262" height="204" rx="8" fill="#121E34"/>
<g filter="url(#filter0_dd_2076_10715)">
<path d="M127 -162L219.284 117.72L415.386 337.5L127 277.56L-161.386 337.5L34.7163 117.72L127 -162Z" fill="#121E34"/>
<path d="M127 -160.404L218.809 117.877L218.841 117.975L218.911 118.053L414.004 336.702L127.102 277.07L127 277.049L126.898 277.07L-160.004 336.702L35.0894 118.053L35.1586 117.975L35.1912 117.877L127 -160.404Z" stroke="#121E34"/>
</g>
<g filter="url(#filter1_dd_2076_10715)">
<path d="M127 -74L194.896 131.8L339.176 293.5L127 249.4L-85.1762 293.5L59.1036 131.8L127 -74Z" fill="#121E34"/>
<path d="M127 -72.4041L194.422 131.957L194.454 132.055L194.523 132.133L337.794 292.702L127.102 248.91L127 248.889L126.898 248.91L-83.7941 292.702L59.4767 132.133L59.5459 132.055L59.5784 131.957L127 -72.4041Z" stroke="#121E34"/>
</g>
<g filter="url(#filter2_dd_2076_10715)">
<path d="M127 36L164.412 149.4L243.913 238.5L127 214.2L10.0866 238.5L89.5877 149.4L127 36Z" fill="#0029FF"/>
<path d="M127 36L164.412 149.4L243.913 238.5L127 214.2L10.0866 238.5L89.5877 149.4L127 36Z" fill="url(#paint0_linear_2076_10715)" fill-opacity="0.4" style="mix-blend-mode:soft-light"/>
<path d="M127 37.5959L163.937 149.557L163.97 149.655L164.039 149.733L242.531 237.702L127.102 213.71L127 213.689L126.898 213.71L11.4686 237.702L89.9608 149.733L90.03 149.655L90.0625 149.557L127 37.5959Z" stroke="#121E34"/>
</g>
</g>
<defs>
<filter id="filter0_dd_2076_10715" x="-191.386" y="-192" width="636.773" height="559.5" filterUnits="userSpaceOnUse" color-interpolation-filters="sRGB">
<feFlood flood-opacity="0" result="BackgroundImageFix"/>
<feColorMatrix in="SourceAlpha" type="matrix" values="0 0 0 0 0 0 0 0 0 0 0 0 0 0 0 0 0 0 127 0" result="hardAlpha"/>
<feOffset dx="10" dy="10"/>
<feGaussianBlur stdDeviation="10"/>
<feColorMatrix type="matrix" values="0 0 0 0 0.0186632 0 0 0 0 0.0488409 0 0 0 0 0.104167 0 0 0 1 0"/>
<feBlend mode="normal" in2="BackgroundImageFix" result="effect1_dropShadow_2076_10715"/>
<feColorMatrix in="SourceAlpha" type="matrix" values="0 0 0 0 0 0 0 0 0 0 0 0 0 0 0 0 0 0 127 0" result="hardAlpha"/>
<feOffset dx="-10" dy="-10"/>
<feGaussianBlur stdDeviation="10"/>
<feColorMatrix type="matrix" values="0 0 0 0 0.0320833 0 0 0 0 0.0825246 0 0 0 0 0.175 0 0 0 1 0"/>
<feBlend mode="normal" in2="effect1_dropShadow_2076_10715" result="effect2_dropShadow_2076_10715"/>
<feBlend mode="normal" in="SourceGraphic" in2="effect2_dropShadow_2076_10715" result="shape"/>
</filter>
<filter id="filter1_dd_2076_10715" x="-115.176" y="-104" width="484.353" height="427.5" filterUnits="userSpaceOnUse" color-interpolation-filters="sRGB">
<feFlood flood-opacity="0" result="BackgroundImageFix"/>
<feColorMatrix in="SourceAlpha" type="matrix" values="0 0 0 0 0 0 0 0 0 0 0 0 0 0 0 0 0 0 127 0" result="hardAlpha"/>
<feOffset dx="10" dy="10"/>
<feGaussianBlur stdDeviation="10"/>
<feColorMatrix type="matrix" values="0 0 0 0 0.0186632 0 0 0 0 0.0488409 0 0 0 0 0.104167 0 0 0 1 0"/>
<feBlend mode="normal" in2="BackgroundImageFix" result="effect1_dropShadow_2076_10715"/>
<feColorMatrix in="SourceAlpha" type="matrix" values="0 0 0 0 0 0 0 0 0 0 0 0 0 0 0 0 0 0 127 0" result="hardAlpha"/>
<feOffset dx="-10" dy="-10"/>
<feGaussianBlur stdDeviation="10"/>
<feColorMatrix type="matrix" values="0 0 0 0 0.0320833 0 0 0 0 0.0825246 0 0 0 0 0.175 0 0 0 1 0"/>
<feBlend mode="normal" in2="effect1_dropShadow_2076_10715" result="effect2_dropShadow_2076_10715"/>
<feBlend mode="normal" in="SourceGraphic" in2="effect2_dropShadow_2076_10715" result="shape"/>
</filter>
<filter id="filter2_dd_2076_10715" x="-19.9133" y="6" width="293.827" height="262.5" filterUnits="userSpaceOnUse" color-interpolation-filters="sRGB">
<feFlood flood-opacity="0" result="BackgroundImageFix"/>
<feColorMatrix in="SourceAlpha" type="matrix" values="0 0 0 0 0 0 0 0 0 0 0 0 0 0 0 0 0 0 127 0" result="hardAlpha"/>
<feOffset dx="10" dy="10"/>
<feGaussianBlur stdDeviation="10"/>
<feColorMatrix type="matrix" values="0 0 0 0 0.0186632 0 0 0 0 0.0488409 0 0 0 0 0.104167 0 0 0 1 0"/>
<feBlend mode="normal" in2="BackgroundImageFix" result="effect1_dropShadow_2076_10715"/>
<feColorMatrix in="SourceAlpha" type="matrix" values="0 0 0 0 0 0 0 0 0 0 0 0 0 0 0 0 0 0 127 0" result="hardAlpha"/>
<feOffset dx="-10" dy="-10"/>
<feGaussianBlur stdDeviation="10"/>
<feColorMatrix type="matrix" values="0 0 0 0 0.0320833 0 0 0 0 0.0825246 0 0 0 0 0.175 0 0 0 1 0"/>
<feBlend mode="normal" in2="effect1_dropShadow_2076_10715" result="effect2_dropShadow_2076_10715"/>
<feBlend mode="normal" in="SourceGraphic" in2="effect2_dropShadow_2076_10715" result="shape"/>
</filter>
<linearGradient id="paint0_linear_2076_10715" x1="-121.443" y1="171.014" x2="123.484" y2="419.127" gradientUnits="userSpaceOnUse">
<stop/>
<stop offset="1" stop-color="white"/>
</linearGradient>
</defs>
</svg>
