<svg width="820" height="542" viewBox="0 0 820 542" fill="none" xmlns="http://www.w3.org/2000/svg">
<g filter="url(#filter0_dd_2076_11028)">
<circle cx="415.5" cy="278.5" r="205.5" fill="#EBECF0"/>
<circle cx="415.5" cy="278.5" r="205.5" fill="url(#paint0_linear_2076_11028)" fill-opacity="0.4" style="mix-blend-mode:soft-light"/>
<circle cx="415.5" cy="278.5" r="204.791" stroke="white" stroke-opacity="0.4" stroke-width="1.41724"/>
</g>
<g filter="url(#filter1_ii_2076_11028)">
<circle cx="415.5" cy="278.502" r="177.642" fill="#EBECF0"/>
<circle cx="415.5" cy="278.502" r="177.642" fill="url(#paint1_linear_2076_11028)" fill-opacity="0.4" style="mix-blend-mode:soft-light"/>
</g>
<circle cx="415.5" cy="278.502" r="176.796" stroke="white" stroke-opacity="0.4" stroke-width="1.69183"/>
<g filter="url(#filter2_dd_2076_11028)">
<path d="M333.105 396.197C322.345 411.567 326.005 433.097 343.141 440.74C360.054 448.283 378.108 453.164 396.662 455.143C426.527 458.328 456.713 453.889 484.397 442.24C512.08 430.591 536.359 412.113 554.962 388.534C573.566 364.954 585.887 337.043 590.775 307.408C595.662 277.774 592.956 247.384 582.909 219.079C572.862 190.775 555.802 165.48 533.325 145.558C510.847 125.637 483.686 111.74 454.379 105.167C436.173 101.083 417.508 99.9084 399.068 101.621C380.385 103.357 370.005 122.571 375.26 140.583C380.516 158.595 399.576 168.358 418.332 168.843C425.433 169.026 432.525 169.899 439.508 171.466C457.605 175.525 474.378 184.106 488.258 196.408C502.138 208.71 512.672 224.33 518.876 241.808C525.081 259.286 526.752 278.052 523.734 296.352C520.716 314.652 513.107 331.887 501.619 346.448C490.132 361.009 475.139 372.419 458.044 379.612C440.949 386.805 422.309 389.546 403.867 387.58C396.751 386.821 389.754 385.37 382.97 383.264C365.051 377.7 343.866 380.826 333.105 396.197Z" fill="#0029FF"/>
<path d="M333.105 396.197C322.345 411.567 326.005 433.097 343.141 440.74C360.054 448.283 378.108 453.164 396.662 455.143C426.527 458.328 456.713 453.889 484.397 442.24C512.08 430.591 536.359 412.113 554.962 388.534C573.566 364.954 585.887 337.043 590.775 307.408C595.662 277.774 592.956 247.384 582.909 219.079C572.862 190.775 555.802 165.48 533.325 145.558C510.847 125.637 483.686 111.74 454.379 105.167C436.173 101.083 417.508 99.9084 399.068 101.621C380.385 103.357 370.005 122.571 375.26 140.583C380.516 158.595 399.576 168.358 418.332 168.843C425.433 169.026 432.525 169.899 439.508 171.466C457.605 175.525 474.378 184.106 488.258 196.408C502.138 208.71 512.672 224.33 518.876 241.808C525.081 259.286 526.752 278.052 523.734 296.352C520.716 314.652 513.107 331.887 501.619 346.448C490.132 361.009 475.139 372.419 458.044 379.612C440.949 386.805 422.309 389.546 403.867 387.58C396.751 386.821 389.754 385.37 382.97 383.264C365.051 377.7 343.866 380.826 333.105 396.197Z" fill="url(#paint2_linear_2076_11028)" fill-opacity="0.4" style="mix-blend-mode:soft-light"/>
</g>
<g filter="url(#filter3_dd_2076_11028)">
<path d="M293.158 353.823C277.18 363.66 271.994 384.874 284.689 398.691C300.558 415.962 319.769 430.005 341.282 439.898C362.796 449.791 385.961 455.235 409.402 456.04C428.154 456.684 440.884 438.939 437.952 420.406C435.019 401.874 417.349 389.776 398.804 386.92C388.787 385.378 378.978 382.446 369.67 378.166C360.362 373.885 351.751 368.347 344.06 361.746C329.822 349.527 309.135 343.986 293.158 353.823Z" fill="#0029FF"/>
<path d="M293.158 353.823C277.18 363.66 271.994 384.874 284.689 398.691C300.558 415.962 319.769 430.005 341.282 439.898C362.796 449.791 385.961 455.235 409.402 456.04C428.154 456.684 440.884 438.939 437.952 420.406C435.019 401.874 417.349 389.776 398.804 386.92C388.787 385.378 378.978 382.446 369.67 378.166C360.362 373.885 351.751 368.347 344.06 361.746C329.822 349.527 309.135 343.986 293.158 353.823Z" fill="url(#paint3_linear_2076_11028)" fill-opacity="0.4" style="mix-blend-mode:soft-light"/>
<path d="M293.158 353.823C277.18 363.66 271.994 384.874 284.689 398.691C300.558 415.962 319.769 430.005 341.282 439.898C362.796 449.791 385.961 455.235 409.402 456.04C428.154 456.684 440.884 438.939 437.952 420.406C435.019 401.874 417.349 389.776 398.804 386.92C388.787 385.378 378.978 382.446 369.67 378.166C360.362 373.885 351.751 368.347 344.06 361.746C329.822 349.527 309.135 343.986 293.158 353.823Z" fill="white" fill-opacity="0.1"/>
</g>
<g filter="url(#filter4_dd_2076_11028)">
<path d="M277.724 319.228C259.73 324.546 249.18 343.668 257.822 360.322C266.277 376.616 277.209 391.505 290.225 404.451C303.527 417.683 324.931 413.341 335.393 397.765C345.855 382.19 341.138 361.3 329.492 346.589C327.846 344.51 326.276 342.373 324.786 340.18C314.236 324.664 295.717 313.909 277.724 319.228Z" fill="#0029FF"/>
<path d="M277.724 319.228C259.73 324.546 249.18 343.668 257.822 360.322C266.277 376.616 277.209 391.505 290.225 404.451C303.527 417.683 324.931 413.341 335.393 397.765C345.855 382.19 341.138 361.3 329.492 346.589C327.846 344.51 326.276 342.373 324.786 340.18C314.236 324.664 295.717 313.909 277.724 319.228Z" fill="url(#paint4_linear_2076_11028)" fill-opacity="0.4" style="mix-blend-mode:soft-light"/>
<path d="M277.724 319.228C259.73 324.546 249.18 343.668 257.822 360.322C266.277 376.616 277.209 391.505 290.225 404.451C303.527 417.683 324.931 413.341 335.393 397.765C345.855 382.19 341.138 361.3 329.492 346.589C327.846 344.51 326.276 342.373 324.786 340.18C314.236 324.664 295.717 313.909 277.724 319.228Z" fill="white" fill-opacity="0.2"/>
</g>
<g filter="url(#filter5_dd_2076_11028)">
<path d="M271.869 281.837C253.111 282.273 237.933 297.976 241.927 316.309C245.955 334.801 252.914 352.535 262.537 368.832C272.078 384.988 293.885 386.178 307.933 373.74C321.981 361.302 322.678 339.898 315.114 322.728C313.904 319.982 312.808 317.188 311.827 314.352C305.695 296.619 290.627 281.402 271.869 281.837Z" fill="#0029FF"/>
<path d="M271.869 281.837C253.111 282.273 237.933 297.976 241.927 316.309C245.955 334.801 252.914 352.535 262.537 368.832C272.078 384.988 293.885 386.178 307.933 373.74C321.981 361.302 322.678 339.898 315.114 322.728C313.904 319.982 312.808 317.188 311.827 314.352C305.695 296.619 290.627 281.402 271.869 281.837Z" fill="url(#paint5_linear_2076_11028)" fill-opacity="0.4" style="mix-blend-mode:soft-light"/>
<path d="M271.869 281.837C253.111 282.273 237.933 297.976 241.927 316.309C245.955 334.801 252.914 352.535 262.537 368.832C272.078 384.988 293.885 386.178 307.933 373.74C321.981 361.302 322.678 339.898 315.114 322.728C313.904 319.982 312.808 317.188 311.827 314.352C305.695 296.619 290.627 281.402 271.869 281.837Z" fill="white" fill-opacity="0.3"/>
</g>
<g filter="url(#filter6_dd_2076_11028)">
<path d="M274.188 252.584C255.733 249.2 237.681 261.491 237.866 280.253C238.021 295.987 240.266 311.632 244.542 326.774C249.64 344.831 270.42 351.55 287.178 343.112C303.937 334.674 310.077 314.158 307.148 295.625C306.986 294.599 306.839 293.57 306.706 292.539C304.305 273.931 292.643 255.969 274.188 252.584Z" fill="#0029FF"/>
<path d="M274.188 252.584C255.733 249.2 237.681 261.491 237.866 280.253C238.021 295.987 240.266 311.632 244.542 326.774C249.64 344.831 270.42 351.55 287.178 343.112C303.937 334.674 310.077 314.158 307.148 295.625C306.986 294.599 306.839 293.57 306.706 292.539C304.305 273.931 292.643 255.969 274.188 252.584Z" fill="url(#paint6_linear_2076_11028)" fill-opacity="0.4" style="mix-blend-mode:soft-light"/>
<path d="M274.188 252.584C255.733 249.2 237.681 261.491 237.866 280.253C238.021 295.987 240.266 311.632 244.542 326.774C249.64 344.831 270.42 351.55 287.178 343.112C303.937 334.674 310.077 314.158 307.148 295.625C306.986 294.599 306.839 293.57 306.706 292.539C304.305 273.931 292.643 255.969 274.188 252.584Z" fill="white" fill-opacity="0.4"/>
</g>
<g filter="url(#filter7_dd_2076_11028)">
<path d="M295.894 198.907C280.274 188.512 258.836 192.68 251.6 209.991C245.003 225.774 240.697 242.482 238.865 259.609C237.033 276.737 237.708 293.978 240.818 310.799C244.229 329.249 264.3 337.856 281.766 331C299.231 324.144 307.238 304.282 306.031 285.558C305.63 279.338 305.759 273.075 306.426 266.836C307.093 260.597 308.292 254.448 310 248.454C315.139 230.408 311.514 209.302 295.894 198.907Z" fill="#0029FF"/>
<path d="M295.894 198.907C280.274 188.512 258.836 192.68 251.6 209.991C245.003 225.774 240.697 242.482 238.865 259.609C237.033 276.737 237.708 293.978 240.818 310.799C244.229 329.249 264.3 337.856 281.766 331C299.231 324.144 307.238 304.282 306.031 285.558C305.63 279.338 305.759 273.075 306.426 266.836C307.093 260.597 308.292 254.448 310 248.454C315.139 230.408 311.514 209.302 295.894 198.907Z" fill="url(#paint7_linear_2076_11028)" fill-opacity="0.4" style="mix-blend-mode:soft-light"/>
<path d="M295.894 198.907C280.274 188.512 258.836 192.68 251.6 209.991C245.003 225.774 240.697 242.482 238.865 259.609C237.033 276.737 237.708 293.978 240.818 310.799C244.229 329.249 264.3 337.856 281.766 331C299.231 324.144 307.238 304.282 306.031 285.558C305.63 279.338 305.759 273.075 306.426 266.836C307.093 260.597 308.292 254.448 310 248.454C315.139 230.408 311.514 209.302 295.894 198.907Z" fill="white" fill-opacity="0.5"/>
</g>
<g filter="url(#filter8_dd_2076_11028)">
<path d="M309.576 181.441C295.742 168.765 273.918 169.582 264.103 185.573C255.47 199.638 248.837 214.841 244.399 230.737C239.354 248.809 253.6 265.362 272.301 266.88C291.003 268.398 306.924 254.076 314.07 236.727C314.646 235.328 315.251 233.942 315.884 232.568C323.741 215.529 323.409 194.117 309.576 181.441Z" fill="#0029FF"/>
<path d="M309.576 181.441C295.742 168.765 273.918 169.582 264.103 185.573C255.47 199.638 248.837 214.841 244.399 230.737C239.354 248.809 253.6 265.362 272.301 266.88C291.003 268.398 306.924 254.076 314.07 236.727C314.646 235.328 315.251 233.942 315.884 232.568C323.741 215.529 323.409 194.117 309.576 181.441Z" fill="url(#paint8_linear_2076_11028)" fill-opacity="0.4" style="mix-blend-mode:soft-light"/>
<path d="M309.576 181.441C295.742 168.765 273.918 169.582 264.103 185.573C255.47 199.638 248.837 214.841 244.399 230.737C239.354 248.809 253.6 265.362 272.301 266.88C291.003 268.398 306.924 254.076 314.07 236.727C314.646 235.328 315.251 233.942 315.884 232.568C323.741 215.529 323.409 194.117 309.576 181.441Z" fill="white" fill-opacity="0.6"/>
</g>
<g filter="url(#filter9_dd_2076_11028)">
<path d="M426.883 135.286C428.37 116.582 414.303 99.877 395.658 101.973C371.539 104.684 348.108 112.323 326.867 124.553C305.625 136.782 287.253 153.209 272.799 172.706C261.624 187.778 269.008 208.331 285.929 216.437C302.851 224.543 322.841 216.862 335.719 203.216C343.019 195.481 351.446 188.804 360.768 183.437C370.09 178.07 380.095 174.135 390.45 171.706C408.717 167.422 425.397 153.99 426.883 135.286Z" fill="#0029FF"/>
<path d="M426.883 135.286C428.37 116.582 414.303 99.877 395.658 101.973C371.539 104.684 348.108 112.323 326.867 124.553C305.625 136.782 287.253 153.209 272.799 172.706C261.624 187.778 269.008 208.331 285.929 216.437C302.851 224.543 322.841 216.862 335.719 203.216C343.019 195.481 351.446 188.804 360.768 183.437C370.09 178.07 380.095 174.135 390.45 171.706C408.717 167.422 425.397 153.99 426.883 135.286Z" fill="url(#paint9_linear_2076_11028)" fill-opacity="0.4" style="mix-blend-mode:soft-light"/>
<path d="M426.883 135.286C428.37 116.582 414.303 99.877 395.658 101.973C371.539 104.684 348.108 112.323 326.867 124.553C305.625 136.782 287.253 153.209 272.799 172.706C261.624 187.778 269.008 208.331 285.929 216.437C302.851 224.543 322.841 216.862 335.719 203.216C343.019 195.481 351.446 188.804 360.768 183.437C370.09 178.07 380.095 174.135 390.45 171.706C408.717 167.422 425.397 153.99 426.883 135.286Z" fill="white" fill-opacity="0.7"/>
</g>
<g filter="url(#filter10_dd_2076_11028)">
<path d="M427.323 129.753C428.567 114.105 416.829 100.174 401.183 101.439C385.537 102.704 376.189 118.34 379.931 133.585L385.169 154.924C387.479 164.338 396.997 169.946 406.659 169.165C416.321 168.383 424.814 161.319 425.582 151.657L427.323 129.753Z" fill="#0029FF"/>
<path d="M427.323 129.753C428.567 114.105 416.829 100.174 401.183 101.439C385.537 102.704 376.189 118.34 379.931 133.585L385.169 154.924C387.479 164.338 396.997 169.946 406.659 169.165C416.321 168.383 424.814 161.319 425.582 151.657L427.323 129.753Z" fill="url(#paint10_linear_2076_11028)" fill-opacity="0.4" style="mix-blend-mode:soft-light"/>
<path d="M427.323 129.753C428.567 114.105 416.829 100.174 401.183 101.439C385.537 102.704 376.189 118.34 379.931 133.585L385.169 154.924C387.479 164.338 396.997 169.946 406.659 169.165C416.321 168.383 424.814 161.319 425.582 151.657L427.323 129.753Z" fill="white" fill-opacity="0.8"/>
</g>
<g filter="url(#filter11_ii_2076_11028)">
<circle cx="415.5" cy="278.499" r="109.969" fill="#EBECF0"/>
<circle cx="415.5" cy="278.499" r="109.969" fill="url(#paint11_linear_2076_11028)" fill-opacity="0.4" style="mix-blend-mode:soft-light"/>
</g>
<circle cx="415.5" cy="278.499" r="109.123" stroke="white" stroke-opacity="0.4" stroke-width="1.69183"/>
<g filter="url(#filter12_dd_2076_11028)">
<circle cx="415.5" cy="278.502" r="89.6671" fill="#EBECF0"/>
<circle cx="415.5" cy="278.502" r="89.6671" fill="url(#paint12_linear_2076_11028)" fill-opacity="0.4" style="mix-blend-mode:soft-light"/>
<circle cx="415.5" cy="278.502" r="88.8212" stroke="white" stroke-opacity="0.4" stroke-width="1.69183"/>
</g>
<g filter="url(#filter13_ii_2076_11028)">
<circle cx="415.5" cy="278.502" r="42.2958" fill="#EBECF0"/>
<circle cx="415.5" cy="278.502" r="42.2958" fill="url(#paint13_linear_2076_11028)" fill-opacity="0.4" style="mix-blend-mode:soft-light"/>
</g>
<circle cx="415.5" cy="278.502" r="41.4499" stroke="white" stroke-opacity="0.4" stroke-width="1.69183"/>
<path d="M745.869 275.315H749.986V287H751.571V275.315H755.688V273.909H745.869V275.315ZM756.91 287H758.419V280.787C758.419 279.457 759.467 278.486 760.899 278.486C761.301 278.486 761.717 278.562 761.819 278.588V277.054C761.646 277.041 761.25 277.028 761.026 277.028C759.85 277.028 758.828 277.693 758.47 278.665H758.367V277.182H756.91V287ZM767.425 287.205C769.419 287.205 770.877 286.207 771.337 284.724L769.879 284.315C769.496 285.338 768.607 285.849 767.425 285.849C765.654 285.849 764.433 284.705 764.363 282.602H771.49V281.963C771.49 278.307 769.317 277.054 767.271 277.054C764.612 277.054 762.848 279.151 762.848 282.168C762.848 285.185 764.587 287.205 767.425 287.205ZM764.363 281.298C764.465 279.771 765.546 278.409 767.271 278.409C768.908 278.409 769.956 279.636 769.956 281.298H764.363ZM776.674 287.23C778.387 287.23 779.282 286.31 779.589 285.67H779.666V287H781.174V280.531C781.174 277.412 778.796 277.054 777.544 277.054C776.061 277.054 774.373 277.565 773.606 279.355L775.038 279.866C775.37 279.151 776.156 278.384 777.595 278.384C778.982 278.384 779.666 279.119 779.666 280.378V280.429C779.666 281.158 778.924 281.094 777.134 281.324C775.313 281.56 773.325 281.963 773.325 284.213C773.325 286.131 774.808 287.23 776.674 287.23ZM776.904 285.875C775.703 285.875 774.833 285.338 774.833 284.29C774.833 283.139 775.882 282.781 777.058 282.628C777.697 282.551 779.41 282.372 779.666 282.065V283.446C779.666 284.673 778.694 285.875 776.904 285.875ZM790.882 279.381C790.409 277.987 789.348 277.054 787.405 277.054C785.334 277.054 783.8 278.23 783.8 279.892C783.8 281.247 784.605 282.155 786.408 282.577L788.044 282.96C789.035 283.19 789.501 283.663 789.501 284.341C789.501 285.185 788.607 285.875 787.2 285.875C785.967 285.875 785.193 285.344 784.925 284.29L783.493 284.648C783.844 286.316 785.219 287.205 787.226 287.205C789.508 287.205 791.061 285.958 791.061 284.264C791.061 282.896 790.205 282.033 788.453 281.605L786.996 281.247C785.832 280.96 785.308 280.57 785.308 279.815C785.308 278.972 786.203 278.358 787.405 278.358C788.722 278.358 789.265 279.087 789.527 279.764L790.882 279.381ZM799.519 282.986C799.519 284.827 798.113 285.67 796.988 285.67C795.735 285.67 794.84 284.75 794.84 283.318V277.182H793.332V283.42C793.332 285.926 794.661 287.128 796.502 287.128C797.985 287.128 798.957 286.335 799.417 285.338H799.519V287H801.028V277.182H799.519V282.986ZM803.791 287H805.299V280.787C805.299 279.457 806.348 278.486 807.779 278.486C808.182 278.486 808.598 278.562 808.7 278.588V277.054C808.527 277.041 808.131 277.028 807.907 277.028C806.731 277.028 805.708 277.693 805.35 278.665H805.248V277.182H803.791V287ZM811.759 290.682C813.12 290.682 814.079 289.96 814.648 288.432L818.828 277.207L817.179 277.182L814.469 285.006H814.366L811.656 277.182H810.02L813.651 287.051L813.369 287.818C812.82 289.314 812.142 289.455 811.043 289.173L810.659 290.503C810.812 290.58 811.247 290.682 811.759 290.682Z" fill="#000B2D"/>
<path d="M750.842 311.179C753.757 311.179 755.739 309.281 755.732 306.634C755.739 304.129 753.987 302.326 751.629 302.326C750.478 302.326 749.487 302.805 749.027 303.451H748.95L749.289 300.172H755.01V297.909H747.007L746.387 304.812L748.848 305.254C749.251 304.71 750.031 304.371 750.804 304.371C752.121 304.378 753.067 305.33 753.067 306.705C753.067 308.066 752.14 309.006 750.842 309.006C749.743 309.006 748.854 308.315 748.79 307.299H746.106C746.157 309.562 748.132 311.179 750.842 311.179ZM762.795 311.288C766.087 311.288 768.075 308.782 768.082 304.467C768.088 300.185 766.075 297.73 762.795 297.73C759.51 297.73 757.516 300.178 757.509 304.467C757.496 308.769 759.497 311.281 762.795 311.288ZM762.795 308.993C761.293 308.993 760.322 307.484 760.328 304.467C760.335 301.495 761.3 299.999 762.795 299.999C764.285 299.999 765.256 301.495 765.256 304.467C765.263 307.484 764.291 308.993 762.795 308.993ZM772.495 309.21H770.245L770.213 309.926C770.137 311.665 769.638 313.448 769.453 314.196H771.217C771.524 313.423 772.252 311.607 772.425 309.913L772.495 309.21ZM779.45 297.73C776.522 297.717 774.547 299.635 774.56 302.268C774.566 304.71 776.26 306.481 778.581 306.481C780.019 306.481 781.297 305.784 781.879 304.634H781.968C781.962 307.229 781.061 308.808 779.354 308.808C778.35 308.808 777.628 308.258 777.417 307.305H774.688C774.944 309.511 776.733 311.179 779.354 311.179C782.595 311.179 784.685 308.558 784.679 304.116C784.672 299.373 782.141 297.743 779.45 297.73ZM779.469 299.903C780.741 299.903 781.681 300.939 781.694 302.185C781.7 303.438 780.709 304.474 779.444 304.474C778.165 304.474 777.251 303.477 777.245 302.192C777.232 300.913 778.184 299.903 779.469 299.903ZM793.762 308.545C793.768 310.118 794.772 311.454 796.645 311.454C798.498 311.454 799.534 310.118 799.527 308.545V307.855C799.534 306.27 798.524 304.947 796.645 304.947C794.797 304.947 793.768 306.283 793.762 307.855V308.545ZM787.044 301.054C787.05 302.626 788.054 303.95 789.92 303.95C791.78 303.95 792.816 302.639 792.809 301.054V300.364C792.816 298.778 791.806 297.455 789.92 297.455C788.092 297.455 787.05 298.778 787.044 300.364V301.054ZM787.67 311H789.338L798.338 297.909H796.67L787.67 311ZM795.622 307.855C795.628 307.229 795.877 306.583 796.645 306.583C797.45 306.583 797.661 307.229 797.654 307.855V308.545C797.661 309.172 797.424 309.805 796.645 309.805C795.865 309.805 795.628 309.153 795.622 308.545V307.855ZM788.917 300.364C788.923 299.756 789.159 299.092 789.92 299.092C790.725 299.092 790.943 299.737 790.936 300.364V301.054C790.943 301.68 790.7 302.313 789.92 302.313C789.166 302.313 788.923 301.68 788.917 301.054V300.364Z" fill="#000B2D"/>
<path d="M557.113 292L560 294.887L562.887 292L560 289.113L557.113 292ZM724 292.5L729 294.887V289.113L724 291.5V292.5ZM560 292.5H597.844V291.5H560V292.5ZM597.844 292.5H724.5V291.5H597.844V292.5Z" fill="#000B2D"/>
<path d="M195.481 502.315H199.597V514H201.182V502.315H205.299V500.909H195.481V502.315ZM210.233 514.205C212.228 514.205 213.685 513.207 214.145 511.724L212.688 511.315C212.305 512.338 211.416 512.849 210.233 512.849C208.463 512.849 207.242 511.705 207.172 509.602H214.299V508.963C214.299 505.307 212.126 504.054 210.08 504.054C207.421 504.054 205.657 506.151 205.657 509.168C205.657 512.185 207.395 514.205 210.233 514.205ZM207.172 508.298C207.274 506.771 208.354 505.409 210.08 505.409C211.716 505.409 212.765 506.636 212.765 508.298H207.172ZM219.483 514.23C221.196 514.23 222.091 513.31 222.398 512.67H222.474V514H223.983V507.531C223.983 504.412 221.605 504.054 220.352 504.054C218.869 504.054 217.182 504.565 216.415 506.355L217.846 506.866C218.179 506.151 218.965 505.384 220.403 505.384C221.79 505.384 222.474 506.119 222.474 507.378V507.429C222.474 508.158 221.733 508.094 219.943 508.324C218.121 508.56 216.133 508.963 216.133 511.213C216.133 513.131 217.616 514.23 219.483 514.23ZM219.713 512.875C218.511 512.875 217.642 512.338 217.642 511.29C217.642 510.139 218.69 509.781 219.866 509.628C220.506 509.551 222.219 509.372 222.474 509.065V510.446C222.474 511.673 221.503 512.875 219.713 512.875ZM226.736 514H228.245V507.864C228.245 506.425 229.293 505.409 230.469 505.409C231.613 505.409 232.412 506.157 232.412 507.276V514H233.946V507.608C233.946 506.342 234.739 505.409 236.12 505.409C237.194 505.409 238.114 505.978 238.114 507.429V514H239.623V507.429C239.623 505.121 238.382 504.054 236.631 504.054C235.225 504.054 234.196 504.7 233.691 505.716H233.588C233.103 504.668 232.246 504.054 230.955 504.054C229.676 504.054 228.73 504.668 228.321 505.716H228.194V504.182H226.736V514ZM244.886 508.273H246.114L246.011 505.46L248.389 506.969L249.003 505.895L246.497 504.591L249.003 503.287L248.389 502.213L246.011 503.722L246.114 500.909H244.886L244.989 503.722L242.611 502.213L241.997 503.287L244.503 504.591L241.997 505.895L242.611 506.969L244.989 505.46L244.886 508.273Z" fill="#000B2D"/>
<path d="M220.879 524.909H218.278L215.037 526.961V529.415L218.035 527.536H218.112V538H220.879V524.909ZM228.772 538.179C231.687 538.179 233.668 536.281 233.662 533.634C233.668 531.129 231.917 529.326 229.558 529.326C228.408 529.326 227.417 529.805 226.957 530.451H226.88L227.219 527.172H232.94V524.909H224.937L224.317 531.812L226.778 532.254C227.18 531.71 227.96 531.371 228.734 531.371C230.05 531.378 230.996 532.33 230.996 533.705C230.996 535.066 230.07 536.006 228.772 536.006C227.673 536.006 226.784 535.315 226.72 534.299H224.036C224.087 536.562 226.062 538.179 228.772 538.179ZM242.758 535.545C242.764 537.118 243.768 538.454 245.641 538.454C247.494 538.454 248.53 537.118 248.523 535.545V534.855C248.53 533.27 247.52 531.947 245.641 531.947C243.793 531.947 242.764 533.283 242.758 534.855V535.545ZM236.04 528.054C236.046 529.626 237.05 530.95 238.916 530.95C240.776 530.95 241.812 529.639 241.805 528.054V527.364C241.812 525.778 240.802 524.455 238.916 524.455C237.088 524.455 236.046 525.778 236.04 527.364V528.054ZM236.666 538H238.335L247.335 524.909H245.666L236.666 538ZM244.618 534.855C244.624 534.229 244.874 533.583 245.641 533.583C246.446 533.583 246.657 534.229 246.651 534.855V535.545C246.657 536.172 246.42 536.805 245.641 536.805C244.861 536.805 244.624 536.153 244.618 535.545V534.855ZM237.913 527.364C237.919 526.756 238.156 526.092 238.916 526.092C239.722 526.092 239.939 526.737 239.933 527.364V528.054C239.939 528.68 239.696 529.313 238.916 529.313C238.162 529.313 237.919 528.68 237.913 528.054V527.364Z" fill="#000B2D"/>
<path d="M358.856 416.355L355.055 417.844L356.544 421.645L360.346 420.156L358.856 416.355ZM314 519L314 519.5L314.327 519.5L314.458 519.2L314 519ZM263.613 519L266.5 521.887L269.387 519L266.5 516.113L263.613 519ZM357.242 418.8L313.542 518.8L314.458 519.2L358.159 419.2L357.242 418.8ZM314 518.5L266.5 518.5L266.5 519.5L314 519.5L314 518.5Z" fill="#000B2D"/>
<path d="M64.7786 460H66.3638V455.219H69.2275C72.2765 455.219 73.6507 453.365 73.6507 451.051C73.6507 448.737 72.2765 446.909 69.2019 446.909H64.7786V460ZM66.3638 453.812V448.315H69.1507C71.2793 448.315 72.0911 449.479 72.0911 451.051C72.0911 452.624 71.2793 453.812 69.1763 453.812H66.3638ZM78.889 460.23C80.6021 460.23 81.497 459.31 81.8038 458.67H81.8805V460H83.389V453.531C83.389 450.412 81.0112 450.054 79.7583 450.054C78.2754 450.054 76.5879 450.565 75.8208 452.355L77.2527 452.866C77.585 452.151 78.3713 451.384 79.8095 451.384C81.1966 451.384 81.8805 452.119 81.8805 453.378V453.429C81.8805 454.158 81.139 454.094 79.3493 454.324C77.5275 454.56 75.5396 454.963 75.5396 457.213C75.5396 459.131 77.0225 460.23 78.889 460.23ZM79.1191 458.875C77.9174 458.875 77.0481 458.338 77.0481 457.29C77.0481 456.139 78.0964 455.781 79.2726 455.628C79.9118 455.551 81.6248 455.372 81.8805 455.065V456.446C81.8805 457.673 80.9089 458.875 79.1191 458.875ZM86.1424 460H87.6509V453.787C87.6509 452.457 88.6992 451.486 90.131 451.486C90.5337 451.486 90.9492 451.562 91.0515 451.588V450.054C90.8789 450.041 90.4826 450.028 90.2589 450.028C89.0827 450.028 88.06 450.693 87.7021 451.665H87.5998V450.182H86.1424V460ZM97.7248 450.182H95.6282V447.83H94.1197V450.182H92.6367V451.46H94.1197V457.597C94.1197 459.31 95.5004 460.128 96.7788 460.128C97.3413 460.128 97.6992 460.026 97.9038 459.949L97.5969 458.594C97.4691 458.619 97.2646 458.67 96.9322 458.67C96.2674 458.67 95.6282 458.466 95.6282 457.188V451.46H97.7248V450.182ZM101.502 454.094C101.502 452.381 102.564 451.409 104.008 451.409C105.408 451.409 106.258 452.323 106.258 453.864V460H107.767V453.761C107.767 451.256 106.431 450.054 104.443 450.054C102.96 450.054 102.039 450.719 101.579 451.716H101.451V450.182H99.994V460H101.502V454.094ZM114.64 460.205C116.634 460.205 118.091 459.207 118.552 457.724L117.094 457.315C116.711 458.338 115.822 458.849 114.64 458.849C112.869 458.849 111.648 457.705 111.578 455.602H118.705V454.963C118.705 451.307 116.532 450.054 114.486 450.054C111.827 450.054 110.063 452.151 110.063 455.168C110.063 458.185 111.802 460.205 114.64 460.205ZM111.578 454.298C111.68 452.771 112.76 451.409 114.486 451.409C116.123 451.409 117.171 452.636 117.171 454.298H111.578ZM121 460H122.508V453.787C122.508 452.457 123.557 451.486 124.988 451.486C125.391 451.486 125.807 451.562 125.909 451.588V450.054C125.736 450.041 125.34 450.028 125.116 450.028C123.94 450.028 122.917 450.693 122.559 451.665H122.457V450.182H121V460ZM134.652 452.381C134.179 450.987 133.118 450.054 131.174 450.054C129.103 450.054 127.569 451.23 127.569 452.892C127.569 454.247 128.375 455.155 130.177 455.577L131.814 455.96C132.804 456.19 133.271 456.663 133.271 457.341C133.271 458.185 132.376 458.875 130.97 458.875C129.736 458.875 128.963 458.344 128.694 457.29L127.262 457.648C127.614 459.316 128.988 460.205 130.995 460.205C133.277 460.205 134.831 458.958 134.831 457.264C134.831 455.896 133.974 455.033 132.223 454.605L130.765 454.247C129.602 453.96 129.078 453.57 129.078 452.815C129.078 451.972 129.973 451.358 131.174 451.358C132.491 451.358 133.034 452.087 133.297 452.764L134.652 452.381ZM138.61 454.094C138.61 452.381 139.703 451.409 141.192 451.409C142.611 451.409 143.468 452.304 143.468 453.864V460H144.976V453.761C144.976 451.237 143.634 450.054 141.627 450.054C140.08 450.054 139.198 450.7 138.738 451.716H138.61V446.909H137.101V460H138.61V454.094ZM147.736 460H149.245V450.182H147.736V460ZM148.503 448.545C149.091 448.545 149.577 448.085 149.577 447.523C149.577 446.96 149.091 446.5 148.503 446.5C147.915 446.5 147.429 446.96 147.429 447.523C147.429 448.085 147.915 448.545 148.503 448.545ZM152.008 463.682H153.516V458.491H153.644C153.976 459.028 154.616 460.205 156.508 460.205C158.962 460.205 160.675 458.236 160.675 455.116C160.675 452.023 158.962 450.054 156.482 450.054C154.564 450.054 153.976 451.23 153.644 451.741H153.465V450.182H152.008V463.682ZM153.491 455.091C153.491 452.892 154.462 451.409 156.303 451.409C158.221 451.409 159.167 453.02 159.167 455.091C159.167 457.188 158.195 458.849 156.303 458.849C154.488 458.849 153.491 457.315 153.491 455.091ZM169.931 452.381C169.458 450.987 168.397 450.054 166.454 450.054C164.383 450.054 162.849 451.23 162.849 452.892C162.849 454.247 163.654 455.155 165.456 455.577L167.093 455.96C168.084 456.19 168.55 456.663 168.55 457.341C168.55 458.185 167.655 458.875 166.249 458.875C165.015 458.875 164.242 458.344 163.974 457.29L162.542 457.648C162.893 459.316 164.268 460.205 166.275 460.205C168.557 460.205 170.11 458.958 170.11 457.264C170.11 455.896 169.253 455.033 167.502 454.605L166.045 454.247C164.881 453.96 164.357 453.57 164.357 452.815C164.357 451.972 165.252 451.358 166.454 451.358C167.77 451.358 168.314 452.087 168.576 452.764L169.931 452.381Z" fill="#000B2D"/>
<path d="M121.037 484.179C123.977 484.179 126.08 482.562 126.074 480.325C126.08 478.695 125.044 477.531 123.12 477.288V477.186C124.584 476.924 125.594 475.888 125.588 474.418C125.594 472.354 123.785 470.73 121.075 470.73C118.39 470.73 116.37 472.303 116.332 474.565H118.985C119.017 473.568 119.931 472.923 121.062 472.923C122.181 472.923 122.929 473.6 122.922 474.585C122.929 475.614 122.053 476.31 120.794 476.31H119.573V478.343H120.794C122.277 478.343 123.203 479.085 123.197 480.139C123.203 481.181 122.309 481.897 121.043 481.897C119.822 481.897 118.908 481.258 118.857 480.299H116.07C116.115 482.587 118.16 484.179 121.037 484.179ZM130.679 482.21H128.429L128.397 482.926C128.32 484.665 127.822 486.448 127.636 487.196H129.401C129.707 486.423 130.436 484.607 130.609 482.913L130.679 482.21ZM137.731 484.288C141.023 484.288 143.011 481.782 143.017 477.467C143.024 473.185 141.01 470.73 137.731 470.73C134.445 470.73 132.451 473.178 132.445 477.467C132.432 481.769 134.433 484.281 137.731 484.288ZM137.731 481.993C136.229 481.993 135.257 480.484 135.264 477.467C135.27 474.495 136.235 472.999 137.731 472.999C139.22 472.999 140.192 474.495 140.192 477.467C140.198 480.484 139.227 481.993 137.731 481.993ZM149.772 484.179C152.687 484.179 154.668 482.281 154.662 479.634C154.668 477.129 152.917 475.326 150.558 475.326C149.408 475.326 148.417 475.805 147.957 476.451H147.88L148.219 473.172H153.94V470.909H145.937L145.317 477.812L147.778 478.254C148.18 477.71 148.96 477.371 149.734 477.371C151.05 477.378 151.996 478.33 151.996 479.705C151.996 481.066 151.07 482.006 149.772 482.006C148.673 482.006 147.784 481.315 147.72 480.299H145.036C145.087 482.562 147.062 484.179 149.772 484.179ZM163.758 481.545C163.764 483.118 164.768 484.454 166.641 484.454C168.494 484.454 169.53 483.118 169.523 481.545V480.855C169.53 479.27 168.52 477.947 166.641 477.947C164.793 477.947 163.764 479.283 163.758 480.855V481.545ZM157.04 474.054C157.046 475.626 158.05 476.95 159.916 476.95C161.776 476.95 162.812 475.639 162.805 474.054V473.364C162.812 471.778 161.802 470.455 159.916 470.455C158.088 470.455 157.046 471.778 157.04 473.364V474.054ZM157.666 484H159.335L168.335 470.909H166.666L157.666 484ZM165.618 480.855C165.624 480.229 165.874 479.583 166.641 479.583C167.446 479.583 167.657 480.229 167.651 480.855V481.545C167.657 482.172 167.42 482.805 166.641 482.805C165.861 482.805 165.624 482.153 165.618 481.545V480.855ZM158.913 473.364C158.919 472.756 159.156 472.092 159.916 472.092C160.722 472.092 160.939 472.737 160.933 473.364V474.054C160.939 474.68 160.696 475.313 159.916 475.313C159.162 475.313 158.919 474.68 158.913 474.054V473.364Z" fill="#000B2D"/>
<path d="M313.133 384.119L309.119 384.867L309.867 388.881L313.881 388.133L313.133 384.119ZM258 464.5V465H258.263L258.412 464.783L258 464.5ZM192.5 464L187.5 461.613V467.387L192.5 465V464ZM311.088 386.217L257.588 464.217L258.412 464.783L311.912 386.783L311.088 386.217ZM258 464H192V465H258V464Z" fill="#000B2D"/>
<path d="M3.01864 380L4.3354 376.293H9.62802L10.9448 380H12.6067L7.79989 366.909H6.16353L1.35671 380H3.01864ZM4.83398 374.886L6.93058 368.98H7.03285L9.12944 374.886H4.83398ZM14.4412 380H15.9498V373.864C15.9498 372.425 16.998 371.409 18.1742 371.409C19.3184 371.409 20.1174 372.157 20.1174 373.276V380H21.6515V373.608C21.6515 372.342 22.4441 371.409 23.8248 371.409C24.8986 371.409 25.8191 371.978 25.8191 373.429V380H27.3276V373.429C27.3276 371.121 26.0875 370.054 24.3361 370.054C22.9299 370.054 21.9007 370.7 21.3958 371.716H21.2935C20.8077 370.668 19.9512 370.054 18.66 370.054C17.3816 370.054 16.4355 370.668 16.0265 371.716H15.8986V370.182H14.4412V380ZM30.2903 380H31.7477V378.491H31.9267C32.2591 379.028 32.8983 380.205 34.7903 380.205C37.2449 380.205 38.9579 378.236 38.9579 375.116C38.9579 372.023 37.2449 370.054 34.7647 370.054C32.8471 370.054 32.2591 371.23 31.9267 371.741H31.7988V366.909H30.2903V380ZM31.7733 375.091C31.7733 372.892 32.7449 371.409 34.5858 371.409C36.5034 371.409 37.4494 373.02 37.4494 375.091C37.4494 377.188 36.4778 378.849 34.5858 378.849C32.7704 378.849 31.7733 377.315 31.7733 375.091ZM44.1547 380.23C45.8677 380.23 46.7626 379.31 47.0694 378.67H47.1461V380H48.6547V373.531C48.6547 370.412 46.2768 370.054 45.024 370.054C43.541 370.054 41.8535 370.565 41.0865 372.355L42.5183 372.866C42.8507 372.151 43.6369 371.384 45.0751 371.384C46.4622 371.384 47.1461 372.119 47.1461 373.378V373.429C47.1461 374.158 46.4047 374.094 44.6149 374.324C42.7931 374.56 40.8052 374.963 40.8052 377.213C40.8052 379.131 42.2882 380.23 44.1547 380.23ZM44.3848 378.875C43.1831 378.875 42.3137 378.338 42.3137 377.29C42.3137 376.139 43.362 375.781 44.5382 375.628C45.1774 375.551 46.8904 375.372 47.1461 375.065V376.446C47.1461 377.673 46.1745 378.875 44.3848 378.875ZM58.3626 372.381C57.8896 370.987 56.8285 370.054 54.8853 370.054C52.8143 370.054 51.2802 371.23 51.2802 372.892C51.2802 374.247 52.0856 375.155 53.8881 375.577L55.5245 375.96C56.5153 376.19 56.9819 376.663 56.9819 377.341C56.9819 378.185 56.087 378.875 54.6808 378.875C53.4471 378.875 52.6737 378.344 52.4052 377.29L50.9734 377.648C51.3249 379.316 52.6992 380.205 54.7063 380.205C56.9883 380.205 58.5415 378.958 58.5415 377.264C58.5415 375.896 57.685 375.033 55.9336 374.605L54.4762 374.247C53.3129 373.96 52.7887 373.57 52.7887 372.815C52.7887 371.972 53.6836 371.358 54.8853 371.358C56.2021 371.358 56.7454 372.087 57.0075 372.764L58.3626 372.381ZM67.7669 372.381C67.2939 370.987 66.2328 370.054 64.2896 370.054C62.2186 370.054 60.6845 371.23 60.6845 372.892C60.6845 374.247 61.4899 375.155 63.2924 375.577L64.9288 375.96C65.9196 376.19 66.3862 376.663 66.3862 377.341C66.3862 378.185 65.4913 378.875 64.0851 378.875C62.8514 378.875 62.0779 378.344 61.8095 377.29L60.3777 377.648C60.7292 379.316 62.1035 380.205 64.1106 380.205C66.3926 380.205 67.9458 378.958 67.9458 377.264C67.9458 375.896 67.0893 375.033 65.3379 374.605L63.8805 374.247C62.7172 373.96 62.193 373.57 62.193 372.815C62.193 371.972 63.0879 371.358 64.2896 371.358C65.6064 371.358 66.1497 372.087 66.4118 372.764L67.7669 372.381ZM73.1058 380.23C74.8189 380.23 75.7138 379.31 76.0206 378.67H76.0973V380H77.6058V373.531C77.6058 370.412 75.228 370.054 73.9751 370.054C72.4922 370.054 70.8047 370.565 70.0376 372.355L71.4695 372.866C71.8018 372.151 72.5881 371.384 74.0263 371.384C75.4134 371.384 76.0973 372.119 76.0973 373.378V373.429C76.0973 374.158 75.3558 374.094 73.5661 374.324C71.7443 374.56 69.7564 374.963 69.7564 377.213C69.7564 379.131 71.2393 380.23 73.1058 380.23ZM73.3359 378.875C72.1342 378.875 71.2649 378.338 71.2649 377.29C71.2649 376.139 72.3132 375.781 73.4893 375.628C74.1286 375.551 75.8416 375.372 76.0973 375.065V376.446C76.0973 377.673 75.1257 378.875 73.3359 378.875ZM84.0666 380.205C85.9586 380.205 86.5978 379.028 86.9302 378.491H87.1092V380H88.5666V366.909H87.0581V371.741H86.9302C86.5978 371.23 86.0098 370.054 84.0922 370.054C81.612 370.054 79.899 372.023 79.899 375.116C79.899 378.236 81.612 380.205 84.0666 380.205ZM84.2711 378.849C82.3791 378.849 81.4075 377.188 81.4075 375.091C81.4075 373.02 82.3535 371.409 84.2711 371.409C86.112 371.409 87.0836 372.892 87.0836 375.091C87.0836 377.315 86.0865 378.849 84.2711 378.849ZM95.5275 380.205C98.1866 380.205 99.9764 378.185 99.9764 375.142C99.9764 372.074 98.1866 370.054 95.5275 370.054C92.8684 370.054 91.0787 372.074 91.0787 375.142C91.0787 378.185 92.8684 380.205 95.5275 380.205ZM95.5275 378.849C93.5076 378.849 92.5872 377.111 92.5872 375.142C92.5872 373.173 93.5076 371.409 95.5275 371.409C97.5474 371.409 98.4679 373.173 98.4679 375.142C98.4679 377.111 97.5474 378.849 95.5275 378.849ZM102.279 380H103.788V373.787C103.788 372.457 104.836 371.486 106.268 371.486C106.67 371.486 107.086 371.562 107.188 371.588V370.054C107.016 370.041 106.619 370.028 106.396 370.028C105.219 370.028 104.197 370.693 103.839 371.665H103.737V370.182H102.279V380ZM115.931 372.381C115.458 370.987 114.397 370.054 112.454 370.054C110.383 370.054 108.849 371.23 108.849 372.892C108.849 374.247 109.654 375.155 111.456 375.577L113.093 375.96C114.084 376.19 114.55 376.663 114.55 377.341C114.55 378.185 113.655 378.875 112.249 378.875C111.015 378.875 110.242 378.344 109.974 377.29L108.542 377.648C108.893 379.316 110.268 380.205 112.275 380.205C114.557 380.205 116.11 378.958 116.11 377.264C116.11 375.896 115.253 375.033 113.502 374.605L112.045 374.247C110.881 373.96 110.357 373.57 110.357 372.815C110.357 371.972 111.252 371.358 112.454 371.358C113.77 371.358 114.314 372.087 114.576 372.764L115.931 372.381Z" fill="#000B2D"/>
<path d="M74.4673 404H83.7997V401.737H78.3026V401.648L80.2138 399.775C82.9048 397.32 83.6271 396.093 83.6271 394.604C83.6271 392.335 81.7734 390.73 78.9673 390.73C76.2188 390.73 74.3331 392.373 74.3395 394.942H76.9666C76.9602 393.69 77.7528 392.923 78.9482 392.923C80.0987 392.923 80.9553 393.638 80.9553 394.789C80.9553 395.831 80.3161 396.547 79.1271 397.691L74.4673 402.006V404ZM88.7903 402.21H86.5403L86.5083 402.926C86.4316 404.665 85.9331 406.448 85.7477 407.196H87.5119C87.8187 406.423 88.5474 404.607 88.72 402.913L88.7903 402.21ZM91.2544 404H100.587V401.737H95.0897V401.648L97.0009 399.775C99.6919 397.32 100.414 396.093 100.414 394.604C100.414 392.335 98.5605 390.73 95.7544 390.73C93.0059 390.73 91.1202 392.373 91.1266 394.942H93.7537C93.7473 393.69 94.54 392.923 95.7353 392.923C96.8858 392.923 97.7424 393.638 97.7424 394.789C97.7424 395.831 97.1032 396.547 95.9142 397.691L91.2544 402.006V404ZM109.758 401.545C109.764 403.118 110.768 404.454 112.641 404.454C114.494 404.454 115.53 403.118 115.523 401.545V400.855C115.53 399.27 114.52 397.947 112.641 397.947C110.793 397.947 109.764 399.283 109.758 400.855V401.545ZM103.04 394.054C103.046 395.626 104.05 396.95 105.916 396.95C107.776 396.95 108.812 395.639 108.805 394.054V393.364C108.812 391.778 107.802 390.455 105.916 390.455C104.088 390.455 103.046 391.778 103.04 393.364V394.054ZM103.666 404H105.335L114.335 390.909H112.666L103.666 404ZM111.618 400.855C111.624 400.229 111.874 399.583 112.641 399.583C113.446 399.583 113.657 400.229 113.651 400.855V401.545C113.657 402.172 113.42 402.805 112.641 402.805C111.861 402.805 111.624 402.153 111.618 401.545V400.855ZM104.913 393.364C104.919 392.756 105.156 392.092 105.916 392.092C106.722 392.092 106.939 392.737 106.933 393.364V394.054C106.939 394.68 106.696 395.313 105.916 395.313C105.162 395.313 104.919 394.68 104.913 394.054V393.364Z" fill="#000B2D"/>
<path d="M280.636 349.324L276.824 347.864L275.364 351.676L279.176 353.136L280.636 349.324ZM204 383.5V384H204.106L204.204 383.957L204 383.5ZM138.5 383L133.5 380.613V386.387L138.5 384V383ZM277.796 350.043L203.796 383.043L204.204 383.957L278.204 350.957L277.796 350.043ZM204 383H138V384H204V383Z" fill="#000B2D"/>
<path d="M23.4572 299C22.9714 296.315 20.8237 294.73 18.1902 294.73C14.8407 294.73 12.4118 297.312 12.4118 301.455C12.4118 305.597 14.8407 308.179 18.1902 308.179C20.8237 308.179 22.9714 306.594 23.4572 303.909H21.872C21.4885 305.724 19.9288 306.696 18.1902 306.696C15.8123 306.696 13.9458 304.855 13.9458 301.455C13.9458 298.054 15.8123 296.213 18.1902 296.213C19.9288 296.213 21.4885 297.185 21.872 299H23.4572ZM29.8029 308.205C32.462 308.205 34.2518 306.185 34.2518 303.142C34.2518 300.074 32.462 298.054 29.8029 298.054C27.1438 298.054 25.354 300.074 25.354 303.142C25.354 306.185 27.1438 308.205 29.8029 308.205ZM29.8029 306.849C27.783 306.849 26.8626 305.111 26.8626 303.142C26.8626 301.173 27.783 299.409 29.8029 299.409C31.8228 299.409 32.7433 301.173 32.7433 303.142C32.7433 305.111 31.8228 306.849 29.8029 306.849ZM36.5545 308H38.063V301.864C38.063 300.425 39.1113 299.409 40.2875 299.409C41.4316 299.409 42.2306 300.157 42.2306 301.276V308H43.7647V301.608C43.7647 300.342 44.5574 299.409 45.938 299.409C47.0119 299.409 47.9324 299.978 47.9324 301.429V308H49.4409V301.429C49.4409 299.121 48.2008 298.054 46.4494 298.054C45.0431 298.054 44.014 298.7 43.5091 299.716H43.4068C42.921 298.668 42.0645 298.054 40.7733 298.054C39.4949 298.054 38.5488 298.668 38.1397 299.716H38.0119V298.182H36.5545V308ZM52.199 308H53.7076V301.864C53.7076 300.425 54.7559 299.409 55.932 299.409C57.0762 299.409 57.8752 300.157 57.8752 301.276V308H59.4093V301.608C59.4093 300.342 60.2019 299.409 61.5826 299.409C62.6564 299.409 63.5769 299.978 63.5769 301.429V308H65.0854V301.429C65.0854 299.121 63.8453 298.054 62.0939 298.054C60.6877 298.054 59.6586 298.7 59.1536 299.716H59.0513C58.5655 298.668 57.709 298.054 56.4178 298.054C55.1394 298.054 54.1934 298.668 53.7843 299.716H53.6564V298.182H52.199V308ZM74.0311 303.986C74.0311 305.827 72.6248 306.67 71.4998 306.67C70.247 306.67 69.3521 305.75 69.3521 304.318V298.182H67.8436V304.42C67.8436 306.926 69.1731 308.128 71.014 308.128C72.497 308.128 73.4686 307.335 73.9288 306.338H74.0311V308H75.5396V298.182H74.0311V303.986ZM79.8111 302.094C79.8111 300.381 80.8722 299.409 82.3168 299.409C83.7166 299.409 84.5668 300.323 84.5668 301.864V308H86.0753V301.761C86.0753 299.256 84.7393 298.054 82.7514 298.054C81.2685 298.054 80.348 298.719 79.8878 299.716H79.7599V298.182H78.3026V308H79.8111V302.094ZM88.8319 308H90.3404V298.182H88.8319V308ZM89.5989 296.545C90.187 296.545 90.6728 296.085 90.6728 295.523C90.6728 294.96 90.187 294.5 89.5989 294.5C89.0108 294.5 88.525 294.96 88.525 295.523C88.525 296.085 89.0108 296.545 89.5989 296.545ZM97.092 308.205C99.2653 308.205 100.697 306.875 100.953 305.136H99.4442C99.163 306.21 98.2681 306.849 97.092 306.849C95.3022 306.849 94.1516 305.366 94.1516 303.091C94.1516 300.866 95.3278 299.409 97.092 299.409C98.4215 299.409 99.2141 300.227 99.4442 301.122H100.953C100.697 299.281 99.1374 298.054 97.0664 298.054C94.4073 298.054 92.6431 300.151 92.6431 303.142C92.6431 306.082 94.3306 308.205 97.092 308.205ZM106.047 308.23C107.76 308.23 108.655 307.31 108.962 306.67H109.039V308H110.547V301.531C110.547 298.412 108.169 298.054 106.917 298.054C105.434 298.054 103.746 298.565 102.979 300.355L104.411 300.866C104.743 300.151 105.529 299.384 106.968 299.384C108.355 299.384 109.039 300.119 109.039 301.378V301.429C109.039 302.158 108.297 302.094 106.507 302.324C104.686 302.56 102.698 302.963 102.698 305.213C102.698 307.131 104.181 308.23 106.047 308.23ZM106.277 306.875C105.076 306.875 104.206 306.338 104.206 305.29C104.206 304.139 105.255 303.781 106.431 303.628C107.07 303.551 108.783 303.372 109.039 303.065V304.446C109.039 305.673 108.067 306.875 106.277 306.875ZM117.57 298.182H115.474V295.83H113.965V298.182H112.482V299.46H113.965V305.597C113.965 307.31 115.346 308.128 116.624 308.128C117.187 308.128 117.545 308.026 117.749 307.949L117.443 306.594C117.315 306.619 117.11 306.67 116.778 306.67C116.113 306.67 115.474 306.466 115.474 305.188V299.46H117.57V298.182ZM119.84 308H121.348V298.182H119.84V308ZM120.607 296.545C121.195 296.545 121.681 296.085 121.681 295.523C121.681 294.96 121.195 294.5 120.607 294.5C120.019 294.5 119.533 294.96 119.533 295.523C119.533 296.085 120.019 296.545 120.607 296.545ZM128.1 308.205C130.759 308.205 132.549 306.185 132.549 303.142C132.549 300.074 130.759 298.054 128.1 298.054C125.441 298.054 123.651 300.074 123.651 303.142C123.651 306.185 125.441 308.205 128.1 308.205ZM128.1 306.849C126.08 306.849 125.159 305.111 125.159 303.142C125.159 301.173 126.08 299.409 128.1 299.409C130.12 299.409 131.04 301.173 131.04 303.142C131.04 305.111 130.12 306.849 128.1 306.849ZM136.36 302.094C136.36 300.381 137.421 299.409 138.866 299.409C140.265 299.409 141.116 300.323 141.116 301.864V308H142.624V301.761C142.624 299.256 141.288 298.054 139.3 298.054C137.817 298.054 136.897 298.719 136.437 299.716H136.309V298.182H134.851V308H136.36V302.094Z" fill="#000B2D"/>
<path d="M110.256 332.288C113.548 332.288 115.536 329.782 115.543 325.467C115.549 321.185 113.536 318.73 110.256 318.73C106.971 318.73 104.977 321.178 104.97 325.467C104.957 329.769 106.958 332.281 110.256 332.288ZM110.256 329.993C108.754 329.993 107.783 328.484 107.789 325.467C107.795 322.495 108.761 320.999 110.256 320.999C111.746 320.999 112.717 322.495 112.717 325.467C112.724 328.484 111.752 329.993 110.256 329.993ZM119.956 330.21H117.706L117.674 330.926C117.598 332.665 117.099 334.448 116.914 335.196H118.678C118.985 334.423 119.713 332.607 119.886 330.913L119.956 330.21ZM126.481 318.909H123.879L120.639 320.961V323.415L123.637 321.536H123.713V332H126.481V318.909ZM136.758 329.545C136.764 331.118 137.768 332.454 139.641 332.454C141.494 332.454 142.53 331.118 142.523 329.545V328.855C142.53 327.27 141.52 325.947 139.641 325.947C137.793 325.947 136.764 327.283 136.758 328.855V329.545ZM130.04 322.054C130.046 323.626 131.05 324.95 132.916 324.95C134.776 324.95 135.812 323.639 135.805 322.054V321.364C135.812 319.778 134.802 318.455 132.916 318.455C131.088 318.455 130.046 319.778 130.04 321.364V322.054ZM130.666 332H132.335L141.335 318.909H139.666L130.666 332ZM138.618 328.855C138.624 328.229 138.874 327.583 139.641 327.583C140.446 327.583 140.657 328.229 140.651 328.855V329.545C140.657 330.172 140.42 330.805 139.641 330.805C138.861 330.805 138.624 330.153 138.618 329.545V328.855ZM131.913 321.364C131.919 320.756 132.156 320.092 132.916 320.092C133.722 320.092 133.939 320.737 133.933 321.364V322.054C133.939 322.68 133.696 323.313 132.916 323.313C132.162 323.313 131.919 322.68 131.913 322.054V321.364Z" fill="#000B2D"/>
<path d="M247 337L246.867 337.482L246.932 337.5H247V337ZM164.953 313.848L160.768 310.217L159.232 315.783L164.687 314.812L164.953 313.848ZM272.887 337L270 334.113L267.113 337L270 339.887L272.887 337ZM260 336.5H247V337.5H260V336.5ZM247.133 336.518L164.471 313.715L164.205 314.679L246.867 337.482L247.133 336.518ZM260 337.5H270V336.5H260V337.5Z" fill="#000B2D"/>
<path d="M41.0598 223H42.6451V218.219H45.5087C48.5577 218.219 49.932 216.365 49.932 214.051C49.932 211.737 48.5577 209.909 45.4831 209.909H41.0598V223ZM42.6451 216.812V211.315H45.432C47.5605 211.315 48.3723 212.479 48.3723 214.051C48.3723 215.624 47.5605 216.812 45.4576 216.812H42.6451ZM52.2811 223H53.7896V216.787C53.7896 215.457 54.8379 214.486 56.2697 214.486C56.6724 214.486 57.0879 214.562 57.1902 214.588V213.054C57.0176 213.041 56.6213 213.028 56.3976 213.028C55.2214 213.028 54.1987 213.693 53.8407 214.665H53.7385V213.182H52.2811V223ZM58.9783 223H60.4869V213.182H58.9783V223ZM59.7454 211.545C60.3335 211.545 60.8192 211.085 60.8192 210.523C60.8192 209.96 60.3335 209.5 59.7454 209.5C59.1573 209.5 58.6715 209.96 58.6715 210.523C58.6715 211.085 59.1573 211.545 59.7454 211.545ZM71.2782 213.182H69.6419L66.9316 221.006H66.8294L64.1191 213.182H62.4828L66.1135 223H67.6476L71.2782 213.182ZM75.8597 223.23C77.5728 223.23 78.4677 222.31 78.7745 221.67H78.8512V223H80.3597V216.531C80.3597 213.412 77.9819 213.054 76.729 213.054C75.2461 213.054 73.5586 213.565 72.7915 215.355L74.2234 215.866C74.5558 215.151 75.342 214.384 76.7802 214.384C78.1673 214.384 78.8512 215.119 78.8512 216.378V216.429C78.8512 217.158 78.1097 217.094 76.32 217.324C74.4982 217.56 72.5103 217.963 72.5103 220.213C72.5103 222.131 73.9933 223.23 75.8597 223.23ZM76.0898 221.875C74.8881 221.875 74.0188 221.338 74.0188 220.29C74.0188 219.139 75.0671 218.781 76.2433 218.628C76.8825 218.551 78.5955 218.372 78.8512 218.065V219.446C78.8512 220.673 77.8796 221.875 76.0898 221.875ZM87.383 213.182H85.2864V210.83H83.7779V213.182H82.2949V214.46H83.7779V220.597C83.7779 222.31 85.1586 223.128 86.437 223.128C86.9995 223.128 87.3574 223.026 87.562 222.949L87.2551 221.594C87.1273 221.619 86.9228 221.67 86.5904 221.67C85.9256 221.67 85.2864 221.466 85.2864 220.188V214.46H87.383V213.182ZM93.6632 223.205C95.6575 223.205 97.1149 222.207 97.5751 220.724L96.1177 220.315C95.7342 221.338 94.8457 221.849 93.6632 221.849C91.8926 221.849 90.6717 220.705 90.6014 218.602H97.7285V217.963C97.7285 214.307 95.5552 213.054 93.5098 213.054C90.8507 213.054 89.0865 215.151 89.0865 218.168C89.0865 221.185 90.8251 223.205 93.6632 223.205ZM90.6014 217.298C90.7037 215.771 91.7839 214.409 93.5098 214.409C95.1461 214.409 96.1944 215.636 96.1944 217.298H90.6014ZM112.04 215.381C111.567 213.987 110.506 213.054 108.563 213.054C106.492 213.054 104.958 214.23 104.958 215.892C104.958 217.247 105.763 218.155 107.566 218.577L109.202 218.96C110.193 219.19 110.66 219.663 110.66 220.341C110.66 221.185 109.765 221.875 108.358 221.875C107.125 221.875 106.351 221.344 106.083 220.29L104.651 220.648C105.003 222.316 106.377 223.205 108.384 223.205C110.666 223.205 112.219 221.958 112.219 220.264C112.219 218.896 111.363 218.033 109.611 217.605L108.154 217.247C106.991 216.96 106.466 216.57 106.466 215.815C106.466 214.972 107.361 214.358 108.563 214.358C109.88 214.358 110.423 215.087 110.685 215.764L112.04 215.381ZM117.379 223.23C119.092 223.23 119.987 222.31 120.294 221.67H120.371V223H121.879V216.531C121.879 213.412 119.501 213.054 118.249 213.054C116.766 213.054 115.078 213.565 114.311 215.355L115.743 215.866C116.075 215.151 116.862 214.384 118.3 214.384C119.687 214.384 120.371 215.119 120.371 216.378V216.429C120.371 217.158 119.629 217.094 117.839 217.324C116.018 217.56 114.03 217.963 114.03 220.213C114.03 222.131 115.513 223.23 117.379 223.23ZM117.609 221.875C116.408 221.875 115.538 221.338 115.538 220.29C115.538 219.139 116.587 218.781 117.763 218.628C118.402 218.551 120.115 218.372 120.371 218.065V219.446C120.371 220.673 119.399 221.875 117.609 221.875ZM126.141 209.909H124.633V223H126.141V209.909ZM133.021 223.205C135.015 223.205 136.472 222.207 136.933 220.724L135.475 220.315C135.092 221.338 134.203 221.849 133.021 221.849C131.25 221.849 130.029 220.705 129.959 218.602H137.086V217.963C137.086 214.307 134.913 213.054 132.867 213.054C130.208 213.054 128.444 215.151 128.444 218.168C128.444 221.185 130.183 223.205 133.021 223.205ZM129.959 217.298C130.061 215.771 131.141 214.409 132.867 214.409C134.504 214.409 135.552 215.636 135.552 217.298H129.959Z" fill="#000B2D"/>
<path d="M98.7097 247H101.567L107 236.204V233.909H97.8148V236.172H104.137V236.261L98.7097 247ZM109.632 245.21H107.382L107.35 245.926C107.273 247.665 106.775 249.448 106.589 250.196H108.354C108.661 249.423 109.389 247.607 109.562 245.913L109.632 245.21ZM116.772 247.179C119.687 247.179 121.668 245.281 121.662 242.634C121.668 240.129 119.917 238.326 117.558 238.326C116.408 238.326 115.417 238.805 114.957 239.451H114.88L115.219 236.172H120.94V233.909H112.937L112.317 240.812L114.778 241.254C115.18 240.71 115.96 240.371 116.734 240.371C118.05 240.378 118.996 241.33 118.996 242.705C118.996 244.066 118.07 245.006 116.772 245.006C115.673 245.006 114.784 244.315 114.72 243.299H112.036C112.087 245.562 114.062 247.179 116.772 247.179ZM130.758 244.545C130.764 246.118 131.768 247.454 133.641 247.454C135.494 247.454 136.53 246.118 136.523 244.545V243.855C136.53 242.27 135.52 240.947 133.641 240.947C131.793 240.947 130.764 242.283 130.758 243.855V244.545ZM124.04 237.054C124.046 238.626 125.05 239.95 126.916 239.95C128.776 239.95 129.812 238.639 129.805 237.054V236.364C129.812 234.778 128.802 233.455 126.916 233.455C125.088 233.455 124.046 234.778 124.04 236.364V237.054ZM124.666 247H126.335L135.335 233.909H133.666L124.666 247ZM132.618 243.855C132.624 243.229 132.874 242.583 133.641 242.583C134.446 242.583 134.657 243.229 134.651 243.855V244.545C134.657 245.172 134.42 245.805 133.641 245.805C132.861 245.805 132.624 245.153 132.618 244.545V243.855ZM125.913 236.364C125.919 235.756 126.156 235.092 126.916 235.092C127.722 235.092 127.939 235.737 127.933 236.364V237.054C127.939 237.68 127.696 238.313 126.916 238.313C126.162 238.313 125.919 237.68 125.913 237.054V236.364Z" fill="#000B2D"/>
<path d="M272.865 299.203L273.203 295.135L269.135 294.797L268.797 298.865L272.865 299.203ZM213 228.5L213.382 228.177L213.232 228H213V228.5ZM154 228L149 225.613L149 231.387L154 229V228ZM271.382 296.677L213.382 228.177L212.618 228.823L270.618 297.323L271.382 296.677ZM213 228H153.5V229H213V228Z" fill="#000B2D"/>
<path d="M63.2102 142H64.7955V136.145H70.4716V134.739H64.7955V130.315H71.0597V128.909H63.2102V142ZM75.0787 128.909H73.5701V142H75.0787V128.909ZM80.7308 142.23C82.4439 142.23 83.3388 141.31 83.6456 140.67H83.7223V142H85.2308V135.531C85.2308 132.412 82.853 132.054 81.6001 132.054C80.1172 132.054 78.4297 132.565 77.6626 134.355L79.0945 134.866C79.4268 134.151 80.2131 133.384 81.6513 133.384C83.0384 133.384 83.7223 134.119 83.7223 135.378V135.429C83.7223 136.158 82.9808 136.094 81.1911 136.324C79.3693 136.56 77.3814 136.963 77.3814 139.213C77.3814 141.131 78.8643 142.23 80.7308 142.23ZM80.9609 140.875C79.7592 140.875 78.8899 140.338 78.8899 139.29C78.8899 138.139 79.9382 137.781 81.1143 137.628C81.7536 137.551 83.4666 137.372 83.7223 137.065V138.446C83.7223 139.673 82.7507 140.875 80.9609 140.875ZM94.9387 134.381C94.4657 132.987 93.4047 132.054 91.4615 132.054C89.3904 132.054 87.8564 133.23 87.8564 134.892C87.8564 136.247 88.6618 137.155 90.4643 137.577L92.1007 137.96C93.0914 138.19 93.5581 138.663 93.5581 139.341C93.5581 140.185 92.6632 140.875 91.2569 140.875C90.0233 140.875 89.2498 140.344 88.9814 139.29L87.5495 139.648C87.9011 141.316 89.2754 142.205 91.2825 142.205C93.5645 142.205 95.1177 140.958 95.1177 139.264C95.1177 137.896 94.2612 137.033 92.5098 136.605L91.0524 136.247C89.889 135.96 89.3649 135.57 89.3649 134.815C89.3649 133.972 90.2598 133.358 91.4615 133.358C92.7782 133.358 93.3216 134.087 93.5836 134.764L94.9387 134.381ZM98.897 136.094C98.897 134.381 99.9901 133.409 101.479 133.409C102.898 133.409 103.755 134.304 103.755 135.864V142H105.263V135.761C105.263 133.237 103.921 132.054 101.914 132.054C100.367 132.054 99.4851 132.7 99.0249 133.716H98.897V128.909H97.3885V142H98.897V136.094ZM120.04 134.381C119.567 132.987 118.506 132.054 116.563 132.054C114.492 132.054 112.958 133.23 112.958 134.892C112.958 136.247 113.763 137.155 115.566 137.577L117.202 137.96C118.193 138.19 118.66 138.663 118.66 139.341C118.66 140.185 117.765 140.875 116.358 140.875C115.125 140.875 114.351 140.344 114.083 139.29L112.651 139.648C113.003 141.316 114.377 142.205 116.384 142.205C118.666 142.205 120.219 140.958 120.219 139.264C120.219 137.896 119.363 137.033 117.611 136.605L116.154 136.247C114.991 135.96 114.466 135.57 114.466 134.815C114.466 133.972 115.361 133.358 116.563 133.358C117.88 133.358 118.423 134.087 118.685 134.764L120.04 134.381ZM125.379 142.23C127.092 142.23 127.987 141.31 128.294 140.67H128.371V142H129.879V135.531C129.879 132.412 127.501 132.054 126.249 132.054C124.766 132.054 123.078 132.565 122.311 134.355L123.743 134.866C124.075 134.151 124.862 133.384 126.3 133.384C127.687 133.384 128.371 134.119 128.371 135.378V135.429C128.371 136.158 127.629 136.094 125.839 136.324C124.018 136.56 122.03 136.963 122.03 139.213C122.03 141.131 123.513 142.23 125.379 142.23ZM125.609 140.875C124.408 140.875 123.538 140.338 123.538 139.29C123.538 138.139 124.587 137.781 125.763 137.628C126.402 137.551 128.115 137.372 128.371 137.065V138.446C128.371 139.673 127.399 140.875 125.609 140.875ZM134.141 128.909H132.633V142H134.141V128.909ZM141.021 142.205C143.015 142.205 144.472 141.207 144.933 139.724L143.475 139.315C143.092 140.338 142.203 140.849 141.021 140.849C139.25 140.849 138.029 139.705 137.959 137.602H145.086V136.963C145.086 133.307 142.913 132.054 140.867 132.054C138.208 132.054 136.444 134.151 136.444 137.168C136.444 140.185 138.183 142.205 141.021 142.205ZM137.959 136.298C138.061 134.771 139.141 133.409 140.867 133.409C142.504 133.409 143.552 134.636 143.552 136.298H137.959Z" fill="#000B2D"/>
<path d="M119.195 163.699H125.478V166H128.125V163.699H129.748V161.481H128.125V152.909H124.66L119.195 161.519V163.699ZM125.529 161.481H121.982V161.379L125.427 155.926H125.529V161.481ZM138.758 163.545C138.764 165.118 139.768 166.454 141.641 166.454C143.494 166.454 144.53 165.118 144.523 163.545V162.855C144.53 161.27 143.52 159.947 141.641 159.947C139.793 159.947 138.764 161.283 138.758 162.855V163.545ZM132.04 156.054C132.046 157.626 133.05 158.95 134.916 158.95C136.776 158.95 137.812 157.639 137.805 156.054V155.364C137.812 153.778 136.802 152.455 134.916 152.455C133.088 152.455 132.046 153.778 132.04 155.364V156.054ZM132.666 166H134.335L143.335 152.909H141.666L132.666 166ZM140.618 162.855C140.624 162.229 140.874 161.583 141.641 161.583C142.446 161.583 142.657 162.229 142.651 162.855V163.545C142.657 164.172 142.42 164.805 141.641 164.805C140.861 164.805 140.624 164.153 140.618 163.545V162.855ZM133.913 155.364C133.919 154.756 134.156 154.092 134.916 154.092C135.722 154.092 135.939 154.737 135.933 155.364V156.054C135.939 156.68 135.696 157.313 134.916 157.313C134.162 157.313 133.919 156.68 133.913 156.054V155.364Z" fill="#000B2D"/>
<path d="M276.437 234.504L277.504 230.563L273.563 229.496L272.496 233.437L276.437 234.504ZM226.5 147.5L226.934 147.251L226.79 147H226.5V147.5ZM167.5 147L162.5 144.613L162.5 150.387L167.5 148V147ZM275.434 231.751L226.934 147.251L226.066 147.749L274.566 232.249L275.434 231.751ZM226.5 147H167V148H226.5V147Z" fill="#000B2D"/>
<path d="M126.491 79H128.077V74.2188H130.94C133.989 74.2188 135.364 72.3651 135.364 70.0511C135.364 67.7372 133.989 65.9091 130.915 65.9091H126.491V79ZM128.077 72.8125V67.3153H130.864C132.992 67.3153 133.804 68.4787 133.804 70.0511C133.804 71.6236 132.992 72.8125 130.889 72.8125H128.077ZM143.9 74.9858C143.9 76.8267 142.494 77.6705 141.369 77.6705C140.116 77.6705 139.221 76.75 139.221 75.3182V69.1818H137.713V75.4205C137.713 77.9261 139.042 79.1278 140.883 79.1278C142.366 79.1278 143.338 78.3352 143.798 77.3381H143.9V79H145.409V69.1818H143.9V74.9858ZM148.376 79H149.834V77.4915H150.013C150.345 78.0284 150.984 79.2045 152.876 79.2045C155.331 79.2045 157.044 77.2358 157.044 74.1165C157.044 71.0227 155.331 69.054 152.851 69.054C150.933 69.054 150.345 70.2301 150.013 70.7415H149.885V65.9091H148.376V79ZM149.859 74.0909C149.859 71.892 150.831 70.4091 152.672 70.4091C154.589 70.4091 155.535 72.0199 155.535 74.0909C155.535 76.1875 154.564 77.8494 152.672 77.8494C150.856 77.8494 149.859 76.3153 149.859 74.0909ZM160.86 65.9091H159.351V79H160.86V65.9091ZM163.623 79H165.131V69.1818H163.623V79ZM164.39 67.5455C164.978 67.5455 165.464 67.0852 165.464 66.5227C165.464 65.9602 164.978 65.5 164.39 65.5C163.802 65.5 163.316 65.9602 163.316 66.5227C163.316 67.0852 163.802 67.5455 164.39 67.5455ZM171.883 79.2045C174.056 79.2045 175.488 77.875 175.744 76.1364H174.235C173.954 77.2102 173.059 77.8494 171.883 77.8494C170.093 77.8494 168.943 76.3665 168.943 74.0909C168.943 71.8665 170.119 70.4091 171.883 70.4091C173.213 70.4091 174.005 71.2273 174.235 72.1222H175.744C175.488 70.2812 173.928 69.054 171.857 69.054C169.198 69.054 167.434 71.1506 167.434 74.142C167.434 77.0824 169.122 79.2045 171.883 79.2045ZM190.375 69.1818H191.909C191.839 67.2067 190.017 65.7301 187.486 65.7301C184.98 65.7301 183.012 67.1875 183.012 69.3864C183.012 71.1506 184.29 72.1989 186.335 72.7869L187.946 73.2472C189.327 73.6307 190.554 74.1165 190.554 75.4205C190.554 76.8523 189.173 77.7983 187.358 77.7983C185.798 77.7983 184.418 77.108 184.29 75.625H182.654C182.807 77.7727 184.546 79.2301 187.358 79.2301C190.375 79.2301 192.088 77.5682 192.088 75.446C192.088 72.9915 189.762 72.1989 188.406 71.8409L187.077 71.483C186.105 71.2273 184.546 70.7159 184.546 69.3097C184.546 68.0568 185.696 67.1364 187.435 67.1364C189.02 67.1364 190.222 67.8906 190.375 69.1818ZM197.379 79.2301C199.092 79.2301 199.987 78.3097 200.294 77.6705H200.371V79H201.879V72.5312C201.879 69.4119 199.501 69.054 198.249 69.054C196.766 69.054 195.078 69.5653 194.311 71.3551L195.743 71.8665C196.075 71.1506 196.862 70.3835 198.3 70.3835C199.687 70.3835 200.371 71.1186 200.371 72.3778V72.429C200.371 73.1577 199.629 73.0938 197.839 73.3239C196.018 73.5604 194.03 73.9631 194.03 76.2131C194.03 78.1307 195.513 79.2301 197.379 79.2301ZM197.609 77.875C196.408 77.875 195.538 77.3381 195.538 76.2898C195.538 75.1392 196.587 74.7812 197.763 74.6278C198.402 74.5511 200.115 74.3722 200.371 74.0653V75.446C200.371 76.6733 199.399 77.875 197.609 77.875ZM206.141 65.9091H204.633V79H206.141V65.9091ZM213.021 79.2045C215.015 79.2045 216.472 78.2074 216.933 76.7244L215.475 76.3153C215.092 77.3381 214.203 77.8494 213.021 77.8494C211.25 77.8494 210.029 76.7053 209.959 74.6023H217.086V73.9631C217.086 70.3068 214.913 69.054 212.867 69.054C210.208 69.054 208.444 71.1506 208.444 74.1676C208.444 77.1847 210.183 79.2045 213.021 79.2045ZM209.959 73.2983C210.061 71.7706 211.141 70.4091 212.867 70.4091C214.504 70.4091 215.552 71.6364 215.552 73.2983H209.959Z" fill="#000B2D"/>
<path d="M188.598 89.9091H185.997L182.756 91.9609V94.4155L185.754 92.5362H185.83V103H188.598V89.9091ZM196.734 103.179C199.648 103.192 201.636 101.281 201.63 98.6151C201.636 96.1605 199.923 94.3899 197.603 94.3899C196.165 94.3899 194.893 95.0803 194.305 96.2372H194.215C194.228 93.6868 195.123 92.1016 196.83 92.1016C197.833 92.1016 198.555 92.6513 198.766 93.5653H201.496C201.234 91.4112 199.444 89.7301 196.83 89.7301C193.595 89.7301 191.518 92.3509 191.505 96.7486C191.499 101.543 194.043 103.166 196.734 103.179ZM196.721 101.006C195.442 101.006 194.496 99.9766 194.496 98.6982C194.503 97.4261 195.468 96.3906 196.74 96.3906C198.018 96.3906 198.952 97.3942 198.945 98.6918C198.952 100.002 197.999 101.006 196.721 101.006ZM210.758 100.545C210.764 102.118 211.768 103.454 213.641 103.454C215.494 103.454 216.53 102.118 216.523 100.545V99.8551C216.53 98.2699 215.52 96.9467 213.641 96.9467C211.793 96.9467 210.764 98.2827 210.758 99.8551V100.545ZM204.04 93.054C204.046 94.6264 205.05 95.9496 206.916 95.9496C208.776 95.9496 209.812 94.6392 209.805 93.054V92.3636C209.812 90.7784 208.802 89.4553 206.916 89.4553C205.088 89.4553 204.046 90.7784 204.04 92.3636V93.054ZM204.666 103H206.335L215.335 89.9091H213.666L204.666 103ZM212.618 99.8551C212.624 99.2287 212.874 98.5831 213.641 98.5831C214.446 98.5831 214.657 99.2287 214.651 99.8551V100.545C214.657 101.172 214.42 101.805 213.641 101.805C212.861 101.805 212.624 101.153 212.618 100.545V99.8551ZM205.913 92.3636C205.919 91.7564 206.156 91.0916 206.916 91.0916C207.722 91.0916 207.939 91.7372 207.933 92.3636V93.054C207.939 93.6804 207.696 94.3132 206.916 94.3132C206.162 94.3132 205.919 93.6804 205.913 93.054V92.3636Z" fill="#000B2D"/>
<path d="M334.343 163.555L335.555 159.657L331.657 158.445L330.445 162.343L334.343 163.555ZM292 83L292.443 82.7674L292.302 82.5H292V83ZM239 82.5L234 80.1132L234 85.8868L239 83.5V82.5ZM333.443 160.767L292.443 82.7674L291.557 83.2326L332.557 161.233L333.443 160.767ZM292 82.5H238.5V83.5H292V82.5Z" fill="#000B2D"/>
<path d="M289.679 18H297.349V16.5938H291.264V4.90909H289.679V18ZM299.599 18H301.108V8.18182H299.599V18ZM300.366 6.54545C300.955 6.54545 301.44 6.08523 301.44 5.52273C301.44 4.96023 300.955 4.5 300.366 4.5C299.778 4.5 299.293 4.96023 299.293 5.52273C299.293 6.08523 299.778 6.54545 300.366 6.54545ZM312.078 21.6818V8.18182H310.621V9.74148H310.442C310.11 9.23011 309.521 8.05398 307.604 8.05398C305.124 8.05398 303.411 10.0227 303.411 13.1165C303.411 16.2358 305.124 18.2045 307.578 18.2045C309.47 18.2045 310.11 17.0284 310.442 16.4915H310.57V21.6818H312.078ZM310.595 13.0909C310.595 15.3153 309.598 16.8494 307.783 16.8494C305.891 16.8494 304.919 15.1875 304.919 13.0909C304.919 11.0199 305.865 9.40909 307.783 9.40909C309.624 9.40909 310.595 10.892 310.595 13.0909ZM321.027 13.9858C321.027 15.8267 319.621 16.6705 318.496 16.6705C317.243 16.6705 316.348 15.75 316.348 14.3182V8.18182H314.84V14.4205C314.84 16.9261 316.169 18.1278 318.01 18.1278C319.493 18.1278 320.465 17.3352 320.925 16.3381H321.027V18H322.536V8.18182H321.027V13.9858ZM325.299 18H326.807V8.18182H325.299V18ZM326.066 6.54545C326.654 6.54545 327.14 6.08523 327.14 5.52273C327.14 4.96023 326.654 4.5 326.066 4.5C325.478 4.5 324.992 4.96023 324.992 5.52273C324.992 6.08523 325.478 6.54545 326.066 6.54545ZM333.278 18.2045C335.17 18.2045 335.809 17.0284 336.141 16.4915H336.32V18H337.778V4.90909H336.269V9.74148H336.141C335.809 9.23011 335.221 8.05398 333.303 8.05398C330.823 8.05398 329.11 10.0227 329.11 13.1165C329.11 16.2358 330.823 18.2045 333.278 18.2045ZM333.482 16.8494C331.59 16.8494 330.618 15.1875 330.618 13.0909C330.618 11.0199 331.564 9.40909 333.482 9.40909C335.323 9.40909 336.295 10.892 336.295 13.0909C336.295 15.3153 335.297 16.8494 333.482 16.8494ZM340.75 18H342.258V8.18182H340.75V18ZM341.517 6.54545C342.105 6.54545 342.591 6.08523 342.591 5.52273C342.591 4.96023 342.105 4.5 341.517 4.5C340.929 4.5 340.443 4.96023 340.443 5.52273C340.443 6.08523 340.929 6.54545 341.517 6.54545ZM349.291 8.18182H347.195V5.82955H345.686V8.18182H344.203V9.46023H345.686V15.5966C345.686 17.3097 347.067 18.1278 348.345 18.1278C348.908 18.1278 349.266 18.0256 349.47 17.9489L349.163 16.5938C349.036 16.6193 348.831 16.6705 348.499 16.6705C347.834 16.6705 347.195 16.4659 347.195 15.1875V9.46023H349.291V8.18182ZM352.532 21.6818C353.893 21.6818 354.852 20.9595 355.421 19.4318L359.602 8.20739L357.952 8.18182L355.242 16.0057H355.14L352.43 8.18182H350.793L354.424 18.0511L354.143 18.8182C353.593 20.3139 352.915 20.4545 351.816 20.1733L351.433 21.5028C351.586 21.5795 352.021 21.6818 352.532 21.6818ZM366.66 21.6818H368.169V16.4915H368.296C368.629 17.0284 369.268 18.2045 371.16 18.2045C373.615 18.2045 375.328 16.2358 375.328 13.1165C375.328 10.0227 373.615 8.05398 371.134 8.05398C369.217 8.05398 368.629 9.23011 368.296 9.74148H368.117V8.18182H366.66V21.6818ZM368.143 13.0909C368.143 10.892 369.115 9.40909 370.955 9.40909C372.873 9.40909 373.819 11.0199 373.819 13.0909C373.819 15.1875 372.847 16.8494 370.955 16.8494C369.14 16.8494 368.143 15.3153 368.143 13.0909ZM381.617 18.2045C384.276 18.2045 386.066 16.1847 386.066 13.142C386.066 10.0739 384.276 8.05398 381.617 8.05398C378.958 8.05398 377.169 10.0739 377.169 13.142C377.169 16.1847 378.958 18.2045 381.617 18.2045ZM381.617 16.8494C379.597 16.8494 378.677 15.1108 378.677 13.142C378.677 11.1733 379.597 9.40909 381.617 9.40909C383.637 9.40909 384.558 11.1733 384.558 13.142C384.558 15.1108 383.637 16.8494 381.617 16.8494ZM392.358 18.2045C395.017 18.2045 396.806 16.1847 396.806 13.142C396.806 10.0739 395.017 8.05398 392.358 8.05398C389.699 8.05398 387.909 10.0739 387.909 13.142C387.909 16.1847 389.699 18.2045 392.358 18.2045ZM392.358 16.8494C390.338 16.8494 389.417 15.1108 389.417 13.142C389.417 11.1733 390.338 9.40909 392.358 9.40909C394.377 9.40909 395.298 11.1733 395.298 13.142C395.298 15.1108 394.377 16.8494 392.358 16.8494ZM400.618 4.90909H399.109V18H400.618V4.90909Z" fill="#000B2D"/>
<path d="M356.778 28.9091H354.176L350.936 30.9609V33.4155L353.933 31.5362H354.01V42H356.778V28.9091ZM362.189 40.2102H359.939L359.907 40.9261C359.83 42.6648 359.331 44.4482 359.146 45.196H360.91C361.217 44.4226 361.946 42.6072 362.118 40.9134L362.189 40.2102ZM364.653 42H373.985V39.7372H368.488V39.6477L370.399 37.7749C373.09 35.3203 373.813 34.093 373.813 32.6037C373.813 30.3345 371.959 28.7301 369.153 28.7301C366.404 28.7301 364.519 30.3729 364.525 32.9425H367.152C367.146 31.6896 367.938 30.9226 369.134 30.9226C370.284 30.9226 371.141 31.6385 371.141 32.7891C371.141 33.831 370.502 34.5469 369.313 35.6911L364.653 40.0057V42ZM380.772 42.179C383.687 42.179 385.668 40.2805 385.662 37.6342C385.668 35.1286 383.917 33.326 381.558 33.326C380.408 33.326 379.417 33.8054 378.957 34.451H378.88L379.219 31.1719H384.94V28.9091H376.937L376.317 35.8125L378.778 36.2536C379.18 35.7102 379.96 35.3714 380.734 35.3714C382.05 35.3778 382.996 36.3303 382.996 37.7045C382.996 39.0661 382.07 40.0057 380.772 40.0057C379.673 40.0057 378.784 39.3153 378.72 38.299H376.036C376.087 40.5618 378.062 42.179 380.772 42.179ZM394.758 39.5455C394.764 41.1179 395.768 42.4538 397.641 42.4538C399.494 42.4538 400.53 41.1179 400.523 39.5455V38.8551C400.53 37.2699 399.52 35.9467 397.641 35.9467C395.793 35.9467 394.764 37.2827 394.758 38.8551V39.5455ZM388.04 32.054C388.046 33.6264 389.05 34.9496 390.916 34.9496C392.776 34.9496 393.812 33.6392 393.805 32.054V31.3636C393.812 29.7784 392.802 28.4553 390.916 28.4553C389.088 28.4553 388.046 29.7784 388.04 31.3636V32.054ZM388.666 42H390.335L399.335 28.9091H397.666L388.666 42ZM396.618 38.8551C396.624 38.2287 396.874 37.5831 397.641 37.5831C398.446 37.5831 398.657 38.2287 398.651 38.8551V39.5455C398.657 40.1719 398.42 40.8047 397.641 40.8047C396.861 40.8047 396.624 40.1527 396.618 39.5455V38.8551ZM389.913 31.3636C389.919 30.7564 390.156 30.0916 390.916 30.0916C391.722 30.0916 391.939 30.7372 391.933 31.3636V32.054C391.939 32.6804 391.696 33.3132 390.916 33.3132C390.162 33.3132 389.919 32.6804 389.913 32.054V31.3636Z" fill="#000B2D"/>
<path d="M402 117.887L404.887 115L402 112.113L399.113 115L402 117.887ZM402.5 58L404.887 53H399.113L401.5 58H402.5ZM402.5 115V57.5H401.5V115H402.5Z" fill="#000B2D"/>
<defs>
<filter id="filter0_dd_2076_11028" x="167.483" y="30.4828" width="496.034" height="496.034" filterUnits="userSpaceOnUse" color-interpolation-filters="sRGB">
<feFlood flood-opacity="0" result="BackgroundImageFix"/>
<feColorMatrix in="SourceAlpha" type="matrix" values="0 0 0 0 0 0 0 0 0 0 0 0 0 0 0 0 0 0 127 0" result="hardAlpha"/>
<feOffset dx="14.1724" dy="14.1724"/>
<feGaussianBlur stdDeviation="14.1724"/>
<feColorMatrix type="matrix" values="0 0 0 0 0.6512 0 0 0 0 0.66896 0 0 0 0 0.74 0 0 0 1 0"/>
<feBlend mode="normal" in2="BackgroundImageFix" result="effect1_dropShadow_2076_11028"/>
<feColorMatrix in="SourceAlpha" type="matrix" values="0 0 0 0 0 0 0 0 0 0 0 0 0 0 0 0 0 0 127 0" result="hardAlpha"/>
<feOffset dx="-14.1724" dy="-14.1724"/>
<feGaussianBlur stdDeviation="14.1724"/>
<feColorMatrix type="matrix" values="0 0 0 0 0.979167 0 0 0 0 0.983333 0 0 0 0 1 0 0 0 1 0"/>
<feBlend mode="normal" in2="effect1_dropShadow_2076_11028" result="effect2_dropShadow_2076_11028"/>
<feBlend mode="normal" in="SourceGraphic" in2="effect2_dropShadow_2076_11028" result="shape"/>
</filter>
<filter id="filter1_ii_2076_11028" x="229.398" y="92.4007" width="372.203" height="372.203" filterUnits="userSpaceOnUse" color-interpolation-filters="sRGB">
<feFlood flood-opacity="0" result="BackgroundImageFix"/>
<feBlend mode="normal" in="SourceGraphic" in2="BackgroundImageFix" result="shape"/>
<feColorMatrix in="SourceAlpha" type="matrix" values="0 0 0 0 0 0 0 0 0 0 0 0 0 0 0 0 0 0 127 0" result="hardAlpha"/>
<feOffset dx="8.45916" dy="8.45916"/>
<feGaussianBlur stdDeviation="8.45916"/>
<feComposite in2="hardAlpha" operator="arithmetic" k2="-1" k3="1"/>
<feColorMatrix type="matrix" values="0 0 0 0 0.65098 0 0 0 0 0.670588 0 0 0 0 0.741176 0 0 0 1 0"/>
<feBlend mode="normal" in2="shape" result="effect1_innerShadow_2076_11028"/>
<feColorMatrix in="SourceAlpha" type="matrix" values="0 0 0 0 0 0 0 0 0 0 0 0 0 0 0 0 0 0 127 0" result="hardAlpha"/>
<feOffset dx="-8.45916" dy="-8.45916"/>
<feGaussianBlur stdDeviation="8.45916"/>
<feComposite in2="hardAlpha" operator="arithmetic" k2="-1" k3="1"/>
<feColorMatrix type="matrix" values="0 0 0 0 0.980392 0 0 0 0 0.984314 0 0 0 0 1 0 0 0 1 0"/>
<feBlend mode="normal" in2="effect1_innerShadow_2076_11028" result="effect2_innerShadow_2076_11028"/>
</filter>
<filter id="filter2_dd_2076_11028" x="276.278" y="50.1049" width="367.619" height="456.795" filterUnits="userSpaceOnUse" color-interpolation-filters="sRGB">
<feFlood flood-opacity="0" result="BackgroundImageFix"/>
<feColorMatrix in="SourceAlpha" type="matrix" values="0 0 0 0 0 0 0 0 0 0 0 0 0 0 0 0 0 0 127 0" result="hardAlpha"/>
<feOffset dx="16.9183" dy="16.9183"/>
<feGaussianBlur stdDeviation="16.9183"/>
<feColorMatrix type="matrix" values="0 0 0 0 0.044375 0 0 0 0 0.180132 0 0 0 0 0.8875 0 0 0 0.4 0"/>
<feBlend mode="normal" in2="BackgroundImageFix" result="effect1_dropShadow_2076_11028"/>
<feColorMatrix in="SourceAlpha" type="matrix" values="0 0 0 0 0 0 0 0 0 0 0 0 0 0 0 0 0 0 127 0" result="hardAlpha"/>
<feOffset dx="-16.9183" dy="-16.9183"/>
<feGaussianBlur stdDeviation="16.9183"/>
<feColorMatrix type="matrix" values="0 0 0 0 0.979167 0 0 0 0 0.983333 0 0 0 0 1 0 0 0 1 0"/>
<feBlend mode="normal" in2="effect1_dropShadow_2076_11028" result="effect2_dropShadow_2076_11028"/>
<feBlend mode="normal" in="SourceGraphic" in2="effect2_dropShadow_2076_11028" result="shape"/>
</filter>
<filter id="filter3_dd_2076_11028" x="226.818" y="298.017" width="262.309" height="208.796" filterUnits="userSpaceOnUse" color-interpolation-filters="sRGB">
<feFlood flood-opacity="0" result="BackgroundImageFix"/>
<feColorMatrix in="SourceAlpha" type="matrix" values="0 0 0 0 0 0 0 0 0 0 0 0 0 0 0 0 0 0 127 0" result="hardAlpha"/>
<feOffset dx="16.9183" dy="16.9183"/>
<feGaussianBlur stdDeviation="16.9183"/>
<feColorMatrix type="matrix" values="0 0 0 0 0.044375 0 0 0 0 0.180132 0 0 0 0 0.8875 0 0 0 0.4 0"/>
<feBlend mode="normal" in2="BackgroundImageFix" result="effect1_dropShadow_2076_11028"/>
<feColorMatrix in="SourceAlpha" type="matrix" values="0 0 0 0 0 0 0 0 0 0 0 0 0 0 0 0 0 0 127 0" result="hardAlpha"/>
<feOffset dx="-16.9183" dy="-16.9183"/>
<feGaussianBlur stdDeviation="16.9183"/>
<feColorMatrix type="matrix" values="0 0 0 0 0.979167 0 0 0 0 0.983333 0 0 0 0 1 0 0 0 1 0"/>
<feBlend mode="normal" in2="effect1_dropShadow_2076_11028" result="effect2_dropShadow_2076_11028"/>
<feBlend mode="normal" in="SourceGraphic" in2="effect2_dropShadow_2076_11028" result="shape"/>
</filter>
<filter id="filter4_dd_2076_11028" x="203.998" y="267.097" width="187.954" height="195.96" filterUnits="userSpaceOnUse" color-interpolation-filters="sRGB">
<feFlood flood-opacity="0" result="BackgroundImageFix"/>
<feColorMatrix in="SourceAlpha" type="matrix" values="0 0 0 0 0 0 0 0 0 0 0 0 0 0 0 0 0 0 127 0" result="hardAlpha"/>
<feOffset dx="16.9183" dy="16.9183"/>
<feGaussianBlur stdDeviation="16.9183"/>
<feColorMatrix type="matrix" values="0 0 0 0 0.044375 0 0 0 0 0.180132 0 0 0 0 0.8875 0 0 0 0.4 0"/>
<feBlend mode="normal" in2="BackgroundImageFix" result="effect1_dropShadow_2076_11028"/>
<feColorMatrix in="SourceAlpha" type="matrix" values="0 0 0 0 0 0 0 0 0 0 0 0 0 0 0 0 0 0 127 0" result="hardAlpha"/>
<feOffset dx="-16.9183" dy="-16.9183"/>
<feGaussianBlur stdDeviation="16.9183"/>
<feColorMatrix type="matrix" values="0 0 0 0 0.979167 0 0 0 0 0.983333 0 0 0 0 1 0 0 0 1 0"/>
<feBlend mode="normal" in2="effect1_dropShadow_2076_11028" result="effect2_dropShadow_2076_11028"/>
<feBlend mode="normal" in="SourceGraphic" in2="effect2_dropShadow_2076_11028" result="shape"/>
</filter>
<filter id="filter5_dd_2076_11028" x="190.529" y="231.073" width="180.127" height="201.813" filterUnits="userSpaceOnUse" color-interpolation-filters="sRGB">
<feFlood flood-opacity="0" result="BackgroundImageFix"/>
<feColorMatrix in="SourceAlpha" type="matrix" values="0 0 0 0 0 0 0 0 0 0 0 0 0 0 0 0 0 0 127 0" result="hardAlpha"/>
<feOffset dx="16.9183" dy="16.9183"/>
<feGaussianBlur stdDeviation="16.9183"/>
<feColorMatrix type="matrix" values="0 0 0 0 0.044375 0 0 0 0 0.180132 0 0 0 0 0.8875 0 0 0 0.4 0"/>
<feBlend mode="normal" in2="BackgroundImageFix" result="effect1_dropShadow_2076_11028"/>
<feColorMatrix in="SourceAlpha" type="matrix" values="0 0 0 0 0 0 0 0 0 0 0 0 0 0 0 0 0 0 127 0" result="hardAlpha"/>
<feOffset dx="-16.9183" dy="-16.9183"/>
<feGaussianBlur stdDeviation="16.9183"/>
<feColorMatrix type="matrix" values="0 0 0 0 0.979167 0 0 0 0 0.983333 0 0 0 0 1 0 0 0 1 0"/>
<feBlend mode="normal" in2="effect1_dropShadow_2076_11028" result="effect2_dropShadow_2076_11028"/>
<feBlend mode="normal" in="SourceGraphic" in2="effect2_dropShadow_2076_11028" result="shape"/>
</filter>
<filter id="filter6_dd_2076_11028" x="187.11" y="201.269" width="171.497" height="196.208" filterUnits="userSpaceOnUse" color-interpolation-filters="sRGB">
<feFlood flood-opacity="0" result="BackgroundImageFix"/>
<feColorMatrix in="SourceAlpha" type="matrix" values="0 0 0 0 0 0 0 0 0 0 0 0 0 0 0 0 0 0 127 0" result="hardAlpha"/>
<feOffset dx="16.9183" dy="16.9183"/>
<feGaussianBlur stdDeviation="16.9183"/>
<feColorMatrix type="matrix" values="0 0 0 0 0.044375 0 0 0 0 0.180132 0 0 0 0 0.8875 0 0 0 0.4 0"/>
<feBlend mode="normal" in2="BackgroundImageFix" result="effect1_dropShadow_2076_11028"/>
<feColorMatrix in="SourceAlpha" type="matrix" values="0 0 0 0 0 0 0 0 0 0 0 0 0 0 0 0 0 0 127 0" result="hardAlpha"/>
<feOffset dx="-16.9183" dy="-16.9183"/>
<feGaussianBlur stdDeviation="16.9183"/>
<feColorMatrix type="matrix" values="0 0 0 0 0.979167 0 0 0 0 0.983333 0 0 0 0 1 0 0 0 1 0"/>
<feBlend mode="normal" in2="effect1_dropShadow_2076_11028" result="effect2_dropShadow_2076_11028"/>
<feBlend mode="normal" in="SourceGraphic" in2="effect2_dropShadow_2076_11028" result="shape"/>
</filter>
<filter id="filter7_dd_2076_11028" x="187.102" y="142.521" width="175.837" height="241.579" filterUnits="userSpaceOnUse" color-interpolation-filters="sRGB">
<feFlood flood-opacity="0" result="BackgroundImageFix"/>
<feColorMatrix in="SourceAlpha" type="matrix" values="0 0 0 0 0 0 0 0 0 0 0 0 0 0 0 0 0 0 127 0" result="hardAlpha"/>
<feOffset dx="16.9183" dy="16.9183"/>
<feGaussianBlur stdDeviation="16.9183"/>
<feColorMatrix type="matrix" values="0 0 0 0 0.044375 0 0 0 0 0.180132 0 0 0 0 0.8875 0 0 0 0.4 0"/>
<feBlend mode="normal" in2="BackgroundImageFix" result="effect1_dropShadow_2076_11028"/>
<feColorMatrix in="SourceAlpha" type="matrix" values="0 0 0 0 0 0 0 0 0 0 0 0 0 0 0 0 0 0 127 0" result="hardAlpha"/>
<feOffset dx="-16.9183" dy="-16.9183"/>
<feGaussianBlur stdDeviation="16.9183"/>
<feColorMatrix type="matrix" values="0 0 0 0 0.979167 0 0 0 0 0.983333 0 0 0 0 1 0 0 0 1 0"/>
<feBlend mode="normal" in2="effect1_dropShadow_2076_11028" result="effect2_dropShadow_2076_11028"/>
<feBlend mode="normal" in="SourceGraphic" in2="effect2_dropShadow_2076_11028" result="shape"/>
</filter>
<filter id="filter8_dd_2076_11028" x="192.619" y="121.921" width="179.193" height="195.824" filterUnits="userSpaceOnUse" color-interpolation-filters="sRGB">
<feFlood flood-opacity="0" result="BackgroundImageFix"/>
<feColorMatrix in="SourceAlpha" type="matrix" values="0 0 0 0 0 0 0 0 0 0 0 0 0 0 0 0 0 0 127 0" result="hardAlpha"/>
<feOffset dx="16.9183" dy="16.9183"/>
<feGaussianBlur stdDeviation="16.9183"/>
<feColorMatrix type="matrix" values="0 0 0 0 0.044375 0 0 0 0 0.180132 0 0 0 0 0.8875 0 0 0 0.4 0"/>
<feBlend mode="normal" in2="BackgroundImageFix" result="effect1_dropShadow_2076_11028"/>
<feColorMatrix in="SourceAlpha" type="matrix" values="0 0 0 0 0 0 0 0 0 0 0 0 0 0 0 0 0 0 127 0" result="hardAlpha"/>
<feOffset dx="-16.9183" dy="-16.9183"/>
<feGaussianBlur stdDeviation="16.9183"/>
<feColorMatrix type="matrix" values="0 0 0 0 0.979167 0 0 0 0 0.983333 0 0 0 0 1 0 0 0 1 0"/>
<feBlend mode="normal" in2="effect1_dropShadow_2076_11028" result="effect2_dropShadow_2076_11028"/>
<feBlend mode="normal" in="SourceGraphic" in2="effect2_dropShadow_2076_11028" result="shape"/>
</filter>
<filter id="filter9_dd_2076_11028" x="216.719" y="51.0395" width="261.027" height="219.464" filterUnits="userSpaceOnUse" color-interpolation-filters="sRGB">
<feFlood flood-opacity="0" result="BackgroundImageFix"/>
<feColorMatrix in="SourceAlpha" type="matrix" values="0 0 0 0 0 0 0 0 0 0 0 0 0 0 0 0 0 0 127 0" result="hardAlpha"/>
<feOffset dx="16.9183" dy="16.9183"/>
<feGaussianBlur stdDeviation="16.9183"/>
<feColorMatrix type="matrix" values="0 0 0 0 0.044375 0 0 0 0 0.180132 0 0 0 0 0.8875 0 0 0 0.4 0"/>
<feBlend mode="normal" in2="BackgroundImageFix" result="effect1_dropShadow_2076_11028"/>
<feColorMatrix in="SourceAlpha" type="matrix" values="0 0 0 0 0 0 0 0 0 0 0 0 0 0 0 0 0 0 127 0" result="hardAlpha"/>
<feOffset dx="-16.9183" dy="-16.9183"/>
<feGaussianBlur stdDeviation="16.9183"/>
<feColorMatrix type="matrix" values="0 0 0 0 0.979167 0 0 0 0 0.983333 0 0 0 0 1 0 0 0 1 0"/>
<feBlend mode="normal" in2="effect1_dropShadow_2076_11028" result="effect2_dropShadow_2076_11028"/>
<feBlend mode="normal" in="SourceGraphic" in2="effect2_dropShadow_2076_11028" result="shape"/>
</filter>
<filter id="filter10_dd_2076_11028" x="349.108" y="71.3594" width="108.306" height="127.877" filterUnits="userSpaceOnUse" color-interpolation-filters="sRGB">
<feFlood flood-opacity="0" result="BackgroundImageFix"/>
<feColorMatrix in="SourceAlpha" type="matrix" values="0 0 0 0 0 0 0 0 0 0 0 0 0 0 0 0 0 0 127 0" result="hardAlpha"/>
<feOffset dx="10" dy="10"/>
<feGaussianBlur stdDeviation="10"/>
<feColorMatrix type="matrix" values="0 0 0 0 0.044375 0 0 0 0 0.180132 0 0 0 0 0.8875 0 0 0 0.4 0"/>
<feBlend mode="normal" in2="BackgroundImageFix" result="effect1_dropShadow_2076_11028"/>
<feColorMatrix in="SourceAlpha" type="matrix" values="0 0 0 0 0 0 0 0 0 0 0 0 0 0 0 0 0 0 127 0" result="hardAlpha"/>
<feOffset dx="-10" dy="-10"/>
<feGaussianBlur stdDeviation="10"/>
<feColorMatrix type="matrix" values="0 0 0 0 0.979167 0 0 0 0 0.983333 0 0 0 0 1 0 0 0 0.5 0"/>
<feBlend mode="normal" in2="effect1_dropShadow_2076_11028" result="effect2_dropShadow_2076_11028"/>
<feBlend mode="normal" in="SourceGraphic" in2="effect2_dropShadow_2076_11028" result="shape"/>
</filter>
<filter id="filter11_ii_2076_11028" x="297.072" y="160.071" width="236.856" height="236.856" filterUnits="userSpaceOnUse" color-interpolation-filters="sRGB">
<feFlood flood-opacity="0" result="BackgroundImageFix"/>
<feBlend mode="normal" in="SourceGraphic" in2="BackgroundImageFix" result="shape"/>
<feColorMatrix in="SourceAlpha" type="matrix" values="0 0 0 0 0 0 0 0 0 0 0 0 0 0 0 0 0 0 127 0" result="hardAlpha"/>
<feOffset dx="8.45916" dy="8.45916"/>
<feGaussianBlur stdDeviation="8.45916"/>
<feComposite in2="hardAlpha" operator="arithmetic" k2="-1" k3="1"/>
<feColorMatrix type="matrix" values="0 0 0 0 0.65098 0 0 0 0 0.670588 0 0 0 0 0.741176 0 0 0 1 0"/>
<feBlend mode="normal" in2="shape" result="effect1_innerShadow_2076_11028"/>
<feColorMatrix in="SourceAlpha" type="matrix" values="0 0 0 0 0 0 0 0 0 0 0 0 0 0 0 0 0 0 127 0" result="hardAlpha"/>
<feOffset dx="-8.45916" dy="-8.45916"/>
<feGaussianBlur stdDeviation="8.45916"/>
<feComposite in2="hardAlpha" operator="arithmetic" k2="-1" k3="1"/>
<feColorMatrix type="matrix" values="0 0 0 0 0.980392 0 0 0 0 0.984314 0 0 0 0 1 0 0 0 1 0"/>
<feBlend mode="normal" in2="effect1_innerShadow_2076_11028" result="effect2_innerShadow_2076_11028"/>
</filter>
<filter id="filter12_dd_2076_11028" x="275.078" y="138.08" width="280.844" height="280.844" filterUnits="userSpaceOnUse" color-interpolation-filters="sRGB">
<feFlood flood-opacity="0" result="BackgroundImageFix"/>
<feColorMatrix in="SourceAlpha" type="matrix" values="0 0 0 0 0 0 0 0 0 0 0 0 0 0 0 0 0 0 127 0" result="hardAlpha"/>
<feOffset dx="16.9183" dy="16.9183"/>
<feGaussianBlur stdDeviation="16.9183"/>
<feColorMatrix type="matrix" values="0 0 0 0 0.6512 0 0 0 0 0.66896 0 0 0 0 0.74 0 0 0 1 0"/>
<feBlend mode="normal" in2="BackgroundImageFix" result="effect1_dropShadow_2076_11028"/>
<feColorMatrix in="SourceAlpha" type="matrix" values="0 0 0 0 0 0 0 0 0 0 0 0 0 0 0 0 0 0 127 0" result="hardAlpha"/>
<feOffset dx="-16.9183" dy="-16.9183"/>
<feGaussianBlur stdDeviation="16.9183"/>
<feColorMatrix type="matrix" values="0 0 0 0 0.979167 0 0 0 0 0.983333 0 0 0 0 1 0 0 0 1 0"/>
<feBlend mode="normal" in2="effect1_dropShadow_2076_11028" result="effect2_dropShadow_2076_11028"/>
<feBlend mode="normal" in="SourceGraphic" in2="effect2_dropShadow_2076_11028" result="shape"/>
</filter>
<filter id="filter13_ii_2076_11028" x="364.745" y="227.747" width="101.51" height="101.51" filterUnits="userSpaceOnUse" color-interpolation-filters="sRGB">
<feFlood flood-opacity="0" result="BackgroundImageFix"/>
<feBlend mode="normal" in="SourceGraphic" in2="BackgroundImageFix" result="shape"/>
<feColorMatrix in="SourceAlpha" type="matrix" values="0 0 0 0 0 0 0 0 0 0 0 0 0 0 0 0 0 0 127 0" result="hardAlpha"/>
<feOffset dx="8.45916" dy="8.45916"/>
<feGaussianBlur stdDeviation="8.45916"/>
<feComposite in2="hardAlpha" operator="arithmetic" k2="-1" k3="1"/>
<feColorMatrix type="matrix" values="0 0 0 0 0.65098 0 0 0 0 0.670588 0 0 0 0 0.741176 0 0 0 1 0"/>
<feBlend mode="normal" in2="shape" result="effect1_innerShadow_2076_11028"/>
<feColorMatrix in="SourceAlpha" type="matrix" values="0 0 0 0 0 0 0 0 0 0 0 0 0 0 0 0 0 0 127 0" result="hardAlpha"/>
<feOffset dx="-8.45916" dy="-8.45916"/>
<feGaussianBlur stdDeviation="8.45916"/>
<feComposite in2="hardAlpha" operator="arithmetic" k2="-1" k3="1"/>
<feColorMatrix type="matrix" values="0 0 0 0 0.980392 0 0 0 0 0.984314 0 0 0 0 1 0 0 0 1 0"/>
<feBlend mode="normal" in2="effect1_innerShadow_2076_11028" result="effect2_innerShadow_2076_11028"/>
</filter>
<linearGradient id="paint0_linear_2076_11028" x1="37.3146" y1="278.521" x2="410.148" y2="656.205" gradientUnits="userSpaceOnUse">
<stop/>
<stop offset="1" stop-color="white"/>
</linearGradient>
<linearGradient id="paint1_linear_2076_11028" x1="88.5813" y1="278.52" x2="410.873" y2="605.005" gradientUnits="userSpaceOnUse">
<stop/>
<stop offset="1" stop-color="white"/>
</linearGradient>
<linearGradient id="paint2_linear_2076_11028" x1="88.5813" y1="278.52" x2="410.873" y2="605.005" gradientUnits="userSpaceOnUse">
<stop/>
<stop offset="1" stop-color="white"/>
</linearGradient>
<linearGradient id="paint3_linear_2076_11028" x1="88.5813" y1="278.52" x2="410.873" y2="605.005" gradientUnits="userSpaceOnUse">
<stop/>
<stop offset="1" stop-color="white"/>
</linearGradient>
<linearGradient id="paint4_linear_2076_11028" x1="88.5813" y1="278.52" x2="410.873" y2="605.005" gradientUnits="userSpaceOnUse">
<stop/>
<stop offset="1" stop-color="white"/>
</linearGradient>
<linearGradient id="paint5_linear_2076_11028" x1="88.5813" y1="278.521" x2="410.873" y2="605.006" gradientUnits="userSpaceOnUse">
<stop/>
<stop offset="1" stop-color="white"/>
</linearGradient>
<linearGradient id="paint6_linear_2076_11028" x1="88.5813" y1="278.52" x2="410.873" y2="605.005" gradientUnits="userSpaceOnUse">
<stop/>
<stop offset="1" stop-color="white"/>
</linearGradient>
<linearGradient id="paint7_linear_2076_11028" x1="88.5813" y1="278.52" x2="410.873" y2="605.005" gradientUnits="userSpaceOnUse">
<stop/>
<stop offset="1" stop-color="white"/>
</linearGradient>
<linearGradient id="paint8_linear_2076_11028" x1="88.5813" y1="278.52" x2="410.873" y2="605.005" gradientUnits="userSpaceOnUse">
<stop/>
<stop offset="1" stop-color="white"/>
</linearGradient>
<linearGradient id="paint9_linear_2076_11028" x1="88.5813" y1="278.522" x2="410.873" y2="605.007" gradientUnits="userSpaceOnUse">
<stop/>
<stop offset="1" stop-color="white"/>
</linearGradient>
<linearGradient id="paint10_linear_2076_11028" x1="88.5813" y1="278.522" x2="410.873" y2="605.007" gradientUnits="userSpaceOnUse">
<stop/>
<stop offset="1" stop-color="white"/>
</linearGradient>
<linearGradient id="paint11_linear_2076_11028" x1="213.122" y1="278.511" x2="412.636" y2="480.62" gradientUnits="userSpaceOnUse">
<stop/>
<stop offset="1" stop-color="white"/>
</linearGradient>
<linearGradient id="paint12_linear_2076_11028" x1="250.484" y1="278.511" x2="413.165" y2="443.308" gradientUnits="userSpaceOnUse">
<stop/>
<stop offset="1" stop-color="white"/>
</linearGradient>
<linearGradient id="paint13_linear_2076_11028" x1="337.662" y1="278.506" x2="414.398" y2="356.241" gradientUnits="userSpaceOnUse">
<stop/>
<stop offset="1" stop-color="white"/>
</linearGradient>
</defs>
</svg>
