<svg width="225" height="41" viewBox="0 0 225 41" fill="none" xmlns="http://www.w3.org/2000/svg">
<path d="M31.3964 36.0747L31.3954 36.0748L31.3948 36.0749L31.3948 36.0749L31.339 36.0846L31.2826 36.0986C24.1914 37.8596 18.3275 39.2371 13.6154 38.5839C11.8892 38.3446 10.6052 37.9188 9.49794 37.2959C8.38151 36.6679 7.36521 35.7952 6.22159 34.5563C4.0958 32.2534 1.61449 26.87 1.61449 21.2506C1.61449 14.4781 2.1271 9.17107 5.62299 5.67518C11.1503 0.147868 17.7029 1.19134 26.3407 3.37958C30.0103 4.30921 34.2079 5.83752 37.8873 7.40377L37.9695 7.43877L38.0521 7.46358L38.0531 7.46388L38.0532 7.46392L38.054 7.46414L38.0551 7.46448L38.0674 7.46834C38.0821 7.47296 38.107 7.48095 38.1417 7.49239C38.2109 7.51529 38.3185 7.552 38.459 7.60331C38.7402 7.70605 39.1513 7.86665 39.6488 8.09137C40.6479 8.54275 41.9723 9.24241 43.2875 10.2346C45.9175 12.2186 48.3855 15.2609 48.3855 19.7904C48.3855 26.3296 44.3555 30.3589 40.0319 32.8414C37.8751 34.0798 35.7034 34.8931 34.062 35.3966C33.2443 35.6475 32.5658 35.8191 32.0968 35.9272C31.8625 35.9812 31.681 36.0191 31.5612 36.0431C31.5013 36.0551 31.4569 36.0635 31.429 36.0687L31.3998 36.074L31.3964 36.0747Z" stroke="#F5F5F5" stroke-width="3.22899"/>
<circle cx="31.3231" cy="20.4189" r="10.5898" fill="#F5F5F5"/>
<path d="M82.0436 28.0863L83.238 25.0434H78.2877C74.9912 25.0434 73.4367 23.4779 73.4367 20.1814C73.4367 16.8849 74.9912 15.3303 78.2877 15.3303H83.238L82.786 12.2764H78.2877C72.5437 12.2764 69.8205 14.8121 69.8205 20.1814C69.8205 25.5506 72.5437 28.0863 78.2877 28.0863H82.0436Z" fill="white"/>
<path d="M101.518 28.0863L95.2884 12.2764H90.1618L83.8885 28.0863H87.6591L89.0813 24.3599H96.3248L97.747 28.0863H101.518ZM92.5983 15.198H92.8519L95.1782 21.3169H90.25L92.5983 15.198Z" fill="white"/>
<path d="M113.976 23.092C116.258 22.221 117.405 20.4239 117.405 17.9653C117.405 16.1903 116.809 14.8011 115.63 13.7868C114.439 12.7835 112.686 12.2764 110.382 12.2764H103.249V28.0863H106.766V23.6653H110.272L113.314 28.0863H117.559L113.976 23.092ZM110.15 15.3303C112.741 15.3303 113.789 16.1682 113.789 17.9653C113.789 19.7404 112.741 20.5893 110.15 20.5893H106.766V15.3303H110.15Z" fill="white"/>
<path d="M120.161 12.2764V28.0863H126.908C132.564 28.0863 135.243 25.5506 135.243 20.1814C135.243 14.8121 132.564 12.2764 126.908 12.2764H120.161ZM123.678 25.0434V15.3303H126.908C130.117 15.3303 131.627 16.8849 131.627 20.1814C131.627 23.4779 130.117 25.0434 126.908 25.0434H123.678Z" fill="white"/>
<path d="M153.512 28.0863L147.283 12.2764H142.156L135.883 28.0863H139.653L141.076 24.3599H148.319L149.741 28.0863H153.512ZM144.593 15.198H144.846L147.172 21.3169H142.244L144.593 15.198Z" fill="white"/>
<path d="M162.872 28.0863C166.577 28.0863 168.627 26.4546 168.627 23.5881C168.627 22.1218 168.219 21.0523 167.37 20.3026C166.522 19.5639 165.375 19.134 163.688 18.8253L160.678 18.285C158.991 17.9763 158.153 17.5464 158.153 16.5762C158.153 15.6831 158.848 15.3303 160.436 15.3303H167.547L167.095 12.2764H160.292C156.588 12.2764 154.537 13.864 154.537 16.6423C154.537 18.0204 154.956 19.0788 155.794 19.7955C156.632 20.5121 157.889 21.0193 159.576 21.3169L162.486 21.8351C164.162 22.1328 165.022 22.6179 165.022 23.6653C165.022 24.6686 164.328 25.0434 162.74 25.0434H154.361L155.583 28.0863H162.872Z" fill="white"/>
<path d="M182.431 18.5166H174.57V12.2764H171.053V28.0863H174.57V21.5595H182.431V28.0863H185.948V12.2764H182.431V18.5166Z" fill="white"/>
<path d="M193.004 28.0863V12.2764H189.487V28.0863H193.004Z" fill="white"/>
<path d="M200.038 28.0863V22.0997H207.083V19.167H200.038V15.3303H208.935L208.483 12.2764H196.521V28.0863H200.038Z" fill="white"/>
<path d="M209.541 12.2764L210.072 15.3303H215.341V28.0863H218.858V15.3303H224.668V12.2764H209.541Z" fill="white"/>
</svg>
