<svg width="40" height="40" viewBox="0 0 40 40" fill="none" xmlns="http://www.w3.org/2000/svg">
<path d="M12.2621 15.0895C12.2858 14.8554 12.1965 14.6239 12.0216 14.4663L10.2404 12.3205V12H15.7711L20.0461 21.3755L23.8045 12H29.0769V12.3205L27.5539 13.7807C27.4226 13.8808 27.3575 14.0453 27.3847 14.2081V24.9369C27.3575 25.0997 27.4226 25.2642 27.5539 25.3643L29.0413 26.8245V27.145H21.5601V26.8245L23.1009 25.3287C23.2523 25.1773 23.2523 25.1328 23.2523 24.9013V16.2292L18.9684 27.1094H18.3895L13.4021 16.2292V23.5213C13.3605 23.8278 13.4623 24.1365 13.6782 24.3582L15.6821 26.7889V27.1094H10V26.7889L12.0038 24.3582C12.2181 24.1361 12.314 23.8254 12.2621 23.5213V15.0895Z" fill="black"/>
</svg>
