<svg width="40" height="40" viewBox="0 0 40 40" fill="none" xmlns="http://www.w3.org/2000/svg">
<rect opacity="0.1" width="40" height="40" rx="20" fill="white"/>
<path d="M29.5156 15.125C30.4531 14.4219 31.2969 13.5781 31.9531 12.5937C31.1094 12.9687 30.125 13.25 29.1406 13.3437C30.1719 12.7344 30.9219 11.7969 31.2969 10.625C30.3594 11.1875 29.2812 11.6094 28.2031 11.8437C27.2656 10.8594 26 10.2969 24.5938 10.2969C21.875 10.2969 19.6719 12.5 19.6719 15.2187C19.6719 15.5937 19.7188 15.9687 19.8125 16.3438C15.7344 16.1094 12.0781 14.1406 9.64062 11.1875C9.21875 11.8906 8.98438 12.7344 8.98438 13.6719C8.98438 15.3594 9.82812 16.8594 11.1875 17.75C10.3906 17.7031 9.59375 17.5156 8.9375 17.1406V17.1875C8.9375 19.5781 10.625 21.5469 12.875 22.0156C12.5 22.1094 12.0312 22.2031 11.6094 22.2031C11.2812 22.2031 11 22.1562 10.6719 22.1094C11.2812 24.0781 13.1094 25.4844 15.2656 25.5312C13.5781 26.8438 11.4688 27.6406 9.17188 27.6406C8.75 27.6406 8.375 27.5938 8 27.5469C10.1562 28.9531 12.7344 29.75 15.5469 29.75C24.5938 29.75 29.5156 22.2969 29.5156 15.7812C29.5156 15.5469 29.5156 15.3594 29.5156 15.125Z" fill="#000B2D"/>
<path d="M29.5156 15.125C30.4531 14.4219 31.2969 13.5781 31.9531 12.5937C31.1094 12.9687 30.125 13.25 29.1406 13.3437C30.1719 12.7344 30.9219 11.7969 31.2969 10.625C30.3594 11.1875 29.2812 11.6094 28.2031 11.8437C27.2656 10.8594 26 10.2969 24.5938 10.2969C21.875 10.2969 19.6719 12.5 19.6719 15.2187C19.6719 15.5937 19.7188 15.9687 19.8125 16.3438C15.7344 16.1094 12.0781 14.1406 9.64062 11.1875C9.21875 11.8906 8.98438 12.7344 8.98438 13.6719C8.98438 15.3594 9.82812 16.8594 11.1875 17.75C10.3906 17.7031 9.59375 17.5156 8.9375 17.1406V17.1875C8.9375 19.5781 10.625 21.5469 12.875 22.0156C12.5 22.1094 12.0312 22.2031 11.6094 22.2031C11.2812 22.2031 11 22.1562 10.6719 22.1094C11.2812 24.0781 13.1094 25.4844 15.2656 25.5312C13.5781 26.8438 11.4688 27.6406 9.17188 27.6406C8.75 27.6406 8.375 27.5938 8 27.5469C10.1562 28.9531 12.7344 29.75 15.5469 29.75C24.5938 29.75 29.5156 22.2969 29.5156 15.7812C29.5156 15.5469 29.5156 15.3594 29.5156 15.125Z" fill="white"/>
</svg>
