<svg width="40" height="40" viewBox="0 0 40 40" fill="none" xmlns="http://www.w3.org/2000/svg">
<path opacity="0.1" d="M40 20C40 8.9543 31.0457 0 20 0C8.9543 0 0 8.9543 0 20C0 31.0457 8.9543 40 20 40C31.0457 40 40 31.0457 40 20Z" fill="white"/>
<path d="M29.5156 14.8281C30.4531 14.125 31.2969 13.2812 31.9531 12.2968C31.1094 12.6718 30.125 12.9531 29.1406 13.0468C30.1719 12.4375 30.9219 11.5 31.2969 10.3281C30.3594 10.8906 29.2812 11.3125 28.2031 11.5468C27.2656 10.5625 26 10 24.5938 10C21.875 10 19.6719 12.2031 19.6719 14.9218C19.6719 15.2968 19.7188 15.6718 19.8125 16.0469C15.7344 15.8125 12.0781 13.8437 9.64062 10.8906C9.21875 11.5937 8.98438 12.4375 8.98438 13.375C8.98438 15.0625 9.82812 16.5625 11.1875 17.4531C10.3906 17.4062 9.59375 17.2187 8.9375 16.8437V16.8906C8.9375 19.2812 10.625 21.25 12.875 21.7187C12.5 21.8125 12.0312 21.9062 11.6094 21.9062C11.2812 21.9062 11 21.8593 10.6719 21.8125C11.2812 23.7812 13.1094 25.1875 15.2656 25.2343C13.5781 26.5469 11.4688 27.3437 9.17188 27.3437C8.75 27.3437 8.375 27.2969 8 27.25C10.1562 28.6562 12.7344 29.4531 15.5469 29.4531C24.5938 29.4531 29.5156 22 29.5156 15.4843C29.5156 15.25 29.5156 15.0625 29.5156 14.8281Z" fill="#6174FC"/>
</svg>
