<svg width="42" height="40" viewBox="0 0 42 40" fill="none" xmlns="http://www.w3.org/2000/svg">
<rect opacity="0.1" width="42" height="40" rx="20" fill="white"/>
<path d="M13.6004 15.3317C13.6241 15.0976 13.5348 14.8661 13.3599 14.7085L11.5787 12.5627V12.2422H17.1094L21.3844 21.6177L25.1428 12.2422H30.4152V12.5627L28.8922 14.0229C28.7609 14.123 28.6958 14.2875 28.723 14.4503V25.1791C28.6958 25.3419 28.7609 25.5064 28.8922 25.6065L30.3796 27.0667V27.3872H22.8984V27.0667L24.4392 25.5709C24.5906 25.4195 24.5906 25.375 24.5906 25.1435V16.4714L20.3067 27.3516H19.7278L14.7404 16.4714V23.7635C14.6988 24.07 14.8006 24.3787 15.0165 24.6004L17.0204 27.0311V27.3516H11.3383V27.0311L13.3421 24.6004C13.5564 24.3783 13.6523 24.0676 13.6004 23.7635V15.3317Z" fill="white"/>
</svg>
