<svg width="40" height="40" viewBox="0 0 40 40" fill="none" xmlns="http://www.w3.org/2000/svg">
<path opacity="0.1" d="M20.9524 0H19.0476C8.52791 0 0 8.9543 0 20C0 31.0457 8.52791 40 19.0476 40H20.9524C31.4721 40 40 31.0457 40 20C40 8.9543 31.4721 0 20.9524 0Z" fill="white"/>
<path fill-rule="evenodd" clip-rule="evenodd" d="M26.3844 29.7791C26.7064 30.0071 27.1214 30.0641 27.4914 29.9241C27.8614 29.7831 28.1334 29.4671 28.2154 29.0841C29.0844 25.0001 31.1924 14.6631 31.9834 10.9481C32.0434 10.6681 31.9434 10.3771 31.7234 10.1901C31.5034 10.0031 31.1984 9.94915 30.9264 10.0501C26.7334 11.6021 13.8204 16.4471 8.5424 18.4001C8.2074 18.5241 7.9894 18.8461 8.0004 19.1991C8.0124 19.5531 8.2504 19.8601 8.5934 19.9631C10.9604 20.6711 14.0674 21.6561 14.0674 21.6561C14.0674 21.6561 15.5194 26.0411 16.2764 28.2711C16.3714 28.5511 16.5904 28.7711 16.8794 28.8471C17.1674 28.9221 17.4754 28.8431 17.6904 28.6401C18.9064 27.4921 20.7864 25.7171 20.7864 25.7171C20.7864 25.7171 24.3584 28.3361 26.3844 29.7791ZM15.3744 21.1021L17.0534 26.6401L17.4264 23.1331C17.4264 23.1331 23.9134 17.2821 27.6114 13.9471C27.7194 13.8491 27.7344 13.6851 27.6444 13.5701C27.5554 13.4551 27.3914 13.4281 27.2684 13.5061C22.9824 16.2431 15.3744 21.1021 15.3744 21.1021Z" fill="#6174FC"/>
<path style="mix-blend-mode:soft-light" fill-rule="evenodd" clip-rule="evenodd" d="M26.3844 29.7791C26.7064 30.0071 27.1214 30.0641 27.4914 29.9241C27.8614 29.7831 28.1334 29.4671 28.2154 29.0841C29.0844 25.0001 31.1924 14.6631 31.9834 10.9481C32.0434 10.6681 31.9434 10.3771 31.7234 10.1901C31.5034 10.0031 31.1984 9.94915 30.9264 10.0501C26.7334 11.6021 13.8204 16.4471 8.5424 18.4001C8.2074 18.5241 7.9894 18.8461 8.0004 19.1991C8.0124 19.5531 8.2504 19.8601 8.5934 19.9631C10.9604 20.6711 14.0674 21.6561 14.0674 21.6561C14.0674 21.6561 15.5194 26.0411 16.2764 28.2711C16.3714 28.5511 16.5904 28.7711 16.8794 28.8471C17.1674 28.9221 17.4754 28.8431 17.6904 28.6401C18.9064 27.4921 20.7864 25.7171 20.7864 25.7171C20.7864 25.7171 24.3584 28.3361 26.3844 29.7791ZM15.3744 21.1021L17.0534 26.6401L17.4264 23.1331C17.4264 23.1331 23.9134 17.2821 27.6114 13.9471C27.7194 13.8491 27.7344 13.6851 27.6444 13.5701C27.5554 13.4551 27.3914 13.4281 27.2684 13.5061C22.9824 16.2431 15.3744 21.1021 15.3744 21.1021Z" fill="url(#paint0_linear_779_2243)" fill-opacity="0.4"/>
<defs>
<linearGradient id="paint0_linear_779_2243" x1="-2.08404" y1="20.001" x2="15.7197" y2="41.644" gradientUnits="userSpaceOnUse">
<stop/>
<stop offset="1" stop-color="white"/>
</linearGradient>
</defs>
</svg>
