<svg width="42" height="40" viewBox="0 0 42 40" fill="none" xmlns="http://www.w3.org/2000/svg">
<rect opacity="0.1" width="42" height="40" rx="20" fill="white"/>
<g clip-path="url(#clip0_1336_13039)">
<path fill-rule="evenodd" clip-rule="evenodd" d="M27.384 30.7791C27.706 31.0071 28.121 31.0641 28.491 30.9241C28.861 30.7831 29.133 30.4671 29.215 30.0841C30.084 26.0001 32.192 15.6631 32.983 11.9481C33.043 11.6681 32.943 11.3771 32.723 11.1901C32.503 11.0031 32.198 10.9491 31.926 11.0501C27.733 12.6021 14.82 17.4471 9.54197 19.4001C9.20697 19.5241 8.98897 19.8461 8.99997 20.1991C9.01197 20.5531 9.24997 20.8601 9.59297 20.9631C11.96 21.6711 15.067 22.6561 15.067 22.6561C15.067 22.6561 16.519 27.0411 17.276 29.2711C17.371 29.5511 17.59 29.7711 17.879 29.8471C18.167 29.9221 18.475 29.8431 18.69 29.6401C19.906 28.4921 21.786 26.7171 21.786 26.7171C21.786 26.7171 25.358 29.3361 27.384 30.7791ZM16.374 22.1021L18.053 27.6401L18.426 24.1331C18.426 24.1331 24.913 18.2821 28.611 14.9471C28.719 14.8491 28.734 14.6851 28.644 14.5701C28.555 14.4551 28.391 14.4281 28.268 14.5061C23.982 17.2431 16.374 22.1021 16.374 22.1021Z" fill="#EBECF0"/>
<path fill-rule="evenodd" clip-rule="evenodd" d="M27.384 30.7791C27.706 31.0071 28.121 31.0641 28.491 30.9241C28.861 30.7831 29.133 30.4671 29.215 30.0841C30.084 26.0001 32.192 15.6631 32.983 11.9481C33.043 11.6681 32.943 11.3771 32.723 11.1901C32.503 11.0031 32.198 10.9491 31.926 11.0501C27.733 12.6021 14.82 17.4471 9.54197 19.4001C9.20697 19.5241 8.98897 19.8461 8.99997 20.1991C9.01197 20.5531 9.24997 20.8601 9.59297 20.9631C11.96 21.6711 15.067 22.6561 15.067 22.6561C15.067 22.6561 16.519 27.0411 17.276 29.2711C17.371 29.5511 17.59 29.7711 17.879 29.8471C18.167 29.9221 18.475 29.8431 18.69 29.6401C19.906 28.4921 21.786 26.7171 21.786 26.7171C21.786 26.7171 25.358 29.3361 27.384 30.7791ZM16.374 22.1021L18.053 27.6401L18.426 24.1331C18.426 24.1331 24.913 18.2821 28.611 14.9471C28.719 14.8491 28.734 14.6851 28.644 14.5701C28.555 14.4551 28.391 14.4281 28.268 14.5061C23.982 17.2431 16.374 22.1021 16.374 22.1021Z" fill="url(#paint0_linear_1336_13039)" fill-opacity="0.4" style="mix-blend-mode:soft-light"/>
</g>
<defs>
<linearGradient id="paint0_linear_1336_13039" x1="-1.08447" y1="21.001" x2="16.7193" y2="42.644" gradientUnits="userSpaceOnUse">
<stop/>
<stop offset="1" stop-color="white"/>
</linearGradient>
<clipPath id="clip0_1336_13039">
<rect width="24" height="24" fill="white" transform="translate(9 8)"/>
</clipPath>
</defs>
</svg>
