<svg width="40" height="40" viewBox="0 0 40 40" fill="none" xmlns="http://www.w3.org/2000/svg">
<path d="M28.317 12.5164C26.7873 11.8145 25.147 11.2974 23.4319 11.0012C23.4007 10.9955 23.3695 11.0098 23.3534 11.0384C23.1424 11.4136 22.9087 11.9031 22.7451 12.2878C20.9004 12.0117 19.0652 12.0117 17.2583 12.2878C17.0946 11.8945 16.8525 11.4136 16.6406 11.0384C16.6245 11.0108 16.5933 10.9965 16.562 11.0012C14.8479 11.2965 13.2076 11.8136 11.6769 12.5164C11.6637 12.5221 11.6523 12.5317 11.6448 12.544C8.53339 17.1924 7.68105 21.7265 8.09918 26.2044C8.10107 26.2263 8.11337 26.2473 8.1304 26.2606C10.1832 27.7681 12.1717 28.6833 14.1233 29.2899C14.1545 29.2995 14.1876 29.2881 14.2075 29.2623C14.6691 28.6319 15.0806 27.9672 15.4335 27.2681C15.4543 27.2272 15.4344 27.1786 15.3919 27.1624C14.7391 26.9148 14.1176 26.6129 13.5197 26.2701C13.4724 26.2425 13.4687 26.1748 13.5122 26.1425C13.638 26.0482 13.7638 25.9501 13.884 25.8511C13.9057 25.833 13.936 25.8291 13.9615 25.8406C17.8893 27.6338 22.1415 27.6338 26.023 25.8406C26.0485 25.8282 26.0788 25.832 26.1015 25.8501C26.2216 25.9491 26.3475 26.0482 26.4742 26.1425C26.5177 26.1748 26.5149 26.2425 26.4676 26.2701C25.8697 26.6196 25.2482 26.9148 24.5945 27.1615C24.552 27.1777 24.533 27.2272 24.5538 27.2681C24.9143 27.9662 25.3258 28.6309 25.7789 29.2614C25.7978 29.2881 25.8319 29.2995 25.8631 29.2899C27.8241 28.6833 29.8126 27.7681 31.8654 26.2606C31.8834 26.2473 31.8948 26.2272 31.8967 26.2053C32.3971 21.0284 31.0585 16.5315 28.3482 12.545C28.3416 12.5317 28.3303 12.5221 28.317 12.5164ZM16.02 23.4778C14.8375 23.4778 13.8631 22.3922 13.8631 21.0589C13.8631 19.7256 14.8186 18.64 16.02 18.64C17.2309 18.64 18.1958 19.7351 18.1769 21.0589C18.1769 22.3922 17.2214 23.4778 16.02 23.4778ZM23.9947 23.4778C22.8123 23.4778 21.8379 22.3922 21.8379 21.0589C21.8379 19.7256 22.7933 18.64 23.9947 18.64C25.2056 18.64 26.1705 19.7351 26.1516 21.0589C26.1516 22.3922 25.2056 23.4778 23.9947 23.4778Z" fill="black"/>
</svg>
