<svg width="40" height="40" viewBox="0 0 40 40" fill="none" xmlns="http://www.w3.org/2000/svg">
<path d="M28.5 10H10.4531C9.6562 10 9 10.7031 9 11.5469V29.5C9 30.3438 9.6562 31 10.4531 31H28.5C29.2969 31 30 30.3438 30 29.5V11.5469C30 10.7031 29.2969 10 28.5 10ZM15.3281 28H12.2344V18.0156H15.3281V28ZM13.7812 16.6094C12.75 16.6094 11.9531 15.8125 11.9531 14.8281C11.9531 13.8438 12.75 13 13.7812 13C14.7656 13 15.5625 13.8438 15.5625 14.8281C15.5625 15.8125 14.7656 16.6094 13.7812 16.6094ZM27 28H23.8594V23.125C23.8594 22 23.8594 20.5 22.2656 20.5C20.625 20.5 20.3906 21.7656 20.3906 23.0781V28H17.2969V18.0156H20.25V19.375H20.2969C20.7188 18.5781 21.75 17.7344 23.25 17.7344C26.3906 17.7344 27 19.8438 27 22.5156V28Z" fill="black"/>
</svg>
