<svg width="40" height="40" viewBox="0 0 40 40" fill="none" xmlns="http://www.w3.org/2000/svg">
<rect opacity="0.1" width="40" height="40" rx="20" fill="white"/>
<path d="M29.5 9.5H11.4531C10.6562 9.5 10 10.2031 10 11.0469V29C10 29.8438 10.6562 30.5 11.4531 30.5H29.5C30.2969 30.5 31 29.8438 31 29V11.0469C31 10.2031 30.2969 9.5 29.5 9.5ZM16.3281 27.5H13.2344V17.5156H16.3281V27.5ZM14.7812 16.1094C13.75 16.1094 12.9531 15.3125 12.9531 14.3281C12.9531 13.3438 13.75 12.5 14.7812 12.5C15.7656 12.5 16.5625 13.3438 16.5625 14.3281C16.5625 15.3125 15.7656 16.1094 14.7812 16.1094ZM28 27.5H24.8594V22.625C24.8594 21.5 24.8594 20 23.2656 20C21.625 20 21.3906 21.2656 21.3906 22.5781V27.5H18.2969V17.5156H21.25V18.875H21.2969C21.7188 18.0781 22.75 17.2344 24.25 17.2344C27.3906 17.2344 28 19.3438 28 22.0156V27.5Z" fill="white"/>
</svg>
