<svg width="42" height="40" viewBox="0 0 42 40" fill="none" xmlns="http://www.w3.org/2000/svg">
<rect opacity="0.1" width="42" height="40" rx="20" fill="white"/>
<path d="M29.317 12.5164C27.7873 11.8145 26.147 11.2974 24.4319 11.0012C24.4007 10.9955 24.3695 11.0098 24.3534 11.0384C24.1424 11.4136 23.9087 11.9031 23.7451 12.2878C21.9004 12.0117 20.0652 12.0117 18.2583 12.2878C18.0946 11.8945 17.8525 11.4136 17.6406 11.0384C17.6245 11.0108 17.5933 10.9965 17.562 11.0012C15.8479 11.2965 14.2076 11.8136 12.6769 12.5164C12.6637 12.5221 12.6523 12.5317 12.6448 12.544C9.53339 17.1924 8.68105 21.7265 9.09918 26.2044C9.10107 26.2263 9.11337 26.2473 9.1304 26.2606C11.1832 27.7681 13.1717 28.6833 15.1233 29.2899C15.1545 29.2995 15.1876 29.2881 15.2075 29.2623C15.6691 28.6319 16.0806 27.9672 16.4335 27.2681C16.4543 27.2272 16.4344 27.1786 16.3919 27.1624C15.7391 26.9148 15.1176 26.6129 14.5197 26.2701C14.4724 26.2425 14.4687 26.1748 14.5122 26.1425C14.638 26.0482 14.7638 25.9501 14.884 25.8511C14.9057 25.833 14.936 25.8291 14.9615 25.8406C18.8893 27.6338 23.1415 27.6338 27.023 25.8406C27.0485 25.8282 27.0788 25.832 27.1015 25.8501C27.2216 25.9491 27.3475 26.0482 27.4742 26.1425C27.5177 26.1748 27.5149 26.2425 27.4676 26.2701C26.8697 26.6196 26.2482 26.9148 25.5945 27.1615C25.552 27.1777 25.533 27.2272 25.5538 27.2681C25.9143 27.9662 26.3258 28.6309 26.7789 29.2614C26.7978 29.2881 26.8319 29.2995 26.8631 29.2899C28.8241 28.6833 30.8126 27.7681 32.8654 26.2606C32.8834 26.2473 32.8948 26.2272 32.8967 26.2053C33.3971 21.0284 32.0585 16.5315 29.3482 12.545C29.3416 12.5317 29.3303 12.5221 29.317 12.5164ZM17.02 23.4778C15.8375 23.4778 14.8631 22.3922 14.8631 21.0589C14.8631 19.7256 15.8186 18.64 17.02 18.64C18.2309 18.64 19.1958 19.7351 19.1769 21.0589C19.1769 22.3922 18.2214 23.4778 17.02 23.4778ZM24.9947 23.4778C23.8123 23.4778 22.8379 22.3922 22.8379 21.0589C22.8379 19.7256 23.7933 18.64 24.9947 18.64C26.2056 18.64 27.1705 19.7351 27.1516 21.0589C27.1516 22.3922 26.2056 23.4778 24.9947 23.4778Z" fill="white"/>
</svg>
