<svg width="394" height="992" viewBox="0 0 394 992" fill="none" xmlns="http://www.w3.org/2000/svg">
<g filter="url(#filter0_ii_1303_11667)">
<path fill-rule="evenodd" clip-rule="evenodd" d="M-253.782 172.496C-184.341 158.843 -125.769 225.023 -57.2221 240.965C-10.8162 251.758 38.8539 235.709 83.892 251.028C129.654 266.594 179.445 287.689 203.064 329.5C226.874 371.651 184.572 431.683 209.413 473.235C245.572 533.717 364.993 537.29 369.458 607.826C373.38 669.79 275.927 688.327 225.394 725.69C187.797 753.487 151.779 782.085 108.817 800.535C68.8193 817.711 25.4749 839.293 -16.6621 829.638C-58.977 819.943 -76.0126 765.988 -115.86 749.056C-153.758 732.953 -198.071 747.331 -237.657 735.734C-296.354 718.54 -392.67 724.419 -403.973 664.656C-416.046 600.82 -280.885 580.068 -279.411 514.958C-277.587 434.352 -401.911 388.011 -395.89 307.551C-390.998 242.19 -318.667 185.253 -253.782 172.496Z" fill="#EBECF0"/>
<path fill-rule="evenodd" clip-rule="evenodd" d="M-253.782 172.496C-184.341 158.843 -125.769 225.023 -57.2221 240.965C-10.8162 251.758 38.8539 235.709 83.892 251.028C129.654 266.594 179.445 287.689 203.064 329.5C226.874 371.651 184.572 431.683 209.413 473.235C245.572 533.717 364.993 537.29 369.458 607.826C373.38 669.79 275.927 688.327 225.394 725.69C187.797 753.487 151.779 782.085 108.817 800.535C68.8193 817.711 25.4749 839.293 -16.6621 829.638C-58.977 819.943 -76.0126 765.988 -115.86 749.056C-153.758 732.953 -198.071 747.331 -237.657 735.734C-296.354 718.54 -392.67 724.419 -403.973 664.656C-416.046 600.82 -280.885 580.068 -279.411 514.958C-277.587 434.352 -401.911 388.011 -395.89 307.551C-390.998 242.19 -318.667 185.253 -253.782 172.496Z" fill="url(#paint0_linear_1303_11667)" fill-opacity="0.4" style="mix-blend-mode:soft-light"/>
</g>
<path d="M-253.685 172.986C-219.149 166.196 -187.282 179.248 -155.4 196.075C-148.644 199.64 -141.886 203.377 -135.103 207.127C-109.925 221.046 -84.4005 235.158 -57.3353 241.452C-35.8595 246.447 -13.6916 245.711 8.31803 244.98C10.1678 244.918 12.0165 244.857 13.8635 244.799C37.7162 244.05 61.3082 243.875 83.731 251.501C129.507 267.072 179.115 288.12 202.628 329.745C208.522 340.18 210.336 351.737 210.108 363.888C209.882 375.875 207.672 388.403 205.454 400.967L205.359 401.505C203.114 414.233 200.89 426.991 200.789 439.17C200.688 451.357 202.711 463 208.984 473.492C218.084 488.713 232.406 500.328 248.787 510.289C261.382 517.948 275.23 524.649 288.89 531.259C292.99 533.242 297.072 535.218 301.099 537.208C318.565 545.843 334.985 554.767 347.317 565.915C359.634 577.05 367.853 590.384 368.959 607.857C370.9 638.513 347.788 658.499 317.601 675.548C306.138 682.022 293.696 688.05 281.273 694.069C277.354 695.968 273.437 697.866 269.554 699.776C253.371 707.737 237.769 715.918 225.097 725.288C220.8 728.465 216.524 731.651 212.258 734.831C179.172 759.492 146.615 783.758 108.619 800.075C105.113 801.581 101.583 803.12 98.0311 804.668C81.3066 811.958 64.1131 819.452 46.7359 824.669C25.6763 830.992 4.4008 833.951 -16.5504 829.151C-37.5276 824.345 -52.268 808.564 -66.808 791.734C-67.882 790.491 -68.9549 789.242 -70.0291 787.992C-83.4578 772.361 -97.0952 756.487 -115.665 748.596C-134.721 740.499 -155.371 740.073 -176.129 740.205C-177.781 740.216 -179.434 740.23 -181.087 740.244C-200.233 740.406 -219.376 740.569 -237.517 735.255C-252.226 730.946 -269.282 728.085 -286.738 725.285C-288.032 725.077 -289.327 724.87 -290.624 724.663C-306.845 722.07 -323.292 719.44 -338.468 715.673C-371.284 707.526 -397.891 694.122 -403.481 664.563C-406.46 648.812 -400.375 635.7 -389.443 623.829C-378.495 611.943 -362.741 601.362 -346.498 590.702C-345.585 590.103 -344.67 589.504 -343.755 588.904C-328.412 578.847 -312.862 568.655 -300.848 557.201C-288.113 545.059 -279.284 531.436 -278.911 514.97C-278.452 494.68 -285.934 476.57 -297.272 459.582C-308.316 443.037 -323.044 427.52 -337.707 412.072C-338.092 411.666 -338.477 411.261 -338.862 410.856C-353.918 394.99 -368.802 379.17 -379.552 362.299C-390.296 345.437 -396.886 327.561 -395.391 307.588C-392.958 275.08 -373.746 244.616 -347 220.67C-320.257 196.726 -286.033 179.346 -253.685 172.986Z" stroke="white" stroke-opacity="0.4"/>
<g filter="url(#filter1_ii_1303_11667)">
<path fill-rule="evenodd" clip-rule="evenodd" d="M-203.432 276.225C-156.434 267.053 -116.686 312.045 -70.2531 322.956C-38.8181 330.343 -5.2091 319.518 25.3059 329.976C56.3118 340.601 90.0527 354.984 106.1 383.39C122.279 412.028 93.7178 452.711 110.594 480.943C135.157 522.037 216.02 524.623 219.138 572.497C221.878 614.554 155.919 627.002 121.755 652.29C96.3361 671.104 71.9875 690.463 42.9235 702.925C15.8653 714.528 -13.4532 729.115 -41.9963 722.507C-70.66 715.87 -82.2673 679.231 -109.27 667.687C-134.952 656.707 -164.936 666.405 -191.755 658.482C-231.52 646.733 -296.726 650.593 -304.459 610.021C-312.72 566.683 -221.233 552.782 -220.323 508.598C-219.197 453.898 -303.437 422.282 -299.468 367.687C-296.244 323.337 -247.347 284.795 -203.432 276.225Z" fill="#EBECF0"/>
<path fill-rule="evenodd" clip-rule="evenodd" d="M-203.432 276.225C-156.434 267.053 -116.686 312.045 -70.2531 322.956C-38.8181 330.343 -5.2091 319.518 25.3059 329.976C56.3118 340.601 90.0527 354.984 106.1 383.39C122.279 412.028 93.7178 452.711 110.594 480.943C135.157 522.037 216.02 524.623 219.138 572.497C221.878 614.554 155.919 627.002 121.755 652.29C96.3361 671.104 71.9875 690.463 42.9235 702.925C15.8653 714.528 -13.4532 729.115 -41.9963 722.507C-70.66 715.87 -82.2673 679.231 -109.27 667.687C-134.952 656.707 -164.936 666.405 -191.755 658.482C-231.52 646.733 -296.726 650.593 -304.459 610.021C-312.72 566.683 -221.233 552.782 -220.323 508.598C-219.197 453.898 -303.437 422.282 -299.468 367.687C-296.244 323.337 -247.347 284.795 -203.432 276.225Z" fill="url(#paint1_linear_1303_11667)" fill-opacity="0.4" style="mix-blend-mode:soft-light"/>
</g>
<path d="M-203.336 276.716C-180.021 272.166 -158.472 281.041 -136.865 292.501C-132.293 294.926 -127.716 297.469 -123.121 300.021C-106.053 309.503 -88.7253 319.129 -70.3675 323.443C-55.7982 326.866 -40.7689 326.396 -25.8718 325.93C-24.6181 325.89 -23.3653 325.851 -22.1139 325.814C-5.96337 325.338 9.98258 325.253 25.1438 330.449C56.163 341.078 89.7215 355.414 105.665 383.636C109.651 390.692 110.893 398.507 110.755 406.736C110.619 414.858 109.141 423.346 107.655 431.875L107.593 432.233C104.593 449.465 101.614 466.895 110.164 481.2C116.365 491.573 126.103 499.491 137.217 506.279C145.763 511.498 155.158 516.069 164.418 520.574C167.195 521.925 169.959 523.27 172.685 524.625C184.523 530.509 195.634 536.578 203.981 544.144C212.314 551.697 217.87 560.722 218.639 572.53C219.988 593.232 204.454 606.718 184.04 618.247C176.292 622.622 167.883 626.693 159.48 630.76C156.829 632.044 154.178 633.327 151.549 634.62C140.602 640 130.038 645.537 121.457 651.888C118.551 654.039 115.661 656.196 112.776 658.348C90.4059 675.04 68.4117 691.452 42.7265 702.466C40.3523 703.484 37.9627 704.524 35.5592 705.57C24.2456 710.494 12.6254 715.552 0.877153 719.066C-13.3591 723.324 -27.7294 725.297 -41.8836 722.02C-56.0356 718.743 -66.0063 708.056 -75.8774 696.611C-76.6075 695.764 -77.3371 694.913 -78.0677 694.061C-87.1751 683.442 -96.454 672.622 -109.074 667.227C-122.021 661.692 -136.035 661.377 -150.088 661.438C-151.206 661.443 -152.324 661.45 -153.441 661.458C-166.409 661.542 -179.347 661.626 -191.613 658.002C-201.589 655.055 -213.152 653.089 -224.973 651.165C-225.849 651.023 -226.726 650.881 -227.604 650.738C-238.592 648.956 -249.724 647.151 -259.997 644.575C-282.223 639.004 -300.163 629.893 -303.968 609.927C-305.994 599.3 -301.923 590.459 -294.558 582.442C-287.177 574.408 -276.543 567.259 -265.556 560.045C-264.937 559.638 -264.317 559.232 -263.697 558.825C-253.326 552.023 -242.799 545.12 -234.67 537.353C-226.048 529.115 -220.055 519.844 -219.823 508.609C-219.539 494.796 -224.646 482.464 -232.356 470.904C-239.864 459.649 -249.865 449.091 -259.811 438.591C-260.074 438.313 -260.336 438.036 -260.598 437.759C-270.816 426.97 -280.904 416.224 -288.196 404.776C-295.482 393.336 -299.951 381.23 -298.969 367.723C-297.37 345.72 -284.433 325.108 -266.376 308.911C-248.321 292.716 -225.199 280.982 -203.336 276.716Z" stroke="white" stroke-opacity="0.4"/>
<g filter="url(#filter2_ii_1303_11667)">
<path fill-rule="evenodd" clip-rule="evenodd" d="M-153.566 378.724C-128.521 373.848 -107.323 397.856 -82.5727 403.69C-65.817 407.64 -47.9086 401.878 -31.6422 407.465C-15.1142 413.142 2.87274 420.824 11.4346 435.979C20.0663 451.257 4.85773 472.945 13.8608 488.007C26.9655 509.932 70.0621 511.337 71.7395 536.871C73.2131 559.302 38.0645 565.919 19.8646 579.395C6.32395 589.42 -6.64639 599.737 -22.132 606.374C-36.549 612.553 -52.1695 620.324 -67.3838 616.79C-82.6622 613.241 -88.8602 593.697 -103.255 587.531C-116.946 581.667 -132.923 586.83 -147.218 582.595C-168.415 576.317 -203.165 578.354 -207.3 556.713C-211.716 533.597 -162.963 526.213 -162.492 502.649C-161.91 473.477 -206.816 456.588 -204.719 427.472C-203.015 403.82 -176.968 383.281 -153.566 378.724Z" fill="#EBECF0"/>
<path fill-rule="evenodd" clip-rule="evenodd" d="M-153.566 378.724C-128.521 373.848 -107.323 397.856 -82.5727 403.69C-65.817 407.64 -47.9086 401.878 -31.6422 407.465C-15.1142 413.142 2.87274 420.824 11.4346 435.979C20.0663 451.257 4.85773 472.945 13.8608 488.007C26.9655 509.932 70.0621 511.337 71.7395 536.871C73.2131 559.302 38.0645 565.919 19.8646 579.395C6.32395 589.42 -6.64639 599.737 -22.132 606.374C-36.549 612.553 -52.1695 620.324 -67.3838 616.79C-82.6622 613.241 -88.8602 593.697 -103.255 587.531C-116.946 581.667 -132.923 586.83 -147.218 582.595C-168.415 576.317 -203.165 578.354 -207.3 556.713C-211.716 533.597 -162.963 526.213 -162.492 502.649C-161.91 473.477 -206.816 456.588 -204.719 427.472C-203.015 403.82 -176.968 383.281 -153.566 378.724Z" fill="url(#paint2_linear_1303_11667)" fill-opacity="0.4" style="mix-blend-mode:soft-light"/>
</g>
<path d="M-153.47 379.215C-141.132 376.813 -129.708 381.515 -118.193 387.633C-115.765 388.922 -113.332 390.276 -110.886 391.637C-101.783 396.702 -92.5075 401.862 -82.6875 404.177C-74.8901 406.015 -66.8501 405.768 -58.9169 405.524C-58.2469 405.503 -57.5778 405.483 -56.9096 405.464C-48.3002 405.215 -39.8416 405.178 -31.8046 407.938C-15.2634 413.619 2.54137 421.254 10.9993 436.225C13.099 439.941 13.7596 444.064 13.6892 448.427C13.6196 452.741 12.8372 457.252 12.0473 461.807L12.0158 461.989C10.4263 471.156 8.81766 480.545 13.4317 488.264C16.7676 493.845 21.9964 498.095 27.9361 501.728C32.5026 504.52 37.525 506.968 42.4631 509.374C43.942 510.095 45.4133 510.812 46.8625 511.533C53.1728 514.675 59.0704 517.903 63.4952 521.917C67.9058 525.919 70.8318 530.68 71.2406 536.904C71.956 547.793 63.8084 554.915 52.9338 561.056C48.8132 563.382 44.3421 565.546 39.8667 567.712C38.4529 568.397 37.0386 569.081 35.6349 569.771C29.8021 572.637 24.1567 575.595 19.5671 578.993C18.0185 580.139 16.4783 581.289 14.942 582.436C3.02237 591.333 -8.67086 600.061 -22.329 605.915C-23.5965 606.458 -24.8714 607.013 -26.153 607.57C-32.1808 610.193 -38.3566 612.879 -44.602 614.745C-52.1674 617.006 -59.781 618.042 -67.2706 616.303C-74.7302 614.57 -80.0024 608.929 -85.2721 602.815C-85.6632 602.362 -86.0543 601.905 -86.4464 601.448C-91.2951 595.79 -96.2785 589.976 -103.058 587.072C-110.01 584.094 -117.525 583.924 -125.012 583.952C-125.606 583.954 -126.2 583.958 -126.794 583.961C-133.712 584.002 -140.573 584.042 -147.076 582.116C-152.411 580.536 -158.588 579.482 -164.886 578.452C-165.352 578.376 -165.819 578.3 -166.286 578.224C-172.145 577.27 -178.07 576.305 -183.536 574.93C-195.376 571.953 -204.803 567.12 -206.809 556.619C-207.873 551.048 -205.752 546.406 -201.86 542.165C-197.952 537.908 -192.313 534.115 -186.454 530.267C-186.123 530.05 -185.791 529.832 -185.458 529.614C-179.939 525.993 -174.314 522.304 -169.968 518.149C-165.354 513.737 -162.114 508.739 -161.993 502.659C-161.844 495.229 -164.595 488.604 -168.723 482.413C-172.739 476.391 -178.085 470.744 -183.384 465.146C-183.526 464.996 -183.668 464.846 -183.81 464.696C-189.262 458.935 -194.626 453.217 -198.502 447.131C-202.372 441.054 -204.734 434.645 -204.22 427.508C-203.38 415.854 -196.536 404.917 -186.945 396.31C-177.357 387.705 -165.076 381.475 -153.47 379.215Z" stroke="white" stroke-opacity="0.4"/>
<defs>
<filter id="filter0_ii_1303_11667" x="-409.736" y="165.653" width="784.309" height="671.376" filterUnits="userSpaceOnUse" color-interpolation-filters="sRGB">
<feFlood flood-opacity="0" result="BackgroundImageFix"/>
<feBlend mode="normal" in="SourceGraphic" in2="BackgroundImageFix" result="shape"/>
<feColorMatrix in="SourceAlpha" type="matrix" values="0 0 0 0 0 0 0 0 0 0 0 0 0 0 0 0 0 0 127 0" result="hardAlpha"/>
<feOffset dx="5" dy="5"/>
<feGaussianBlur stdDeviation="5"/>
<feComposite in2="hardAlpha" operator="arithmetic" k2="-1" k3="1"/>
<feColorMatrix type="matrix" values="0 0 0 0 0.65098 0 0 0 0 0.670588 0 0 0 0 0.741176 0 0 0 1 0"/>
<feBlend mode="normal" in2="shape" result="effect1_innerShadow_1303_11667"/>
<feColorMatrix in="SourceAlpha" type="matrix" values="0 0 0 0 0 0 0 0 0 0 0 0 0 0 0 0 0 0 127 0" result="hardAlpha"/>
<feOffset dx="-5" dy="-5"/>
<feGaussianBlur stdDeviation="5"/>
<feComposite in2="hardAlpha" operator="arithmetic" k2="-1" k3="1"/>
<feColorMatrix type="matrix" values="0 0 0 0 0.980392 0 0 0 0 0.984314 0 0 0 0 1 0 0 0 1 0"/>
<feBlend mode="normal" in2="effect1_innerShadow_1303_11667" result="effect2_innerShadow_1303_11667"/>
</filter>
<filter id="filter1_ii_1303_11667" x="-309.987" y="270" width="534.208" height="459.159" filterUnits="userSpaceOnUse" color-interpolation-filters="sRGB">
<feFlood flood-opacity="0" result="BackgroundImageFix"/>
<feBlend mode="normal" in="SourceGraphic" in2="BackgroundImageFix" result="shape"/>
<feColorMatrix in="SourceAlpha" type="matrix" values="0 0 0 0 0 0 0 0 0 0 0 0 0 0 0 0 0 0 127 0" result="hardAlpha"/>
<feOffset dx="5" dy="5"/>
<feGaussianBlur stdDeviation="5"/>
<feComposite in2="hardAlpha" operator="arithmetic" k2="-1" k3="1"/>
<feColorMatrix type="matrix" values="0 0 0 0 0.65098 0 0 0 0 0.670588 0 0 0 0 0.741176 0 0 0 1 0"/>
<feBlend mode="normal" in2="shape" result="effect1_innerShadow_1303_11667"/>
<feColorMatrix in="SourceAlpha" type="matrix" values="0 0 0 0 0 0 0 0 0 0 0 0 0 0 0 0 0 0 127 0" result="hardAlpha"/>
<feOffset dx="-5" dy="-5"/>
<feGaussianBlur stdDeviation="5"/>
<feComposite in2="hardAlpha" operator="arithmetic" k2="-1" k3="1"/>
<feColorMatrix type="matrix" values="0 0 0 0 0.980392 0 0 0 0 0.984314 0 0 0 0 1 0 0 0 1 0"/>
<feBlend mode="normal" in2="effect1_innerShadow_1303_11667" result="effect2_innerShadow_1303_11667"/>
</filter>
<filter id="filter2_ii_1303_11667" x="-212.583" y="373.075" width="289.367" height="249.6" filterUnits="userSpaceOnUse" color-interpolation-filters="sRGB">
<feFlood flood-opacity="0" result="BackgroundImageFix"/>
<feBlend mode="normal" in="SourceGraphic" in2="BackgroundImageFix" result="shape"/>
<feColorMatrix in="SourceAlpha" type="matrix" values="0 0 0 0 0 0 0 0 0 0 0 0 0 0 0 0 0 0 127 0" result="hardAlpha"/>
<feOffset dx="5" dy="5"/>
<feGaussianBlur stdDeviation="5"/>
<feComposite in2="hardAlpha" operator="arithmetic" k2="-1" k3="1"/>
<feColorMatrix type="matrix" values="0 0 0 0 0.65098 0 0 0 0 0.670588 0 0 0 0 0.741176 0 0 0 1 0"/>
<feBlend mode="normal" in2="shape" result="effect1_innerShadow_1303_11667"/>
<feColorMatrix in="SourceAlpha" type="matrix" values="0 0 0 0 0 0 0 0 0 0 0 0 0 0 0 0 0 0 127 0" result="hardAlpha"/>
<feOffset dx="-5" dy="-5"/>
<feGaussianBlur stdDeviation="5"/>
<feComposite in2="hardAlpha" operator="arithmetic" k2="-1" k3="1"/>
<feColorMatrix type="matrix" values="0 0 0 0 0.980392 0 0 0 0 0.984314 0 0 0 0 1 0 0 0 1 0"/>
<feBlend mode="normal" in2="effect1_innerShadow_1303_11667" result="effect2_innerShadow_1303_11667"/>
</filter>
<linearGradient id="paint0_linear_1303_11667" x1="546.29" y1="124.817" x2="-483.72" y2="-180.731" gradientUnits="userSpaceOnUse">
<stop/>
<stop offset="1" stop-color="white"/>
</linearGradient>
<linearGradient id="paint1_linear_1303_11667" x1="338.216" y1="244.948" x2="-360.539" y2="39.4097" gradientUnits="userSpaceOnUse">
<stop/>
<stop offset="1" stop-color="white"/>
</linearGradient>
<linearGradient id="paint2_linear_1303_11667" x1="135.096" y1="362.219" x2="-237.526" y2="252.897" gradientUnits="userSpaceOnUse">
<stop/>
<stop offset="1" stop-color="white"/>
</linearGradient>
</defs>
</svg>
