<svg width="116" height="22" viewBox="0 0 116 22" fill="none" xmlns="http://www.w3.org/2000/svg">
<path d="M6.96075 4.57243V18.2298C6.96075 19.5087 7.33866 20.1542 8.9992 20.1542H10.9786C13.2207 20.1542 14.2716 19.2775 15.0574 17.645L15.7854 16.0428L16.9216 16.3654L16.0171 21.5806H0V20.4463C2.82422 19.8316 2.97015 19.7463 2.97015 18.638V4.54276C2.97015 3.40633 2.82395 3.34887 0 2.76677V1.6306H10.0466V2.76677C7.10695 3.3486 6.96075 3.40606 6.96075 4.57243ZM29.4453 10.6009C29.4453 12.4349 28.3946 14.5613 21.4363 14.8818C21.6106 17.7055 23.0666 19.5699 25.4822 19.5699C26.822 19.5699 28.0469 19.0156 29.1828 17.9682L29.8226 18.724C28.571 20.588 26.5029 21.8727 24.0865 21.8727C20.2117 21.8727 17.4152 19.0763 17.4152 14.7359C17.4152 10.5141 20.8245 7.193 24.8426 7.193C28.1322 7.19246 29.4453 9.20313 29.4453 10.6009ZM24.6384 8.38688C22.4538 8.38688 21.494 10.7175 21.4066 13.7181C26.1827 12.9895 26.3564 11.1833 26.3564 10.1354C26.3562 8.91073 25.3662 8.38688 24.6384 8.38688ZM35.443 21.8722C31.9768 21.8722 30.6667 20.4765 30.6667 19.0156C30.6667 17.9075 31.7726 16.9194 33.1704 17.2116L33.5505 17.6761C32.6463 19.2222 33.3166 20.6486 35.589 20.6486C37.0143 20.6486 38.035 19.8621 38.035 18.6682C38.035 17.2728 36.8692 16.6883 35.0648 15.9626C32.5306 14.9398 31.0165 13.7764 31.0165 11.4458C31.0165 9.14621 33.055 7.16548 36.143 7.16548C39.4328 7.16548 40.9169 8.73728 40.9169 10.0784C40.9169 11.1534 39.9569 12.2019 38.2667 11.8542L37.9465 11.3881C38.9672 10.0172 38.4429 8.38742 36.2007 8.38742C34.8604 8.38742 33.9562 9.23118 33.9562 10.3396C33.9562 11.6494 35.3551 12.2893 36.9868 12.8436C39.4913 13.7184 41.56 14.8821 41.56 17.443C41.6177 20.094 39.7535 21.8722 35.443 21.8722ZM44.6462 1.66054H60.6355L60.7817 6.90005H59.7033L59.149 5.24059C58.5968 3.58274 57.431 3.08641 55.7707 3.08641H51.6061V10.513H55.7127C56.5864 10.513 56.6446 10.3668 57.227 7.77457H58.3629V14.97H57.227C56.6144 12.4935 56.5562 12.1156 55.7127 12.1156H51.6061V18.1988C51.6061 19.4847 51.984 20.1248 53.6446 20.1248H55.6239C57.8687 20.1248 58.917 19.2479 59.7033 17.6205L60.431 16.0179L61.5675 16.3352L60.6628 21.5501H44.6176V20.4469C47.4415 19.8321 47.5883 19.7469 47.5883 18.6385V4.54276C47.5883 3.40633 47.4415 3.34887 44.6176 2.76677V1.66054H44.6462ZM73.8859 17.9976L74.5265 18.7534C73.2725 20.6171 71.206 21.8973 68.7899 21.8973C64.9158 21.8973 62.1191 19.1062 62.1191 14.7653C62.1191 10.5411 65.2352 7.22267 69.3137 7.22267C72.5164 7.22267 73.9471 8.96926 73.9471 10.3393C73.9471 11.4736 73.2164 12.6397 71.1447 12.289L70.8278 11.7654C71.3821 10.4251 71.6133 8.38769 69.3714 8.38769C67.0713 8.38769 66.1396 11.0379 66.1396 14.2425C66.1396 17.4139 67.6232 19.6007 70.2184 19.6007C71.5588 19.5697 72.778 19.0461 73.8859 17.9976ZM84.3716 19.9478V12.2313C84.3716 10.6009 83.762 9.90042 82.5921 9.90042C80.7889 9.90042 79.2724 12.7276 79.2724 16.9799V21.5806H75.4884V2.9127C75.4884 1.80405 75.3978 1.74578 73.5638 1.134V0H79.4186C79.2727 1.19389 79.2727 10.5405 79.2727 11.1831H79.3328C80.295 8.82279 82.0386 7.19246 84.4572 7.19246C86.6135 7.19246 88.1556 8.64881 88.1556 11.503V18.5217C88.1556 19.831 88.3563 19.9478 90.3724 20.4463V21.5806C88.649 21.7568 87.3094 21.8722 86.4676 21.8722C85.1018 21.8722 84.3716 21.2882 84.3716 19.9478ZM97.1845 20.678C99.688 20.678 100.389 17.7357 100.389 14.7353C100.389 11.4733 99.9251 8.38715 97.1845 8.38715C94.6807 8.38715 93.9802 11.3293 93.9802 14.3275C93.9802 17.5897 94.5038 20.678 97.1845 20.678ZM96.8921 21.8722C92.8165 21.8722 89.9594 19.1621 89.9594 14.9697C89.9594 10.2783 92.9018 7.16467 97.4764 7.16467C101.553 7.16467 104.409 9.87344 104.409 14.0653C104.409 18.7534 101.467 21.8722 96.8921 21.8722ZM109.881 21.8722C106.414 21.8722 105.106 20.4765 105.106 19.0156C105.106 17.9075 106.214 16.9194 107.614 17.2116L107.987 17.6761C107.091 19.2222 107.755 20.6486 110.028 20.6486C111.453 20.6486 112.47 19.8621 112.47 18.6682C112.47 17.2728 111.312 16.6883 109.503 15.9626C106.969 14.9398 105.458 13.7764 105.458 11.4458C105.458 9.14621 107.493 7.16548 110.582 7.16548C113.872 7.16548 115.358 8.73728 115.358 10.0784C115.358 11.1534 114.396 12.2019 112.708 11.8542L112.391 11.3881C113.408 10.0172 112.914 8.38742 110.637 8.38742C109.297 8.38742 108.4 9.23118 108.4 10.3396C108.4 11.6494 109.796 12.2893 111.423 12.8436C113.932 13.7184 115.999 14.8821 115.999 17.443C116.058 20.094 114.194 21.8722 109.881 21.8722Z" fill="black"/>
</svg>
