<svg width="14" height="14" viewBox="0 0 11 11" fill="none" xmlns="http://www.w3.org/2000/svg">
<path d="M9.75003 0.25H0.726593C0.328156 0.25 3.05176e-05 0.601562 3.05176e-05 1.02344V10C3.05176e-05 10.4219 0.328156 10.75 0.726593 10.75H9.75003C10.1485 10.75 10.5 10.4219 10.5 10V1.02344C10.5 0.601562 10.1485 0.25 9.75003 0.25ZM3.16409 9.25H1.61722V4.25781H3.16409V9.25ZM2.39066 3.55469C1.87503 3.55469 1.47659 3.15625 1.47659 2.66406C1.47659 2.17188 1.87503 1.75 2.39066 1.75C2.88284 1.75 3.28128 2.17188 3.28128 2.66406C3.28128 3.15625 2.88284 3.55469 2.39066 3.55469ZM9.00003 9.25H7.42972V6.8125C7.42972 6.25 7.42972 5.5 6.63284 5.5C5.81253 5.5 5.69534 6.13281 5.69534 6.78906V9.25H4.14847V4.25781H5.62503V4.9375H5.64847C5.85941 4.53906 6.37503 4.11719 7.12503 4.11719C8.69534 4.11719 9.00003 5.17188 9.00003 6.50781V9.25Z" fill="#000B2D"/>
</svg>
