<svg width="226" height="42" viewBox="0 0 226 42" fill="none" xmlns="http://www.w3.org/2000/svg">
<mask id="mask0_1878_9937" style="mask-type:alpha" maskUnits="userSpaceOnUse" x="0" y="0" width="51" height="42">
<path d="M5.99005 36.3314C8.38528 38.9262 10.5355 40.3043 14.2735 40.8224C19.3135 41.521 25.4572 40.0485 32.3874 38.3274C32.3874 38.3274 50.5512 35.1836 50.5512 20.6127C50.5512 10.2833 39.1739 6.86514 39.1739 6.86514C35.4812 5.29326 31.2397 3.74634 27.4972 2.79824C19.0192 0.650489 11.6254 -0.69135 5.44115 5.49286C1.44909 9.48491 1 15.4231 1 22.0598C1 28.0073 3.59483 33.7365 5.99005 36.3314Z" fill="url(#paint0_linear_1878_9937)"/>
<path d="M5.99005 36.3314C8.38528 38.9262 10.5355 40.3043 14.2735 40.8224C19.3135 41.521 25.4572 40.0485 32.3874 38.3274C32.3874 38.3274 50.5512 35.1836 50.5512 20.6127C50.5512 10.2833 39.1739 6.86514 39.1739 6.86514C35.4812 5.29326 31.2397 3.74634 27.4972 2.79824C19.0192 0.650489 11.6254 -0.69135 5.44115 5.49286C1.44909 9.48491 1 15.4231 1 22.0598C1 28.0073 3.59483 33.7365 5.99005 36.3314Z" fill="url(#paint1_linear_1878_9937)" fill-opacity="0.4"/>
<path d="M5.99005 36.3314C8.38528 38.9262 10.5355 40.3043 14.2735 40.8224C19.3135 41.521 25.4572 40.0485 32.3874 38.3274C32.3874 38.3274 50.5512 35.1836 50.5512 20.6127C50.5512 10.2833 39.1739 6.86514 39.1739 6.86514C35.4812 5.29326 31.2397 3.74634 27.4972 2.79824C19.0192 0.650489 11.6254 -0.69135 5.44115 5.49286C1.44909 9.48491 1 15.4231 1 22.0598C1 28.0073 3.59483 33.7365 5.99005 36.3314Z" stroke="white" stroke-opacity="0.4" stroke-width="0.309695"/>
</mask>
<g mask="url(#mask0_1878_9937)">
<g filter="url(#filter0_ii_1878_9937)">
<path d="M5.99005 36.3314C8.38528 38.9262 10.5355 40.3043 14.2735 40.8224C19.3135 41.521 25.4572 40.0485 32.3874 38.3274C32.3874 38.3274 50.5512 35.1836 50.5512 20.6127C50.5512 10.2833 39.1739 6.86514 39.1739 6.86514C35.4812 5.29326 31.2397 3.74634 27.4972 2.79824C19.0192 0.650489 11.6254 -0.69135 5.44115 5.49286C1.44909 9.48491 1 15.4231 1 22.0598C1 28.0073 3.59483 33.7365 5.99005 36.3314Z" fill="url(#paint2_linear_1878_9937)"/>
<path d="M5.99005 36.3314C8.38528 38.9262 10.5355 40.3043 14.2735 40.8224C19.3135 41.521 25.4572 40.0485 32.3874 38.3274C32.3874 38.3274 50.5512 35.1836 50.5512 20.6127C50.5512 10.2833 39.1739 6.86514 39.1739 6.86514C35.4812 5.29326 31.2397 3.74634 27.4972 2.79824C19.0192 0.650489 11.6254 -0.69135 5.44115 5.49286C1.44909 9.48491 1 15.4231 1 22.0598C1 28.0073 3.59483 33.7365 5.99005 36.3314Z" fill="url(#paint3_linear_1878_9937)" fill-opacity="0.4" style="mix-blend-mode:soft-light"/>
</g>
<path d="M5.99005 36.3314C8.38528 38.9262 10.5355 40.3043 14.2735 40.8224C19.3135 41.521 25.4572 40.0485 32.3874 38.3274C32.3874 38.3274 50.5512 35.1836 50.5512 20.6127C50.5512 10.2833 39.1739 6.86514 39.1739 6.86514C35.4812 5.29326 31.2397 3.74634 27.4972 2.79824C19.0192 0.650489 11.6254 -0.69135 5.44115 5.49286C1.44909 9.48491 1 15.4231 1 22.0598C1 28.0073 3.59483 33.7365 5.99005 36.3314Z" stroke="white" stroke-opacity="0.4" stroke-width="0.309695"/>
<g filter="url(#filter1_dd_1878_9937)">
<circle cx="33.1051" cy="21.0118" r="12.2755" fill="#EBECF0"/>
<circle cx="33.1051" cy="21.0118" r="12.2755" fill="url(#paint4_linear_1878_9937)" fill-opacity="0.4" style="mix-blend-mode:soft-light"/>
<circle cx="33.1051" cy="21.0118" r="12.1207" stroke="white" stroke-opacity="0.4" stroke-width="0.309695"/>
</g>
</g>
<path d="M82.5947 28.9047L83.7891 25.8618H78.8389C75.5423 25.8618 73.9878 24.2962 73.9878 20.9997C73.9878 17.7032 75.5423 16.1487 78.8389 16.1487H83.7891L83.3371 13.0947H78.8389C73.0948 13.0947 70.3716 15.6305 70.3716 20.9997C70.3716 26.3689 73.0948 28.9047 78.8389 28.9047H82.5947Z" fill="black"/>
<path d="M102.069 28.9047L95.8395 13.0947H90.7129L84.4396 28.9047H88.2102L89.6324 25.1782H96.8759L98.2981 28.9047H102.069ZM93.1494 16.0164H93.403L95.7293 22.1353H90.8011L93.1494 16.0164Z" fill="black"/>
<path d="M114.527 23.9103C116.809 23.0394 117.956 21.2423 117.956 18.7837C117.956 17.0086 117.361 15.6195 116.181 14.6052C114.99 13.6019 113.237 13.0947 110.933 13.0947H103.8V28.9047H107.317V24.4836H110.823L113.866 28.9047H118.11L114.527 23.9103ZM110.701 16.1487C113.292 16.1487 114.34 16.9866 114.34 18.7837C114.34 20.5587 113.292 21.4076 110.701 21.4076H107.317V16.1487H110.701Z" fill="black"/>
<path d="M120.712 13.0947V28.9047H127.459C133.115 28.9047 135.794 26.3689 135.794 20.9997C135.794 15.6305 133.115 13.0947 127.459 13.0947H120.712ZM124.229 25.8618V16.1487H127.459C130.668 16.1487 132.178 17.7032 132.178 20.9997C132.178 24.2962 130.668 25.8618 127.459 25.8618H124.229Z" fill="black"/>
<path d="M154.063 28.9047L147.834 13.0947H142.707L136.434 28.9047H140.204L141.627 25.1782H148.87L150.292 28.9047H154.063ZM145.144 16.0164H145.397L147.724 22.1353H142.795L145.144 16.0164Z" fill="black"/>
<path d="M163.423 28.9047C167.128 28.9047 169.178 27.273 169.178 24.4065C169.178 22.9401 168.771 21.8707 167.922 21.121C167.073 20.3823 165.926 19.9523 164.239 19.6436L161.229 19.1034C159.542 18.7947 158.705 18.3647 158.705 17.3945C158.705 16.5015 159.399 16.1487 160.987 16.1487H168.098L167.646 13.0947H160.843C157.139 13.0947 155.088 14.6823 155.088 17.4607C155.088 18.8388 155.507 19.8972 156.345 20.6138C157.183 21.3305 158.44 21.8376 160.127 22.1353L163.037 22.6535C164.713 22.9512 165.573 23.4363 165.573 24.4836C165.573 25.4869 164.879 25.8618 163.291 25.8618H154.912L156.135 28.9047H163.423Z" fill="black"/>
<path d="M182.982 19.3349H175.121V13.0947H171.604V28.9047H175.121V22.3779H182.982V28.9047H186.499V13.0947H182.982V19.3349Z" fill="black"/>
<path d="M193.555 28.9047V13.0947H190.038V28.9047H193.555Z" fill="black"/>
<path d="M200.589 28.9047V22.9181H207.634V19.9854H200.589V16.1487H209.486L209.034 13.0947H197.072V28.9047H200.589Z" fill="black"/>
<path d="M210.093 13.0947L210.623 16.1487H215.892V28.9047H219.409V16.1487H225.219V13.0947H210.093Z" fill="black"/>
<defs>
<filter id="filter0_ii_1878_9937" x="-0.703259" y="-0.703747" width="52.9578" height="43.4065" filterUnits="userSpaceOnUse" color-interpolation-filters="sRGB">
<feFlood flood-opacity="0" result="BackgroundImageFix"/>
<feBlend mode="normal" in="SourceGraphic" in2="BackgroundImageFix" result="shape"/>
<feColorMatrix in="SourceAlpha" type="matrix" values="0 0 0 0 0 0 0 0 0 0 0 0 0 0 0 0 0 0 127 0" result="hardAlpha"/>
<feOffset dx="1.54847" dy="1.54847"/>
<feGaussianBlur stdDeviation="1.54847"/>
<feComposite in2="hardAlpha" operator="arithmetic" k2="-1" k3="1"/>
<feColorMatrix type="matrix" values="0 0 0 0 0 0 0 0 0 0.0745098 0 0 0 0 0.462745 0 0 0 1 0"/>
<feBlend mode="normal" in2="shape" result="effect1_innerShadow_1878_9937"/>
<feColorMatrix in="SourceAlpha" type="matrix" values="0 0 0 0 0 0 0 0 0 0 0 0 0 0 0 0 0 0 127 0" result="hardAlpha"/>
<feOffset dx="-1.54847" dy="-1.54847"/>
<feGaussianBlur stdDeviation="1.54847"/>
<feComposite in2="hardAlpha" operator="arithmetic" k2="-1" k3="1"/>
<feColorMatrix type="matrix" values="0 0 0 0 0.395833 0 0 0 0 0.516667 0 0 0 0 1 0 0 0 1 0"/>
<feBlend mode="normal" in2="effect1_innerShadow_1878_9937" result="effect2_innerShadow_1878_9937"/>
</filter>
<filter id="filter1_dd_1878_9937" x="11.5387" y="-0.554514" width="43.1327" height="43.1325" filterUnits="userSpaceOnUse" color-interpolation-filters="sRGB">
<feFlood flood-opacity="0" result="BackgroundImageFix"/>
<feColorMatrix in="SourceAlpha" type="matrix" values="0 0 0 0 0 0 0 0 0 0 0 0 0 0 0 0 0 0 127 0" result="hardAlpha"/>
<feOffset dx="3.09695" dy="3.09695"/>
<feGaussianBlur stdDeviation="3.09695"/>
<feColorMatrix type="matrix" values="0 0 0 0 0 0 0 0 0 0.0745098 0 0 0 0 0.462745 0 0 0 1 0"/>
<feBlend mode="normal" in2="BackgroundImageFix" result="effect1_dropShadow_1878_9937"/>
<feColorMatrix in="SourceAlpha" type="matrix" values="0 0 0 0 0 0 0 0 0 0 0 0 0 0 0 0 0 0 127 0" result="hardAlpha"/>
<feOffset dx="-3.09695" dy="-3.09695"/>
<feGaussianBlur stdDeviation="3.09695"/>
<feColorMatrix type="matrix" values="0 0 0 0 0.654167 0 0 0 0 0.723333 0 0 0 0 1 0 0 0 0.4 0"/>
<feBlend mode="normal" in2="effect1_dropShadow_1878_9937" result="effect2_dropShadow_1878_9937"/>
<feBlend mode="normal" in="SourceGraphic" in2="effect2_dropShadow_1878_9937" result="shape"/>
</filter>
<linearGradient id="paint0_linear_1878_9937" x1="50.5512" y1="21.1302" x2="1" y2="21.1302" gradientUnits="userSpaceOnUse">
<stop stop-color="#0029FF"/>
<stop offset="1" stop-color="#7E8EFD"/>
</linearGradient>
<linearGradient id="paint1_linear_1878_9937" x1="-19.8194" y1="21.002" x2="15.5535" y2="65.3912" gradientUnits="userSpaceOnUse">
<stop/>
<stop offset="1" stop-color="white"/>
</linearGradient>
<linearGradient id="paint2_linear_1878_9937" x1="50.5512" y1="21.1302" x2="1" y2="21.1302" gradientUnits="userSpaceOnUse">
<stop stop-color="#0029FF"/>
<stop offset="1" stop-color="#7E8EFD"/>
</linearGradient>
<linearGradient id="paint3_linear_1878_9937" x1="-19.8194" y1="21.002" x2="15.5535" y2="65.3912" gradientUnits="userSpaceOnUse">
<stop/>
<stop offset="1" stop-color="white"/>
</linearGradient>
<linearGradient id="paint4_linear_1878_9937" x1="10.5142" y1="21.0131" x2="32.7854" y2="43.574" gradientUnits="userSpaceOnUse">
<stop/>
<stop offset="1" stop-color="white"/>
</linearGradient>
</defs>
</svg>
