<svg width="2012" height="400" viewBox="0 0 2012 400" fill="none" xmlns="http://www.w3.org/2000/svg">
<g filter="url(#filter0_ii_1410_13947)">
<path d="M69.6237 333.872C90.5631 356.556 109.361 368.603 142.039 373.133C186.099 379.24 239.808 366.367 300.393 351.321C300.393 351.321 459.183 323.838 459.183 196.457C459.183 106.156 359.721 76.2738 359.721 76.2738C327.44 62.5323 290.359 49.0089 257.642 40.7204C183.526 21.9445 118.888 10.214 64.8251 64.2772C29.926 99.1763 26 151.088 26 209.108C26 261.102 48.6844 311.187 69.6237 333.872Z" fill="url(#paint0_linear_1410_13947)"/>
<path d="M69.6237 333.872C90.5631 356.556 109.361 368.603 142.039 373.133C186.099 379.24 239.808 366.367 300.393 351.321C300.393 351.321 459.183 323.838 459.183 196.457C459.183 106.156 359.721 76.2738 359.721 76.2738C327.44 62.5323 290.359 49.0089 257.642 40.7204C183.526 21.9445 118.888 10.214 64.8251 64.2772C29.926 99.1763 26 151.088 26 209.108C26 261.102 48.6844 311.187 69.6237 333.872Z" fill="url(#paint1_linear_1410_13947)" fill-opacity="0.4" style="mix-blend-mode:soft-light"/>
</g>
<path d="M69.6237 333.872C90.5631 356.556 109.361 368.603 142.039 373.133C186.099 379.24 239.808 366.367 300.393 351.321C300.393 351.321 459.183 323.838 459.183 196.457C459.183 106.156 359.721 76.2738 359.721 76.2738C327.44 62.5323 290.359 49.0089 257.642 40.7204C183.526 21.9445 118.888 10.214 64.8251 64.2772C29.926 99.1763 26 151.088 26 209.108C26 261.102 48.6844 311.187 69.6237 333.872Z" stroke="white" stroke-opacity="0.4" stroke-width="2.70739"/>
<g filter="url(#filter1_dd_1410_13947)">
<circle cx="306.667" cy="199.947" r="107.314" fill="#EBECF0"/>
<circle cx="306.667" cy="199.947" r="107.314" fill="url(#paint2_linear_1410_13947)" fill-opacity="0.4" style="mix-blend-mode:soft-light"/>
<circle cx="306.667" cy="199.947" r="105.961" stroke="white" stroke-opacity="0.4" stroke-width="2.70739"/>
</g>
<path d="M739.313 268.949L749.754 242.348H706.478C677.66 242.348 664.07 228.661 664.07 199.843C664.07 171.024 677.66 157.434 706.478 157.434H749.754L745.802 130.736H706.478C656.263 130.736 632.456 152.904 632.456 199.843C632.456 246.781 656.263 268.949 706.478 268.949H739.313Z" fill="black"/>
<path d="M909.557 268.949L855.1 130.736H810.282L755.441 268.949H788.404L800.837 236.372H864.16L876.594 268.949H909.557ZM831.583 156.278H833.8L854.137 209.77H811.053L831.583 156.278Z" fill="black"/>
<path d="M1018.47 225.288C1038.42 217.674 1048.44 201.963 1048.44 180.47C1048.44 164.952 1043.24 152.808 1032.93 143.941C1022.52 135.17 1007.19 130.736 987.049 130.736H924.689V268.949H955.435V230.3H986.085L1012.69 268.949H1049.79L1018.47 225.288ZM985.025 157.434C1007.67 157.434 1016.83 164.759 1016.83 180.47C1016.83 195.987 1007.67 203.409 985.025 203.409H955.435V157.434H985.025Z" fill="black"/>
<path d="M1072.54 130.736V268.949H1131.53C1180.97 268.949 1204.39 246.781 1204.39 199.843C1204.39 152.904 1180.97 130.736 1131.53 130.736H1072.54ZM1103.29 242.348V157.434H1131.53C1159.57 157.434 1172.78 171.024 1172.78 199.843C1172.78 228.661 1159.57 242.348 1131.53 242.348H1103.29Z" fill="black"/>
<path d="M1364.1 268.949L1309.64 130.736H1264.82L1209.98 268.949H1242.95L1255.38 236.372H1318.7L1331.14 268.949H1364.1ZM1286.12 156.278H1288.34L1308.68 209.77H1265.6L1286.12 156.278Z" fill="black"/>
<path d="M1445.93 268.949C1478.31 268.949 1496.24 254.685 1496.24 229.625C1496.24 216.806 1492.67 207.457 1485.25 200.903C1477.83 194.445 1467.81 190.686 1453.06 187.988L1426.75 183.265C1412 180.566 1404.68 176.807 1404.68 168.326C1404.68 160.519 1410.75 157.434 1424.63 157.434H1486.79L1482.84 130.736H1423.37C1390.99 130.736 1373.06 144.615 1373.06 168.904C1373.06 180.952 1376.72 190.204 1384.05 196.469C1391.37 202.734 1402.36 207.168 1417.11 209.77L1442.55 214.3C1457.2 216.903 1464.72 221.143 1464.72 230.3C1464.72 239.071 1458.65 242.348 1444.77 242.348H1371.52L1382.21 268.949H1445.93Z" fill="black"/>
<path d="M1616.91 185.289H1548.19V130.736H1517.44V268.949H1548.19V211.891H1616.91V268.949H1647.66V130.736H1616.91V185.289Z" fill="black"/>
<path d="M1709.34 268.949V130.736H1678.6V268.949H1709.34Z" fill="black"/>
<path d="M1770.83 268.949V216.613H1832.42V190.976H1770.83V157.434H1848.61L1844.66 130.736H1740.09V268.949H1770.83Z" fill="black"/>
<path d="M1853.92 130.736L1858.55 157.434H1904.61V268.949H1935.36V157.434H1986.15V130.736H1853.92Z" fill="black"/>
<defs>
<filter id="filter0_ii_1410_13947" x="11.1095" y="10.1092" width="462.964" height="379.466" filterUnits="userSpaceOnUse" color-interpolation-filters="sRGB">
<feFlood flood-opacity="0" result="BackgroundImageFix"/>
<feBlend mode="normal" in="SourceGraphic" in2="BackgroundImageFix" result="shape"/>
<feColorMatrix in="SourceAlpha" type="matrix" values="0 0 0 0 0 0 0 0 0 0 0 0 0 0 0 0 0 0 127 0" result="hardAlpha"/>
<feOffset dx="13.537" dy="13.537"/>
<feGaussianBlur stdDeviation="13.537"/>
<feComposite in2="hardAlpha" operator="arithmetic" k2="-1" k3="1"/>
<feColorMatrix type="matrix" values="0 0 0 0 0 0 0 0 0 0.0745098 0 0 0 0 0.462745 0 0 0 1 0"/>
<feBlend mode="normal" in2="shape" result="effect1_innerShadow_1410_13947"/>
<feColorMatrix in="SourceAlpha" type="matrix" values="0 0 0 0 0 0 0 0 0 0 0 0 0 0 0 0 0 0 127 0" result="hardAlpha"/>
<feOffset dx="-13.537" dy="-13.537"/>
<feGaussianBlur stdDeviation="13.537"/>
<feComposite in2="hardAlpha" operator="arithmetic" k2="-1" k3="1"/>
<feColorMatrix type="matrix" values="0 0 0 0 0.395833 0 0 0 0 0.516667 0 0 0 0 1 0 0 0 1 0"/>
<feBlend mode="normal" in2="effect1_innerShadow_1410_13947" result="effect2_innerShadow_1410_13947"/>
</filter>
<filter id="filter1_dd_1410_13947" x="118.131" y="11.4113" width="377.072" height="377.072" filterUnits="userSpaceOnUse" color-interpolation-filters="sRGB">
<feFlood flood-opacity="0" result="BackgroundImageFix"/>
<feColorMatrix in="SourceAlpha" type="matrix" values="0 0 0 0 0 0 0 0 0 0 0 0 0 0 0 0 0 0 127 0" result="hardAlpha"/>
<feOffset dx="27.0739" dy="27.0739"/>
<feGaussianBlur stdDeviation="27.0739"/>
<feColorMatrix type="matrix" values="0 0 0 0 0 0 0 0 0 0.0745098 0 0 0 0 0.462745 0 0 0 1 0"/>
<feBlend mode="normal" in2="BackgroundImageFix" result="effect1_dropShadow_1410_13947"/>
<feColorMatrix in="SourceAlpha" type="matrix" values="0 0 0 0 0 0 0 0 0 0 0 0 0 0 0 0 0 0 127 0" result="hardAlpha"/>
<feOffset dx="-27.0739" dy="-27.0739"/>
<feGaussianBlur stdDeviation="27.0739"/>
<feColorMatrix type="matrix" values="0 0 0 0 0.654167 0 0 0 0 0.723333 0 0 0 0 1 0 0 0 0.4 0"/>
<feBlend mode="normal" in2="effect1_dropShadow_1410_13947" result="effect2_dropShadow_1410_13947"/>
<feBlend mode="normal" in="SourceGraphic" in2="effect2_dropShadow_1410_13947" result="shape"/>
</filter>
<linearGradient id="paint0_linear_1410_13947" x1="459.183" y1="200.981" x2="26" y2="200.981" gradientUnits="userSpaceOnUse">
<stop stop-color="#0029FF"/>
<stop offset="1" stop-color="#7E8EFD"/>
</linearGradient>
<linearGradient id="paint1_linear_1410_13947" x1="-156.006" y1="199.861" x2="153.228" y2="587.917" gradientUnits="userSpaceOnUse">
<stop/>
<stop offset="1" stop-color="white"/>
</linearGradient>
<linearGradient id="paint2_linear_1410_13947" x1="109.175" y1="199.958" x2="303.873" y2="397.189" gradientUnits="userSpaceOnUse">
<stop/>
<stop offset="1" stop-color="white"/>
</linearGradient>
</defs>
</svg>
