<svg width="12" height="10" viewBox="0 0 12 10" fill="none" xmlns="http://www.w3.org/2000/svg">
<path d="M10.0834 0.333008H1.91669C1.45256 0.333008 1.00744 0.517382 0.67925 0.845571C0.351062 1.17376 0.166687 1.61888 0.166687 2.08301V7.91634C0.166687 8.38047 0.351062 8.82559 0.67925 9.15378C1.00744 9.48197 1.45256 9.66634 1.91669 9.66634H10.0834C10.5475 9.66634 10.9926 9.48197 11.3208 9.15378C11.649 8.82559 11.8334 8.38047 11.8334 7.91634V2.08301C11.8334 1.61888 11.649 1.17376 11.3208 0.845571C10.9926 0.517382 10.5475 0.333008 10.0834 0.333008ZM10.0834 1.49967L6.29169 4.10717C6.20301 4.15837 6.10242 4.18533 6.00002 4.18533C5.89762 4.18533 5.79703 4.15837 5.70835 4.10717L1.91669 1.49967H10.0834Z" fill="black"/>
</svg>
