<svg width="26" height="24" viewBox="0 0 26 24" fill="none" xmlns="http://www.w3.org/2000/svg">
<path d="M12.668 0.0699219C13.2341 -0.225273 13.9251 0.459532 13.6244 1.02512C13.4497 1.48616 12.7874 1.60875 12.449 1.25732C12.0906 0.920052 12.2075 0.253428 12.668 0.0699219ZM6.57904 0.726286C6.92294 0.584727 7.35826 0.899792 7.3232 1.2746C7.35969 1.68148 6.86216 1.98096 6.51164 1.78758C6.04722 1.60771 6.10034 0.853818 6.57904 0.726286ZM19.0499 1.79901C18.5125 1.73408 18.4275 0.889143 18.9449 0.719013C19.3462 0.523299 19.7144 0.890311 19.7731 1.2707C19.6889 1.59551 19.417 1.89291 19.0499 1.79901ZM7.96449 3.31784C8.53943 2.95421 9.35982 3.49577 9.27138 4.16356C9.24151 4.83784 8.34592 5.22849 7.8406 4.77265C7.35203 4.4146 7.42605 3.59317 7.96449 3.31784ZM16.7412 3.70369C16.9977 3.04265 18.0371 3.02265 18.329 3.66616C18.6176 4.16693 18.2627 4.78707 17.7485 4.95732C17.0675 5.08447 16.4206 4.34823 16.7412 3.70369ZM11.9348 4.91979C11.9292 4.35161 12.4467 3.92823 12.9867 3.88953C13.3449 3.96135 13.7353 4.11395 13.8889 4.47538C14.1753 4.97395 13.921 5.66044 13.4036 5.88927C13.167 6.02187 12.8872 5.97213 12.6296 5.95668C12.2357 5.7633 11.904 5.38408 11.9348 4.91979ZM2.87956 5.74771C3.40475 5.42486 4.11333 6.01408 3.91449 6.5846C3.80501 7.0781 3.14164 7.27888 2.76242 6.96382C2.35761 6.66862 2.42177 5.95888 2.87956 5.74771ZM22.3244 5.74668C22.7699 5.4007 23.5053 5.79758 23.4522 6.36018C23.482 6.87317 22.8463 7.26005 22.404 6.9959C21.9168 6.77694 21.8671 6.02745 22.3244 5.74668ZM14.4812 6.7681C15.2166 6.50395 16.0899 6.82005 16.509 7.47564C17.0619 8.27707 16.7677 9.49758 15.9098 9.95745C15.0209 10.5014 13.7228 10.0403 13.3945 9.04758C13.0218 8.15888 13.5648 7.04668 14.4812 6.7681ZM10.167 6.85551C10.9819 6.47083 12.0787 6.79356 12.4723 7.62719C12.9355 8.43862 12.5774 9.56849 11.7492 9.98745C10.9199 10.4584 9.75008 10.1014 9.34878 9.23018C8.89878 8.38771 9.29839 7.24343 10.167 6.85551ZM5.84709 8.33239C5.90904 7.80732 6.40436 7.46564 6.9041 7.43031C7.44255 7.49525 7.87268 7.91343 7.93125 8.45836C7.89592 8.99784 7.47904 9.52512 6.90735 9.52187C6.27839 9.57603 5.72696 8.95031 5.84709 8.33239ZM18.6066 7.54447C19.2523 7.16862 20.1489 7.71577 20.1202 8.45758C20.1645 9.24356 19.1722 9.79745 18.5292 9.33642C17.8612 8.95252 17.9133 7.87135 18.6066 7.54447ZM8.41125 10.3146C9.16644 10.1068 10.0299 10.4628 10.4003 11.1569C10.8061 11.8556 10.6402 12.8263 10.0101 13.3388C9.2019 14.0904 7.71138 13.7886 7.28125 12.7628C6.78696 11.8224 7.38735 10.5621 8.41125 10.3146ZM16.5942 10.3107C17.3284 10.1007 18.1909 10.3837 18.5855 11.0525C19.1074 11.8175 18.8583 12.9584 18.0814 13.4515C17.2676 14.0241 16.0071 13.7234 15.5593 12.8281C15.0164 11.902 15.5627 10.5932 16.5942 10.3107ZM3.55397 11.1834C4.20631 10.9367 4.92943 11.6565 4.66514 12.3033C4.50371 12.8925 3.67333 13.1103 3.24436 12.6759C2.74242 12.268 2.92826 11.3603 3.55397 11.1834ZM21.2358 12.122C21.217 11.5815 21.6124 11.1028 22.1667 11.0729C22.6135 11.1437 23.0479 11.5041 23.0125 11.9904C23.0535 12.6328 22.2794 13.0694 21.7322 12.7676C21.4757 12.6372 21.3441 12.3741 21.2358 12.122ZM0.346443 11.5007C0.73891 11.3294 1.22436 11.6695 1.13475 12.1054C1.11372 12.5989 0.385144 12.7886 0.117482 12.3763C-0.119012 12.0899 0.0225466 11.6484 0.346443 11.5007ZM25.0923 11.4908C25.3686 11.2941 25.812 11.4355 25.9215 11.7584C26.1072 12.111 25.7667 12.5941 25.3698 12.5345C24.8127 12.5852 24.6324 11.7362 25.0923 11.4908ZM10.5429 13.8598C11.5757 13.5912 12.6858 14.4524 12.6923 15.5158C12.7597 16.5903 11.6663 17.5432 10.6092 17.295C9.79203 17.1634 9.15086 16.3763 9.17735 15.5506C9.17514 14.7608 9.77112 14.0268 10.5429 13.8598ZM14.6328 13.8576C15.681 13.5646 16.8242 14.4412 16.8076 15.5291C16.8629 16.5838 15.8037 17.5046 14.7686 17.2954C13.7946 17.1694 13.0759 16.0993 13.3479 15.1541C13.4851 14.5242 14.0114 14.012 14.6328 13.8576ZM6.74722 14.5121C7.47255 14.3884 8.15255 15.1976 7.85839 15.8863C7.64385 16.6202 6.57579 16.8193 6.10358 16.2198C5.54969 15.6441 5.9632 14.5916 6.74722 14.5121ZM18.7414 14.5445C19.3881 14.2736 20.182 14.833 20.1323 15.535C20.1583 16.3077 19.1781 16.8406 18.5457 16.3895C17.8293 15.9846 17.9597 14.7929 18.7414 14.5445ZM22.0938 17.9071C21.8406 17.435 22.3006 16.8093 22.8248 16.8967C23.0857 16.8923 23.2681 17.0978 23.4351 17.2703C23.4694 17.5501 23.527 17.8838 23.2948 18.0994C22.9794 18.4985 22.2651 18.3846 22.0938 17.9071ZM2.87735 17.0281C3.36722 16.702 4.07216 17.1884 3.96203 17.7611C3.90346 18.2676 3.2654 18.5571 2.84514 18.2697C2.3941 18.0088 2.41073 17.2659 2.87735 17.0281ZM12.5553 18.0884C13.1966 17.8054 14.0136 18.3637 13.9528 19.0701C14.0003 19.8506 12.9898 20.3911 12.3628 19.9224C11.6663 19.5199 11.7824 18.3359 12.5553 18.0884ZM8.07281 19.1341C8.61904 18.8467 9.35203 19.343 9.30229 19.9543C9.31891 20.4563 8.82904 20.8841 8.33371 20.8099C7.92345 20.8011 7.65592 20.4333 7.52436 20.0836C7.53112 19.7024 7.688 19.2778 8.07281 19.1341ZM17.1525 19.1429C17.7142 18.7958 18.5125 19.2943 18.4594 19.9481C18.4738 20.6313 17.5716 21.069 17.0486 20.6202C16.5423 20.2684 16.6041 19.4226 17.1525 19.1429ZM18.7315 23.0464C18.4816 22.6684 18.7758 22.2129 19.1815 22.1267C19.5077 22.193 19.8527 22.4384 19.7841 22.8165C19.7366 23.3284 18.988 23.4854 18.7315 23.0464ZM6.19761 22.7181C6.29709 22.4185 6.53813 22.1207 6.89086 22.1986C7.40501 22.2351 7.55761 23.0101 7.10761 23.2489C6.70294 23.5217 6.23345 23.1481 6.19761 22.7181ZM12.2445 23.0619C12.3429 22.6186 12.9167 22.403 13.2949 22.6385C13.5448 22.7458 13.6177 23.0254 13.6819 23.263C13.6476 23.3868 13.617 23.5107 13.5868 23.6345C13.432 23.818 13.2331 24.0015 12.9754 23.9949C12.4966 24.051 12.0646 23.5097 12.2445 23.0619Z" fill="#4D515C"/>
</svg>
