<svg width="716" height="718" viewBox="0 0 716 718" fill="none" xmlns="http://www.w3.org/2000/svg">
<g filter="url(#filter0_ii_1303_11731)">
<path fill-rule="evenodd" clip-rule="evenodd" d="M530.961 153.395C562.992 191.827 543.29 250.28 554.497 299.039C564.809 343.9 605.263 384.124 594.268 428.822C583.27 473.532 528.919 490.542 498.82 525.383C466.972 562.249 456.441 619.913 411.98 639.83C367.224 659.881 313.235 647.289 267.775 628.889C225.296 611.696 195.521 575.093 165.817 540.197C138.661 508.293 115.417 474.057 102.155 434.316C88.6046 393.713 74.7254 349.312 88.6029 308.82C102.251 268.996 145.018 249.197 175.536 220.2C204.311 192.859 228.332 161.506 263.338 142.796C303.569 121.294 346.671 102.565 392.252 104.371C442.102 106.345 499.02 115.071 530.961 153.395Z" fill="#EBECF0"/>
<path fill-rule="evenodd" clip-rule="evenodd" d="M530.961 153.395C562.992 191.827 543.29 250.28 554.497 299.039C564.809 343.9 605.263 384.124 594.268 428.822C583.27 473.532 528.919 490.542 498.82 525.383C466.972 562.249 456.441 619.913 411.98 639.83C367.224 659.881 313.235 647.289 267.775 628.889C225.296 611.696 195.521 575.093 165.817 540.197C138.661 508.293 115.417 474.057 102.155 434.316C88.6046 393.713 74.7254 349.312 88.6029 308.82C102.251 268.996 145.018 249.197 175.536 220.2C204.311 192.859 228.332 161.506 263.338 142.796C303.569 121.294 346.671 102.565 392.252 104.371C442.102 106.345 499.02 115.071 530.961 153.395Z" fill="url(#paint0_linear_1303_11731)" fill-opacity="0.4" style="mix-blend-mode:soft-light"/>
</g>
<path d="M530.577 153.715C546.476 172.791 549.559 196.858 550.038 222.354C550.158 228.746 550.114 235.231 550.07 241.747C549.937 261.162 549.803 280.847 554.01 299.151C557.911 316.121 566.117 332.446 574.204 348.536C576.84 353.779 579.463 358.997 581.921 364.205C591.942 385.442 599.236 406.534 593.783 428.703C588.328 450.878 572.117 466.218 553.405 480.405C548.735 483.946 543.906 487.416 539.054 490.903C524.511 501.354 509.761 511.954 498.442 525.056C486.465 538.919 477.485 555.73 468.622 572.32C465.669 577.849 462.728 583.353 459.694 588.716C447.531 610.216 433.85 629.485 411.776 639.374C367.219 659.335 313.402 646.817 267.963 628.425C227.516 612.055 198.61 578.025 170.191 544.57C168.859 543.002 167.529 541.436 166.198 539.872C139.063 507.994 115.863 473.814 102.629 434.158C89.0683 393.523 75.2622 349.288 89.0759 308.982C95.8554 289.2 109.874 274.367 126.064 260.833C132.376 255.557 139.006 250.487 145.661 245.399C147.541 243.961 149.424 242.522 151.302 241.076C159.819 234.518 168.231 227.83 175.88 220.562C183.083 213.719 189.986 206.626 196.831 199.55C197.41 198.952 197.988 198.353 198.566 197.756C204.827 191.28 211.057 184.837 217.449 178.62C231.412 165.039 246.13 152.56 263.573 143.237C303.794 121.74 346.794 103.071 392.232 104.87C417.14 105.857 443.785 108.53 468.181 115.731C492.576 122.933 514.69 134.654 530.577 153.715Z" stroke="white" stroke-opacity="0.4"/>
<g filter="url(#filter1_ii_1303_11731)">
<path fill-rule="evenodd" clip-rule="evenodd" d="M485.328 207.366C508.924 235.67 494.443 278.691 502.713 314.588C510.322 347.616 540.12 377.242 532.044 410.142C523.965 443.049 483.96 455.549 461.816 481.185C438.384 508.311 430.655 550.755 397.932 565.399C364.991 580.141 325.24 570.85 291.766 557.287C260.488 544.613 238.553 517.657 216.672 491.957C196.667 468.461 179.541 443.249 169.762 413.989C159.77 384.094 149.535 351.404 159.735 321.601C169.767 292.291 201.243 277.733 223.698 256.4C244.871 236.285 262.542 213.215 288.305 199.456C317.914 183.643 349.637 169.874 383.194 171.221C419.893 172.695 461.799 179.141 485.328 207.366Z" fill="#EBECF0"/>
<path fill-rule="evenodd" clip-rule="evenodd" d="M485.328 207.366C508.924 235.67 494.443 278.691 502.713 314.588C510.322 347.616 540.12 377.242 532.044 410.142C523.965 443.049 483.96 455.549 461.816 481.185C438.384 508.311 430.655 550.755 397.932 565.399C364.991 580.141 325.24 570.85 291.766 557.287C260.488 544.613 238.553 517.657 216.672 491.957C196.667 468.461 179.541 443.249 169.762 413.989C159.77 384.094 149.535 351.404 159.735 321.601C169.767 292.291 201.243 277.733 223.698 256.4C244.871 236.285 262.542 213.215 288.305 199.456C317.914 183.643 349.637 169.874 383.194 171.221C419.893 172.695 461.799 179.141 485.328 207.366Z" fill="url(#paint1_linear_1303_11731)" fill-opacity="0.4" style="mix-blend-mode:soft-light"/>
</g>
<path d="M484.944 207.686C496.625 221.697 498.905 239.375 499.268 258.139C499.359 262.837 499.329 267.606 499.299 272.399C499.209 286.695 499.118 301.208 502.226 314.7C505.108 327.211 511.166 339.252 517.129 351.103C519.07 354.961 521.001 358.799 522.809 362.627C530.193 378.26 535.552 393.753 531.558 410.023C527.563 426.297 515.669 437.559 501.902 447.992C498.472 450.592 494.922 453.142 491.354 455.705C480.649 463.394 469.776 471.205 461.437 480.858C452.615 491.071 446.001 503.461 439.481 515.674C437.311 519.74 435.15 523.787 432.923 527.727C423.979 543.544 413.933 557.69 397.727 564.943C364.987 579.595 325.408 570.378 291.954 556.823C262.203 544.769 240.928 519.73 219.987 495.084C219.008 493.932 218.03 492.781 217.052 491.632C197.069 468.162 179.987 443.006 170.236 413.83C160.234 383.904 150.072 351.38 160.208 321.763C165.18 307.239 175.471 296.344 187.378 286.393C192.021 282.514 196.897 278.787 201.793 275.044C203.178 273.986 204.564 272.927 205.946 271.862C212.214 267.038 218.409 262.115 224.043 256.763C229.344 251.726 234.425 246.505 239.462 241.299C239.887 240.859 240.313 240.419 240.738 239.979C245.345 235.214 249.927 230.475 254.629 225.903C264.899 215.915 275.719 206.744 288.541 199.897C318.139 184.09 349.76 170.379 383.173 171.721C401.506 172.457 421.11 174.434 439.058 179.741C457.004 185.048 473.263 193.674 484.944 207.686Z" stroke="white" stroke-opacity="0.4"/>
<g filter="url(#filter2_ii_1303_11731)">
<path fill-rule="evenodd" clip-rule="evenodd" d="M442.334 258.398C458.056 277.234 448.509 305.78 454.063 329.633C459.174 351.58 479.018 371.304 473.709 393.139C468.398 414.979 441.844 423.213 427.177 440.2C411.657 458.175 406.594 486.348 384.882 496.018C363.025 505.752 336.603 499.515 314.344 490.452C293.544 481.982 278.927 464.044 264.349 446.939C251.02 431.302 239.601 414.53 233.056 395.082C226.368 375.212 219.513 353.486 226.239 333.711C232.853 314.264 253.738 304.649 268.619 290.52C282.649 277.197 294.349 261.906 311.44 252.812C331.082 242.361 352.132 233.271 374.426 234.222C398.807 235.263 426.656 239.614 442.334 258.398Z" fill="#EBECF0"/>
<path fill-rule="evenodd" clip-rule="evenodd" d="M442.334 258.398C458.056 277.234 448.509 305.78 454.063 329.633C459.174 351.58 479.018 371.304 473.709 393.139C468.398 414.979 441.844 423.213 427.177 440.2C411.657 458.175 406.594 486.348 384.882 496.018C363.025 505.752 336.603 499.515 314.344 490.452C293.544 481.982 278.927 464.044 264.349 446.939C251.02 431.302 239.601 414.53 233.056 395.082C226.368 375.212 219.513 353.486 226.239 333.711C232.853 314.264 253.738 304.649 268.619 290.52C282.649 277.197 294.349 261.906 311.44 252.812C331.082 242.361 352.132 233.271 374.426 234.222C398.807 235.263 426.656 239.614 442.334 258.398Z" fill="url(#paint2_linear_1303_11731)" fill-opacity="0.4" style="mix-blend-mode:soft-light"/>
</g>
<path d="M441.95 258.718C449.694 267.997 451.239 279.689 451.512 292.145C451.58 295.255 451.568 298.415 451.556 301.595C451.52 311.094 451.484 320.76 453.577 329.746C455.517 338.081 459.575 346.113 463.558 353.998C464.852 356.56 466.139 359.106 467.342 361.642C472.272 372.033 475.834 382.284 473.223 393.021C470.611 403.761 462.772 411.189 453.65 418.091C451.383 419.805 449.035 421.489 446.672 423.183C439.57 428.274 432.336 433.46 426.798 439.873C420.942 446.656 416.556 454.898 412.243 463.002C410.81 465.695 409.385 468.373 407.916 470.978C402.005 481.462 395.378 490.796 384.678 495.561C363.021 505.206 336.772 499.044 314.532 489.989C294.787 481.949 280.636 465.314 266.676 448.902C266.027 448.139 265.378 447.376 264.729 446.615C251.422 431.003 240.047 414.287 233.529 394.923C226.831 375.021 220.05 353.46 226.712 333.872C229.975 324.28 236.764 317.087 244.649 310.505C247.723 307.939 250.952 305.475 254.198 302.999C255.116 302.298 256.036 301.596 256.954 300.891C261.11 297.697 265.223 294.434 268.963 290.882C272.479 287.544 275.848 284.083 279.185 280.634C279.467 280.343 279.749 280.051 280.03 279.76C283.083 276.603 286.117 273.465 289.23 270.439C296.031 263.828 303.19 257.769 311.675 253.254C331.306 242.808 352.254 233.777 374.404 234.722C386.578 235.241 399.589 236.587 411.501 240.136C423.412 243.684 434.194 249.426 441.95 258.718Z" stroke="white" stroke-opacity="0.4"/>
<g filter="url(#filter3_ii_1303_11731)">
<path fill-rule="evenodd" clip-rule="evenodd" d="M396.222 313.273C403.269 321.735 398.909 334.626 401.363 345.37C403.622 355.256 412.525 364.11 410.088 373.966C407.65 383.825 395.666 387.591 389.022 395.281C381.991 403.417 379.652 416.132 369.847 420.536C359.977 424.97 348.081 422.211 338.068 418.169C328.711 414.393 322.16 406.333 315.625 398.65C309.65 391.626 304.537 384.087 301.627 375.331C298.653 366.385 295.608 356.602 298.679 347.672C301.7 338.889 311.131 334.511 317.867 328.11C324.217 322.074 329.521 315.155 337.242 311.02C346.115 306.268 355.621 302.126 365.666 302.51C376.652 302.929 389.194 304.835 396.222 313.273Z" fill="#EBECF0"/>
<path fill-rule="evenodd" clip-rule="evenodd" d="M396.222 313.273C403.269 321.735 398.909 334.626 401.363 345.37C403.622 355.256 412.525 364.11 410.088 373.966C407.65 383.825 395.666 387.591 389.022 395.281C381.991 403.417 379.652 416.132 369.847 420.536C359.977 424.97 348.081 422.211 338.068 418.169C328.711 414.393 322.16 406.333 315.625 398.65C309.65 391.626 304.537 384.087 301.627 375.331C298.653 366.385 295.608 356.602 298.679 347.672C301.7 338.889 311.131 334.511 317.867 328.11C324.217 322.074 329.521 315.155 337.242 311.02C346.115 306.268 355.621 302.126 365.666 302.51C376.652 302.929 389.194 304.835 396.222 313.273Z" fill="url(#paint3_linear_1303_11731)" fill-opacity="0.4" style="mix-blend-mode:soft-light"/>
</g>
<path d="M395.838 313.593C399.244 317.683 399.918 322.867 400.015 328.474C400.039 329.86 400.027 331.275 400.015 332.702C399.98 336.993 399.943 341.399 400.876 345.482C401.742 349.271 403.576 352.928 405.359 356.482C405.934 357.629 406.504 358.765 407.034 359.892C409.231 364.559 410.777 369.098 409.603 373.846C408.428 378.597 404.949 381.913 400.83 385.039C399.818 385.807 398.765 386.564 397.702 387.329C394.484 389.644 391.175 392.024 388.643 394.954C385.969 398.05 383.955 401.813 381.991 405.483C381.342 406.695 380.699 407.897 380.04 409.061C377.359 413.793 374.389 417.947 369.642 420.08C359.971 424.424 348.248 421.739 338.255 417.705C329.438 414.147 323.135 406.723 316.864 399.337C316.578 399 316.292 398.663 316.006 398.326C310.052 391.328 304.984 383.844 302.101 375.173C299.117 366.196 296.145 356.579 299.152 347.834C300.618 343.573 303.646 340.355 307.201 337.381C308.586 336.222 310.04 335.109 311.507 333.987C311.923 333.668 312.34 333.349 312.757 333.028C314.638 331.578 316.507 330.091 318.211 328.472C319.807 326.955 321.336 325.384 322.847 323.822C322.974 323.691 323.102 323.559 323.229 323.427C324.612 321.997 325.983 320.579 327.389 319.211C330.46 316.224 333.677 313.497 337.478 311.461C346.341 306.714 355.745 302.631 365.647 303.009C371.123 303.219 376.958 303.798 382.287 305.364C387.616 306.931 392.408 309.475 395.838 313.593Z" stroke="white" stroke-opacity="0.4"/>
<defs>
<filter id="filter0_ii_1303_11731" x="77.8468" y="99.25" width="523.299" height="555.795" filterUnits="userSpaceOnUse" color-interpolation-filters="sRGB">
<feFlood flood-opacity="0" result="BackgroundImageFix"/>
<feBlend mode="normal" in="SourceGraphic" in2="BackgroundImageFix" result="shape"/>
<feColorMatrix in="SourceAlpha" type="matrix" values="0 0 0 0 0 0 0 0 0 0 0 0 0 0 0 0 0 0 127 0" result="hardAlpha"/>
<feOffset dx="5" dy="5"/>
<feGaussianBlur stdDeviation="5"/>
<feComposite in2="hardAlpha" operator="arithmetic" k2="-1" k3="1"/>
<feColorMatrix type="matrix" values="0 0 0 0 0.65098 0 0 0 0 0.670588 0 0 0 0 0.741176 0 0 0 1 0"/>
<feBlend mode="normal" in2="shape" result="effect1_innerShadow_1303_11731"/>
<feColorMatrix in="SourceAlpha" type="matrix" values="0 0 0 0 0 0 0 0 0 0 0 0 0 0 0 0 0 0 127 0" result="hardAlpha"/>
<feOffset dx="-5" dy="-5"/>
<feGaussianBlur stdDeviation="5"/>
<feComposite in2="hardAlpha" operator="arithmetic" k2="-1" k3="1"/>
<feColorMatrix type="matrix" values="0 0 0 0 0.980392 0 0 0 0 0.984314 0 0 0 0 1 0 0 0 1 0"/>
<feBlend mode="normal" in2="effect1_innerShadow_1303_11731" result="effect2_innerShadow_1303_11731"/>
</filter>
<filter id="filter1_ii_1303_11731" x="150.512" y="166.13" width="387.907" height="411.768" filterUnits="userSpaceOnUse" color-interpolation-filters="sRGB">
<feFlood flood-opacity="0" result="BackgroundImageFix"/>
<feBlend mode="normal" in="SourceGraphic" in2="BackgroundImageFix" result="shape"/>
<feColorMatrix in="SourceAlpha" type="matrix" values="0 0 0 0 0 0 0 0 0 0 0 0 0 0 0 0 0 0 127 0" result="hardAlpha"/>
<feOffset dx="5" dy="5"/>
<feGaussianBlur stdDeviation="5"/>
<feComposite in2="hardAlpha" operator="arithmetic" k2="-1" k3="1"/>
<feColorMatrix type="matrix" values="0 0 0 0 0.65098 0 0 0 0 0.670588 0 0 0 0 0.741176 0 0 0 1 0"/>
<feBlend mode="normal" in2="shape" result="effect1_innerShadow_1303_11731"/>
<feColorMatrix in="SourceAlpha" type="matrix" values="0 0 0 0 0 0 0 0 0 0 0 0 0 0 0 0 0 0 127 0" result="hardAlpha"/>
<feOffset dx="-5" dy="-5"/>
<feGaussianBlur stdDeviation="5"/>
<feComposite in2="hardAlpha" operator="arithmetic" k2="-1" k3="1"/>
<feColorMatrix type="matrix" values="0 0 0 0 0.980392 0 0 0 0 0.984314 0 0 0 0 1 0 0 0 1 0"/>
<feBlend mode="normal" in2="effect1_innerShadow_1303_11731" result="effect2_innerShadow_1303_11731"/>
</filter>
<filter id="filter2_ii_1303_11731" x="218.479" y="229.154" width="261.125" height="276.781" filterUnits="userSpaceOnUse" color-interpolation-filters="sRGB">
<feFlood flood-opacity="0" result="BackgroundImageFix"/>
<feBlend mode="normal" in="SourceGraphic" in2="BackgroundImageFix" result="shape"/>
<feColorMatrix in="SourceAlpha" type="matrix" values="0 0 0 0 0 0 0 0 0 0 0 0 0 0 0 0 0 0 127 0" result="hardAlpha"/>
<feOffset dx="5" dy="5"/>
<feGaussianBlur stdDeviation="5"/>
<feComposite in2="hardAlpha" operator="arithmetic" k2="-1" k3="1"/>
<feColorMatrix type="matrix" values="0 0 0 0 0.65098 0 0 0 0 0.670588 0 0 0 0 0.741176 0 0 0 1 0"/>
<feBlend mode="normal" in2="shape" result="effect1_innerShadow_1303_11731"/>
<feColorMatrix in="SourceAlpha" type="matrix" values="0 0 0 0 0 0 0 0 0 0 0 0 0 0 0 0 0 0 127 0" result="hardAlpha"/>
<feOffset dx="-5" dy="-5"/>
<feGaussianBlur stdDeviation="5"/>
<feComposite in2="hardAlpha" operator="arithmetic" k2="-1" k3="1"/>
<feColorMatrix type="matrix" values="0 0 0 0 0.980392 0 0 0 0 0.984314 0 0 0 0 1 0 0 0 1 0"/>
<feBlend mode="normal" in2="effect1_innerShadow_1303_11731" result="effect2_innerShadow_1303_11731"/>
</filter>
<filter id="filter3_ii_1303_11731" x="292.399" y="297.485" width="123.108" height="130.319" filterUnits="userSpaceOnUse" color-interpolation-filters="sRGB">
<feFlood flood-opacity="0" result="BackgroundImageFix"/>
<feBlend mode="normal" in="SourceGraphic" in2="BackgroundImageFix" result="shape"/>
<feColorMatrix in="SourceAlpha" type="matrix" values="0 0 0 0 0 0 0 0 0 0 0 0 0 0 0 0 0 0 127 0" result="hardAlpha"/>
<feOffset dx="5" dy="5"/>
<feGaussianBlur stdDeviation="5"/>
<feComposite in2="hardAlpha" operator="arithmetic" k2="-1" k3="1"/>
<feColorMatrix type="matrix" values="0 0 0 0 0.65098 0 0 0 0 0.670588 0 0 0 0 0.741176 0 0 0 1 0"/>
<feBlend mode="normal" in2="shape" result="effect1_innerShadow_1303_11731"/>
<feColorMatrix in="SourceAlpha" type="matrix" values="0 0 0 0 0 0 0 0 0 0 0 0 0 0 0 0 0 0 127 0" result="hardAlpha"/>
<feOffset dx="-5" dy="-5"/>
<feGaussianBlur stdDeviation="5"/>
<feComposite in2="hardAlpha" operator="arithmetic" k2="-1" k3="1"/>
<feColorMatrix type="matrix" values="0 0 0 0 0.980392 0 0 0 0 0.984314 0 0 0 0 1 0 0 0 1 0"/>
<feBlend mode="normal" in2="effect1_innerShadow_1303_11731" result="effect2_innerShadow_1303_11731"/>
</filter>
<linearGradient id="paint0_linear_1303_11731" x1="721.061" y1="701.81" x2="688.693" y2="-50.8156" gradientUnits="userSpaceOnUse">
<stop/>
<stop offset="1" stop-color="white"/>
</linearGradient>
<linearGradient id="paint1_linear_1303_11731" x1="625.495" y1="611.148" x2="601.969" y2="57.0766" gradientUnits="userSpaceOnUse">
<stop/>
<stop offset="1" stop-color="white"/>
</linearGradient>
<linearGradient id="paint2_linear_1303_11731" x1="536.127" y1="526.784" x2="521.437" y2="158.714" gradientUnits="userSpaceOnUse">
<stop/>
<stop offset="1" stop-color="white"/>
</linearGradient>
<linearGradient id="paint3_linear_1303_11731" x1="437.947" y1="434.102" x2="430.578" y2="268.23" gradientUnits="userSpaceOnUse">
<stop/>
<stop offset="1" stop-color="white"/>
</linearGradient>
</defs>
</svg>
