<svg width="41" height="25" viewBox="0 0 41 25" fill="none" xmlns="http://www.w3.org/2000/svg">
<mask id="path-1-inside-1_106_2706" fill="white">
<path fill-rule="evenodd" clip-rule="evenodd" d="M29.3573 24.8335C35.7873 24.8335 40.9999 19.4609 40.9999 12.8335C40.9999 6.20608 35.7873 0.833496 29.3573 0.833496C27.4376 0.833496 25.6265 1.31237 24.0301 2.16055C15.2306 6.83597 10.8308 9.17368 10.2776 9.37052C8.93714 9.84753 10.1712 9.54005 8.76356 9.74778C8.18273 9.8335 8.15011 9.8335 8.08489 9.8335H-3.51074C-5.71988 9.8335 -7.51074 11.6244 -7.51074 13.8335V13.8335C-7.51074 16.0426 -5.71988 17.8335 -3.51074 17.8335H10.4585C10.815 17.8335 10.9933 17.8335 11.5299 17.9065C12.7527 18.0728 11.7602 17.8453 12.9334 18.2282C13.4482 18.3961 17.1042 20.1649 24.4163 23.7023C25.9162 24.428 27.5908 24.8335 29.3573 24.8335Z"/>
</mask>
<g filter="url(#filter0_ii_106_2706)">
<path fill-rule="evenodd" clip-rule="evenodd" d="M29.3573 24.8335C35.7873 24.8335 40.9999 19.4609 40.9999 12.8335C40.9999 6.20608 35.7873 0.833496 29.3573 0.833496C27.4376 0.833496 25.6265 1.31237 24.0301 2.16055C15.2306 6.83597 10.8308 9.17368 10.2776 9.37052C8.93714 9.84753 10.1712 9.54005 8.76356 9.74778C8.18273 9.8335 8.15011 9.8335 8.08489 9.8335H-3.51074C-5.71988 9.8335 -7.51074 11.6244 -7.51074 13.8335V13.8335C-7.51074 16.0426 -5.71988 17.8335 -3.51074 17.8335H10.4585C10.815 17.8335 10.9933 17.8335 11.5299 17.9065C12.7527 18.0728 11.7602 17.8453 12.9334 18.2282C13.4482 18.3961 17.1042 20.1649 24.4163 23.7023C25.9162 24.428 27.5908 24.8335 29.3573 24.8335Z" fill="#EBECF0"/>
<path fill-rule="evenodd" clip-rule="evenodd" d="M29.3573 24.8335C35.7873 24.8335 40.9999 19.4609 40.9999 12.8335C40.9999 6.20608 35.7873 0.833496 29.3573 0.833496C27.4376 0.833496 25.6265 1.31237 24.0301 2.16055C15.2306 6.83597 10.8308 9.17368 10.2776 9.37052C8.93714 9.84753 10.1712 9.54005 8.76356 9.74778C8.18273 9.8335 8.15011 9.8335 8.08489 9.8335H-3.51074C-5.71988 9.8335 -7.51074 11.6244 -7.51074 13.8335V13.8335C-7.51074 16.0426 -5.71988 17.8335 -3.51074 17.8335H10.4585C10.815 17.8335 10.9933 17.8335 11.5299 17.9065C12.7527 18.0728 11.7602 17.8453 12.9334 18.2282C13.4482 18.3961 17.1042 20.1649 24.4163 23.7023C25.9162 24.428 27.5908 24.8335 29.3573 24.8335Z" fill="url(#paint0_linear_106_2706)" fill-opacity="0.4" style="mix-blend-mode:soft-light"/>
</g>
<path d="M11.5299 17.9065L11.3951 18.8974L11.5299 17.9065ZM24.4163 23.7023L23.9808 24.6025L24.4163 23.7023ZM12.9334 18.2282L12.6232 19.1788L12.9334 18.2282ZM10.2776 9.37052L9.94238 8.42839L10.2776 9.37052ZM8.76356 9.74778L8.61756 8.75849L8.76356 9.74778ZM39.9999 12.8335C39.9999 18.9373 35.2068 23.8335 29.3573 23.8335V25.8335C36.3679 25.8335 41.9999 19.9845 41.9999 12.8335H39.9999ZM29.3573 1.8335C35.2068 1.8335 39.9999 6.72964 39.9999 12.8335H41.9999C41.9999 5.68251 36.3679 -0.166504 29.3573 -0.166504V1.8335ZM24.4993 3.04364C25.9556 2.2699 27.6062 1.8335 29.3573 1.8335V-0.166504C27.2691 -0.166504 25.2973 0.354853 23.5609 1.27747L24.4993 3.04364ZM-3.51074 10.8335H8.08489V8.8335H-3.51074V10.8335ZM10.4585 16.8335H-3.51074V18.8335H10.4585V16.8335ZM29.3573 23.8335C27.7456 23.8335 26.2195 23.4639 24.8518 22.8022L23.9808 24.6025C25.6128 25.3921 27.436 25.8335 29.3573 25.8335V23.8335ZM10.4585 18.8335C10.7831 18.8335 10.9146 18.832 11.3951 18.8974L11.6646 16.9156C11.0719 16.835 10.8469 16.8335 10.4585 16.8335V18.8335ZM24.8518 22.8022C21.1967 21.0339 18.4523 19.7062 16.5575 18.7996C15.6104 18.3465 14.8718 17.9968 14.3361 17.7492C13.8306 17.5155 13.4419 17.3422 13.2436 17.2775L12.6232 19.1788C12.6223 19.1785 12.6415 19.1851 12.6911 19.2052C12.7371 19.2238 12.7978 19.2494 12.8748 19.2831C13.0288 19.3503 13.2351 19.4436 13.497 19.5646C14.0201 19.8065 14.749 20.1515 15.6943 20.6038C17.5842 21.508 20.3238 22.8333 23.9808 24.6025L24.8518 22.8022ZM11.3951 18.8974C11.7126 18.9405 11.898 18.9598 12.0176 18.9697C12.0756 18.9745 12.1207 18.9772 12.1335 18.9781C12.1588 18.9798 12.0997 18.9775 12.0268 18.9609C11.954 18.9442 11.8999 18.9205 11.9233 18.9299C11.9352 18.9347 11.9771 18.9519 12.0313 18.9728C12.1433 19.016 12.3186 19.0794 12.6232 19.1788L13.2436 17.2775C12.9616 17.1855 12.821 17.1338 12.7509 17.1067C12.7141 17.0926 12.6984 17.0859 12.669 17.0741C12.6512 17.067 12.5722 17.034 12.4736 17.0114C12.3751 16.9888 12.2896 16.9841 12.2705 16.9828C12.2389 16.9806 12.2218 16.9797 12.1825 16.9765C12.1076 16.9703 11.9586 16.9556 11.6646 16.9156L11.3951 18.8974ZM-8.51074 13.8335C-8.51074 16.5949 -6.27216 18.8335 -3.51074 18.8335V16.8335C-5.1676 16.8335 -6.51074 15.4903 -6.51074 13.8335H-8.51074ZM-3.51074 8.8335C-6.27217 8.8335 -8.51074 11.0721 -8.51074 13.8335H-6.51074C-6.51074 12.1766 -5.1676 10.8335 -3.51074 10.8335V8.8335ZM23.5609 1.27747C19.1602 3.61567 15.8627 5.36773 13.596 6.55996C12.4622 7.15628 11.5901 7.61058 10.9683 7.92742C10.6571 8.08602 10.4128 8.20802 10.2319 8.29534C10.1413 8.33904 10.0703 8.37225 10.017 8.39621C9.95851 8.42246 9.93826 8.42986 9.94238 8.42839L10.6129 10.3126C10.828 10.2361 11.2784 10.0141 11.8764 9.70939C12.5102 9.38644 13.3917 8.92719 14.527 8.33005C16.7983 7.13537 20.1005 5.38086 24.4993 3.04364L23.5609 1.27747ZM8.08489 10.8335C8.24151 10.8335 8.36171 10.8179 8.90955 10.7371L8.61756 8.75849C8.3254 8.80161 8.18489 8.82109 8.11123 8.82996C8.07566 8.83425 8.06837 8.83448 8.07403 8.83413C8.08582 8.83339 8.09777 8.8335 8.08489 8.8335V10.8335ZM9.94238 8.42839C9.59626 8.55156 9.3976 8.63065 9.27251 8.68541C9.20612 8.71446 9.163 8.73555 9.13417 8.74994C9.0613 8.78629 9.17786 8.72123 9.30398 8.6898C9.4301 8.65837 9.56356 8.66115 9.48216 8.66323C9.44995 8.66405 9.40198 8.66566 9.32971 8.67115C9.19356 8.68149 8.98101 8.70486 8.61756 8.75849L8.90955 10.7371C9.24991 10.6868 9.41095 10.6707 9.48119 10.6654C9.51213 10.6631 9.52556 10.6628 9.53333 10.6626C9.5349 10.6625 9.54403 10.6623 9.55053 10.6621C9.55783 10.6619 9.57296 10.6614 9.59103 10.6603C9.62938 10.658 9.70088 10.6521 9.78753 10.6305C9.87418 10.6089 9.94013 10.5806 9.97508 10.5646C9.99155 10.5571 10.0051 10.5504 10.0117 10.5472C10.0175 10.5443 10.0257 10.5402 10.0271 10.5395C10.034 10.5361 10.046 10.53 10.0745 10.5176C10.139 10.4893 10.2888 10.428 10.6129 10.3126L9.94238 8.42839Z" fill="white" fill-opacity="0.4" mask="url(#path-1-inside-1_106_2706)"/>
<defs>
<filter id="filter0_ii_106_2706" x="-12.5107" y="-4.1665" width="58.5107" height="34" filterUnits="userSpaceOnUse" color-interpolation-filters="sRGB">
<feFlood flood-opacity="0" result="BackgroundImageFix"/>
<feBlend mode="normal" in="SourceGraphic" in2="BackgroundImageFix" result="shape"/>
<feColorMatrix in="SourceAlpha" type="matrix" values="0 0 0 0 0 0 0 0 0 0 0 0 0 0 0 0 0 0 127 0" result="hardAlpha"/>
<feOffset dx="5" dy="5"/>
<feGaussianBlur stdDeviation="5"/>
<feComposite in2="hardAlpha" operator="arithmetic" k2="-1" k3="1"/>
<feColorMatrix type="matrix" values="0 0 0 0 0.65098 0 0 0 0 0.670588 0 0 0 0 0.741176 0 0 0 0.5 0"/>
<feBlend mode="normal" in2="shape" result="effect1_innerShadow_106_2706"/>
<feColorMatrix in="SourceAlpha" type="matrix" values="0 0 0 0 0 0 0 0 0 0 0 0 0 0 0 0 0 0 127 0" result="hardAlpha"/>
<feOffset dx="-5" dy="-5"/>
<feGaussianBlur stdDeviation="5"/>
<feComposite in2="hardAlpha" operator="arithmetic" k2="-1" k3="1"/>
<feColorMatrix type="matrix" values="0 0 0 0 0.980392 0 0 0 0 0.984314 0 0 0 0 1 0 0 0 1 0"/>
<feBlend mode="normal" in2="effect1_innerShadow_106_2706" result="effect2_innerShadow_106_2706"/>
</filter>
<linearGradient id="paint0_linear_106_2706" x1="-27.8929" y1="12.8347" x2="-10.7214" y2="47.9947" gradientUnits="userSpaceOnUse">
<stop/>
<stop offset="1" stop-color="white"/>
</linearGradient>
</defs>
</svg>
