<svg width="254" height="32" viewBox="0 0 254 32" fill="none" xmlns="http://www.w3.org/2000/svg">
<g clip-path="url(#clip0_1937_150)">
<g clip-path="url(#clip1_1937_150)">
<path d="M22.7056 14.1225L19.7998 15.815V15.8077L17.3584 17.2303L16.2836 17.8574L13.3756 19.5521C13.0607 19.7367 12.702 19.8332 12.337 19.8315C11.972 19.8298 11.6142 19.73 11.3011 19.5426L9.5962 18.5312L5.38439 16.1066L5.36251 16.0942L0.737246 13.5421C0.515501 13.4197 0.330196 13.2408 0.20026 13.0234C0.0703246 12.806 0.000416721 12.5581 -0.0023269 12.3048C-0.00507052 12.0516 0.0594486 11.8022 0.184644 11.582C0.30984 11.3619 0.491221 11.179 0.710264 11.0519L4.30154 8.96783L5.08688 8.51282L10.916 5.12572C11.2313 4.94356 11.5889 4.84766 11.953 4.84766C12.317 4.84766 12.6746 4.94356 12.9899 5.12572L13.0044 5.1352C13.3182 5.31631 13.5789 5.57672 13.7603 5.89035C13.9417 6.20397 14.0375 6.55977 14.038 6.92208C14.0385 7.28438 13.9438 7.64045 13.7632 7.95459C13.5827 8.26873 13.3228 8.52989 13.0095 8.71189L7.92708 11.6709C7.82786 11.7279 7.74542 11.8101 7.6881 11.9091C7.63077 12.0082 7.60059 12.1206 7.60059 12.235C7.60059 12.3494 7.63077 12.4618 7.6881 12.5608C7.74542 12.6599 7.82786 12.742 7.92708 12.799L11.312 14.7467C11.6212 14.9259 11.9722 15.0203 12.3296 15.0203C12.6869 15.0203 13.038 14.9259 13.3472 14.7467L14.7166 13.9592L14.7778 13.9249L15.938 13.2584L17.688 12.2324L20.6048 10.5378C20.9201 10.3556 21.2779 10.2596 21.6421 10.2596C22.0063 10.2596 22.364 10.3556 22.6794 10.5378L22.6939 10.5473C23.0077 10.7284 23.2684 10.9888 23.4498 11.3024C23.6312 11.616 23.727 11.9718 23.7275 12.3341C23.728 12.6964 23.6333 13.0525 23.4527 13.3667C23.2722 13.6808 23.0123 13.942 22.6991 14.124" fill="#24305E"/>
<path d="M23.9525 20.2205L23.9329 22.9243V24.8749C23.9331 25.1264 23.8669 25.3736 23.7409 25.5913C23.6149 25.809 23.4336 25.9895 23.2153 26.1145L22.8967 26.299L20.4459 27.7093L19.8304 28.0622L14.923 30.8878L14.9033 30.9002L13.372 31.8C13.0581 31.9848 12.7004 32.0823 12.3362 32.0823C11.9719 32.0823 11.6142 31.9848 11.3003 31.8L10.2233 31.1657L1.97761 26.4354C1.73801 26.3022 1.52729 26.1227 1.35769 25.9073C1.18808 25.692 1.06299 25.445 0.989679 25.1809C0.916372 24.9167 0.896318 24.6407 0.930675 24.3687C0.965031 24.0967 1.05311 23.8343 1.18981 23.5967C1.3265 23.3591 1.50907 23.151 1.7269 22.9846C1.94474 22.8182 2.19348 22.6967 2.45868 22.6273C2.72387 22.5579 3.00022 22.5419 3.27165 22.5802C3.54309 22.6186 3.80419 22.7105 4.03977 22.8507L11.3193 27.0246C11.6287 27.2031 11.9797 27.2971 12.3369 27.2971C12.6941 27.2971 13.0451 27.2031 13.3545 27.0246L18.4515 24.0918C18.8618 23.8559 19.2027 23.5159 19.4397 23.1063C19.6766 22.6966 19.8014 22.2316 19.8013 21.7583C19.8013 21.6759 19.8013 21.5906 19.8085 21.5082L19.8034 20.246C19.8022 19.8817 19.8971 19.5234 20.0785 19.2075C20.2599 18.8915 20.5214 18.629 20.8367 18.4464L20.8513 18.4391C21.1442 18.2669 21.4752 18.1699 21.8148 18.1568C22.1543 18.1437 22.4918 18.2148 22.7972 18.3638C23.1025 18.5129 23.3662 18.7352 23.5648 19.0109C23.7633 19.2867 23.8905 19.6073 23.935 19.9441C23.9478 20.0352 23.9544 20.127 23.9547 20.219" fill="#24305E"/>
<path d="M44.17 12.5613C43.7087 12.0554 43.1172 11.686 42.46 11.4938C41.6447 11.2748 40.8168 11.106 39.9808 10.9884C39.4083 10.9064 38.8411 10.7915 38.2818 10.6443C37.9493 10.5298 37.7772 10.3344 37.7772 10.0471C37.7854 9.90878 37.8345 9.77605 37.9182 9.6657C38.0019 9.55536 38.1165 9.47236 38.2475 9.42725C38.7158 9.24879 39.2164 9.17055 39.7168 9.19756C40.9376 9.19027 42.1396 9.49874 43.206 10.093L44.4799 7.21197C43.8016 6.84599 43.0693 6.59025 42.3106 6.45434C41.4503 6.27067 40.5731 6.17828 39.6935 6.1787C38.6098 6.15028 37.5306 6.32948 36.5142 6.70664C35.72 6.98714 35.0175 7.47932 34.4827 8.13002C34.0271 8.72591 33.7847 9.45746 33.7943 10.2075C33.7493 11.0019 34.0123 11.7831 34.5286 12.3885C35.0035 12.9028 35.6111 13.276 36.2845 13.467C37.0945 13.6836 37.9192 13.8408 38.7521 13.9373C39.3146 13.9989 39.8712 14.1064 40.4161 14.2589C40.772 14.3734 40.9441 14.5571 40.9441 14.8328C40.9408 14.9664 40.8973 15.0959 40.8192 15.2044C40.7411 15.3129 40.6322 15.3953 40.5065 15.4409C40.0404 15.6124 39.5441 15.6868 39.0482 15.6597C38.2842 15.6574 37.524 15.5532 36.7877 15.3497C36.0955 15.18 35.4335 14.9051 34.8247 14.5345L33.5508 17.4382C34.283 17.8696 35.0819 18.1762 35.9148 18.3453C36.8969 18.5742 37.902 18.6897 38.9103 18.6895C40.0143 18.7136 41.1138 18.5425 42.1582 18.1841C42.9604 17.9138 43.6688 17.42 44.1999 16.7607C44.6547 16.1774 44.9012 15.4587 44.8999 14.719C44.9451 13.9316 44.6817 13.1577 44.1656 12.5613" fill="#24305E"/>
<path d="M66.1259 7.52473C65.6568 7.06871 65.0989 6.71414 64.4868 6.48306C63.8747 6.25198 63.2217 6.14935 62.5682 6.18156C61.746 6.17084 60.9313 6.33929 60.1808 6.67522C59.4685 6.9879 58.8452 7.47308 58.3673 8.08694C57.973 7.46229 57.4073 6.96435 56.7376 6.65262C56.0199 6.3307 55.2403 6.17015 54.4538 6.18229C53.7636 6.17699 53.0786 6.30065 52.4339 6.54689C51.8243 6.79182 51.2786 7.17265 50.8384 7.66036V6.38792H46.7987V18.4969H51.0455V12.4825C50.9865 11.7584 51.1902 11.0372 51.6194 10.451C51.813 10.23 52.0538 10.0554 52.3241 9.94014C52.5944 9.82489 52.8871 9.77195 53.1806 9.78523C54.4085 9.78523 55.0167 10.6121 55.0167 12.2645V18.4969H59.2635V12.4825C59.2071 11.7572 59.4143 11.0359 59.8469 10.451C60.0358 10.2305 60.2725 10.0559 60.5389 9.94056C60.8054 9.82521 61.0947 9.77209 61.3847 9.78523C61.6414 9.77185 61.8977 9.81891 62.1329 9.92264C62.3681 10.0264 62.5756 10.1839 62.7388 10.3824C63.099 10.9407 63.2643 11.6024 63.2092 12.2645V18.4969H67.4567V11.5645C67.4567 9.76262 67.0192 8.41945 66.1252 7.52473" fill="#24305E"/>
<path d="M77.1208 14.605C76.9747 15.0345 76.6933 15.405 76.3187 15.6609C75.9275 15.8972 75.4784 16.0204 75.0214 16.0167C74.6053 16.0378 74.194 15.9209 73.8511 15.6842C73.7164 15.5775 73.6081 15.4413 73.5345 15.286C73.4609 15.1307 73.424 14.9606 73.4267 14.7888C73.4267 13.9626 74.0465 13.5608 75.2861 13.5608H77.1223L77.1208 14.605ZM79.7721 7.55811C78.7163 6.64006 77.1784 6.18066 75.1695 6.18066C74.1942 6.18319 73.2229 6.30564 72.2775 6.54526C71.4101 6.75512 70.5842 7.10907 69.834 7.59238L71.269 10.4734C71.7205 10.123 72.2348 9.86216 72.7843 9.70485C73.3557 9.52102 73.9516 9.42416 74.5519 9.41754C76.1933 9.41754 77.0428 10.06 77.123 11.3455H74.7013C72.8783 11.3455 71.5221 11.6554 70.6383 12.2979C70.2129 12.5957 69.8692 12.9957 69.6386 13.461C69.4079 13.9262 69.2979 14.442 69.3184 14.9609C69.3047 15.6373 69.4881 16.3032 69.8464 16.8772C70.2253 17.4569 70.7633 17.9151 71.3959 18.197C72.1593 18.5433 72.9912 18.7121 73.8292 18.6907C75.608 18.6907 76.8016 18.1054 77.4103 16.9348V18.496H81.3698V11.7699C81.3698 9.87402 80.8302 8.47616 79.7743 7.55811" fill="#24305E"/>
<path d="M89.5061 6.59505C88.8436 6.85125 88.2613 7.27909 87.8188 7.83468V6.38796H83.7791V18.4969H88.0258V12.9303C87.969 12.5317 88.0041 12.1253 88.1285 11.7423C88.2529 11.3594 88.4633 11.01 88.7435 10.7209C89.0238 10.4317 89.3665 10.2106 89.7454 10.0743C90.1243 9.93807 90.5293 9.89032 90.9295 9.93475C91.2519 9.93946 91.5737 9.96234 91.8935 10.0033V6.1816C91.0788 6.16775 90.2687 6.30803 89.5061 6.59505Z" fill="#24305E"/>
<path d="M101.937 15.03C101.558 15.2852 101.109 15.4176 100.652 15.4092C100.48 15.417 100.308 15.3886 100.148 15.3258C99.988 15.263 99.8428 15.1672 99.722 15.0446C99.4785 14.7623 99.3549 14.3959 99.3779 14.0238V10.003H102.144V6.83539H99.3786V3.67871H95.1318V6.83539H93.3642V10.003H95.1318V14.0661C95.0835 14.7013 95.1723 15.3395 95.3921 15.9374C95.6119 16.5354 95.9575 17.0791 96.4057 17.5319C97.4262 18.3685 98.7279 18.7832 100.044 18.6913C100.596 18.6946 101.147 18.6369 101.686 18.5192C102.146 18.4156 102.587 18.2415 102.994 18.003L101.937 15.03Z" fill="#24305E"/>
<path d="M110.419 10.4961H103.889V13.7556H110.419V10.4961Z" fill="#24305E"/>
<path d="M119.498 15.3126C119.146 15.3233 118.795 15.2605 118.469 15.1281C118.142 14.9958 117.847 14.7969 117.602 14.5441C117.343 14.2548 117.144 13.9173 117.016 13.5509C116.888 13.1845 116.834 12.7965 116.856 12.409C116.835 12.0269 116.889 11.6445 117.018 11.2839C117.146 10.9233 117.344 10.5919 117.602 10.3089C117.849 10.0598 118.145 9.86399 118.471 9.73368C118.797 9.60337 119.147 9.54129 119.498 9.55129C120.016 9.55362 120.521 9.70977 120.95 9.99994C121.379 10.2901 121.713 10.7012 121.908 11.181L125.189 9.5039C124.783 8.46974 124.033 7.60677 123.066 7.05965C121.985 6.45107 120.759 6.14573 119.519 6.17586C118.276 6.15388 117.045 6.42519 115.926 6.96777C114.904 7.46659 114.042 8.24268 113.439 9.20756C112.836 10.1724 112.516 11.2873 112.516 12.425C112.516 13.5628 112.836 14.6776 113.439 15.6425C114.042 16.6074 114.904 17.3835 115.926 17.8823C117.042 18.4337 118.274 18.7088 119.519 18.6844C120.76 18.72 121.987 18.4143 123.066 17.8006C124.033 17.2534 124.783 16.3901 125.189 15.3557L121.908 13.6785C121.715 14.1597 121.382 14.5721 120.952 14.8626C120.523 15.1531 120.016 15.3083 119.498 15.3083" fill="#24305E"/>
<path d="M138.366 7.52251C137.883 7.0666 137.313 6.71271 136.689 6.48194C136.066 6.25118 135.403 6.14826 134.739 6.17934C134.056 6.17586 133.377 6.28829 132.731 6.51186C132.125 6.72366 131.57 7.05998 131.101 7.49918V1.91211H126.855V18.4947H131.101V12.6414C131.042 11.869 131.277 11.1028 131.758 10.4954C131.981 10.2559 132.254 10.0681 132.557 9.94516C132.86 9.82221 133.187 9.76712 133.514 9.78374C134.845 9.78374 135.499 10.6106 135.499 12.263V18.4954H139.745V11.5622C139.745 9.7604 139.287 8.41723 138.368 7.52251" fill="#24305E"/>
<path d="M149.384 14.6031C149.238 15.0325 148.957 15.403 148.582 15.6589C148.191 15.8953 147.742 16.0184 147.285 16.0148C146.869 16.0355 146.458 15.9187 146.115 15.6823C145.98 15.5756 145.872 15.4393 145.798 15.284C145.725 15.1288 145.688 14.9586 145.69 14.7868C145.69 13.9606 146.31 13.5589 147.55 13.5589H149.386L149.384 14.6031ZM152.036 7.55615C150.98 6.6381 149.442 6.17871 147.433 6.17871C146.458 6.18123 145.487 6.30369 144.541 6.54331C143.673 6.75227 142.847 7.10549 142.096 7.58824L143.53 10.4693C143.982 10.1189 144.496 9.85803 145.046 9.7007C145.617 9.51686 146.213 9.42001 146.813 9.4134C148.443 9.4134 149.304 10.0558 149.384 11.3414H146.963C145.14 11.3414 143.784 11.6513 142.9 12.2937C142.473 12.5898 142.127 12.9894 141.897 13.4551C141.666 13.9208 141.557 14.4375 141.58 14.9567C141.566 15.6332 141.75 16.2991 142.108 16.873C142.487 17.4528 143.025 17.911 143.657 18.1929C144.421 18.5391 145.253 18.7079 146.091 18.6865C147.869 18.6865 149.063 18.1012 149.672 16.9306V18.4918H153.62V11.768C153.62 9.87207 153.092 8.47421 152.036 7.55615Z" fill="#24305E"/>
<path d="M174.623 7.52241C174.14 7.0665 173.569 6.71261 172.946 6.48184C172.323 6.25108 171.66 6.14817 170.996 6.17924C170.263 6.17574 169.535 6.308 168.85 6.56936C168.211 6.82474 167.632 7.21182 167.152 7.70544V6.3856H163.111V18.4946H167.358V12.6406C167.299 11.8682 167.533 11.1019 168.014 10.4946C168.237 10.2551 168.51 10.0673 168.813 9.94433C169.116 9.82138 169.443 9.76629 169.77 9.78291C171.101 9.78291 171.755 10.6098 171.755 12.2622V18.4946H176.001V11.5621C176.001 9.7603 175.543 8.41713 174.624 7.52241" fill="#24305E"/>
<path d="M160.432 6.38672H156.185V18.495H160.432V6.38672Z" fill="#24305E"/>
<path d="M160.431 0H156.173V4.25775H160.431V0Z" fill="#24305E"/>
<path d="M150.038 23.3875V27.6555H153.238V26.9431H150.854V25.869H152.929V25.1566H150.856V24.1007H153.168V23.3883L150.038 23.3875ZM147.85 24.6432L148.326 24.0453C147.886 23.6125 147.296 23.3677 146.679 23.3628C146.389 23.3517 146.1 23.399 145.829 23.5018C145.558 23.6047 145.31 23.7609 145.1 23.9613C144.891 24.1618 144.723 24.4023 144.608 24.6686C144.494 24.9349 144.433 25.2215 144.431 25.5116C144.429 25.8016 144.485 26.0891 144.597 26.357C144.708 26.6249 144.872 26.8677 145.078 27.0711C145.285 27.2745 145.531 27.4342 145.8 27.5409C146.07 27.6475 146.359 27.6989 146.649 27.692C147.283 27.6774 147.887 27.4158 148.332 26.9628L147.85 26.4261C147.541 26.7345 147.127 26.9135 146.691 26.9263C146.315 26.9263 145.954 26.7769 145.688 26.5109C145.422 26.2449 145.273 25.8842 145.273 25.508C145.273 25.1319 145.422 24.7712 145.688 24.5052C145.954 24.2392 146.315 24.0898 146.691 24.0898C146.912 24.0974 147.129 24.1507 147.328 24.2462C147.528 24.3417 147.705 24.4773 147.85 24.6447L147.85 24.6432ZM138.91 23.389V27.657H139.709V24.7402L141.904 27.657H142.678V23.389H141.886V26.3094L139.684 23.389H138.91ZM134.312 26.0542L135.068 24.2611L135.812 26.0542H134.312ZM136.483 27.6584H137.358L135.51 23.3905H134.663L132.791 27.6584H133.638L134.016 26.7557H136.102L136.483 27.6584ZM126.678 23.3875V27.6555H127.434V24.6068L128.695 27.2165H129.225L130.487 24.6068L130.493 27.6555H131.238V23.3875H130.298L128.966 26.1286L127.625 23.3912L126.678 23.3875ZM122.055 24.1H123.019C123.629 24.1 123.971 24.3559 123.971 24.8809C123.971 25.4176 123.629 25.6831 123.019 25.6831H122.055V24.1ZM124.842 27.6555L123.904 26.2409C124.173 26.1284 124.399 25.9339 124.551 25.6852C124.703 25.4364 124.773 25.1461 124.75 24.8554C124.75 23.9162 124.123 23.3861 123.018 23.3861H121.238V27.6541H122.055V26.3977H123.019C123.07 26.3988 123.121 26.3969 123.172 26.3918L123.909 27.6541L124.842 27.6555ZM117.226 24.0941C117.606 24.0941 117.971 24.2452 118.239 24.514C118.508 24.7829 118.659 25.1475 118.659 25.5277C118.659 25.9079 118.508 26.2726 118.239 26.5414C117.971 26.8103 117.606 26.9613 117.226 26.9613C117.037 26.9613 116.851 26.9242 116.677 26.8522C116.503 26.7801 116.345 26.6746 116.212 26.5414C116.079 26.4083 115.973 26.2503 115.901 26.0763C115.829 25.9024 115.792 25.716 115.792 25.5277C115.792 25.3395 115.829 25.1531 115.901 24.9791C115.973 24.8052 116.079 24.6471 116.212 24.514C116.345 24.3809 116.503 24.2753 116.677 24.2033C116.851 24.1312 117.037 24.0941 117.226 24.0941ZM117.213 23.365C116.789 23.3859 116.381 23.5309 116.039 23.7818C115.697 24.0327 115.436 24.3785 115.288 24.7764C115.141 25.1743 115.114 25.6067 115.21 26.02C115.306 26.4333 115.521 26.8093 115.829 27.1014C116.136 27.3935 116.523 27.5888 116.941 27.6631C117.359 27.7374 117.789 27.6875 118.179 27.5194C118.568 27.3514 118.9 27.0727 119.133 26.7178C119.365 26.363 119.489 25.9477 119.488 25.5234C119.486 25.2305 119.425 24.9411 119.308 24.6725C119.192 24.4038 119.022 24.1614 118.81 23.9599C118.598 23.7583 118.347 23.6017 118.072 23.4995C117.798 23.3972 117.506 23.3515 117.213 23.365ZM110.688 23.389V27.657H111.505V25.9682H113.438V25.2536H111.511V24.1H113.633L113.639 23.3875L110.688 23.389ZM106.065 24.1014H107.029C107.64 24.1014 107.981 24.3574 107.981 24.8824C107.981 25.4191 107.64 25.6845 107.029 25.6845H106.065V24.1014ZM108.852 27.657L107.914 26.2423C108.183 26.1298 108.409 25.9354 108.561 25.6866C108.713 25.4379 108.783 25.1475 108.76 24.8569C108.76 23.9177 108.133 23.3875 107.029 23.3875H105.248V27.6555H106.065V26.3991H107.029C107.08 26.4003 107.13 26.3983 107.181 26.3933L107.919 27.6555L108.852 27.657ZM100.187 23.389V27.657H103.389V26.9446H101.004V25.8704H103.077V25.158H101.004V24.1022H103.316V23.3897L100.187 23.389ZM96.7478 25.6823H95.8567V24.1022H96.7478C97.3581 24.1022 97.7059 24.3581 97.7059 24.8831C97.7059 25.4198 97.3581 25.6852 96.7478 25.6852V25.6823ZM96.7908 23.3919H95.0407V27.6599H95.8574V26.4035H96.7908C97.0074 26.4353 97.2283 26.4185 97.4376 26.3544C97.6469 26.2903 97.8393 26.1805 98.001 26.0329C98.1626 25.8853 98.2894 25.7036 98.3722 25.501C98.455 25.2983 98.4917 25.0798 98.4796 24.8612C98.4796 23.922 97.8642 23.3919 96.7908 23.3919ZM88.2899 27.0999C88.1959 27.1075 88.1013 27.0957 88.0121 27.0652C87.9228 27.0348 87.8407 26.9864 87.7709 26.9229C87.7011 26.8595 87.6451 26.7824 87.6063 26.6965C87.5675 26.6105 87.5468 26.5175 87.5454 26.4232C87.5454 26.1125 87.7896 25.8989 88.1127 25.7093C88.3686 26.001 88.6924 26.3379 89.1007 26.7404C88.8864 26.96 88.5959 27.089 88.2892 27.1006L88.2899 27.0999ZM88.0267 24.3377C88.0252 24.2703 88.0378 24.2034 88.0636 24.1412C88.0895 24.0789 88.128 24.0228 88.1768 23.9763C88.2256 23.9299 88.2836 23.8941 88.347 23.8713C88.4104 23.8485 88.4779 23.8392 88.5451 23.844C88.6055 23.8379 88.6665 23.8445 88.7242 23.8635C88.7819 23.8825 88.8349 23.9135 88.8798 23.9543C88.9248 23.9952 88.9606 24.0451 88.9849 24.1007C89.0093 24.1563 89.0217 24.2164 89.0213 24.2772C89.0213 24.625 88.7041 24.8386 88.3132 25.0399C88.1468 24.8417 88.0466 24.5964 88.0267 24.3384V24.3377ZM90.5788 27.3879L89.9021 26.7316C90.0779 26.4869 90.2213 26.2205 90.3287 25.939L89.8102 25.5547C89.7232 25.8164 89.6045 26.0664 89.4566 26.2992C89.1219 25.9696 88.847 25.683 88.6275 25.4395C89.146 25.177 89.6484 24.8664 89.6484 24.2808C89.6484 23.7383 89.1912 23.3606 88.5327 23.3606C88.3919 23.3416 88.2486 23.3527 88.1123 23.3931C87.9761 23.4336 87.85 23.5024 87.7423 23.5952C87.6346 23.6879 87.5477 23.8024 87.4875 23.9312C87.4273 24.0599 87.3951 24.2 87.393 24.3421C87.4141 24.7011 87.551 25.0437 87.7831 25.3185C87.3077 25.5744 86.8811 25.8982 86.8811 26.4895C86.8876 26.6606 86.9287 26.8285 87.002 26.9832C87.0752 27.1379 87.1791 27.2761 87.3073 27.3894C87.4356 27.5028 87.5855 27.589 87.748 27.6427C87.9104 27.6965 88.0822 27.7167 88.2527 27.7022C88.7288 27.6941 89.1832 27.5021 89.5208 27.1662L90.1668 27.8057L90.5788 27.3879ZM78.359 23.3941V27.6621H79.1575V24.7453L81.3538 27.6621H82.1275V23.3941H81.3356V26.3145L79.1334 23.3941H78.359ZM74.3485 24.1007C74.7287 24.1007 75.0933 24.2517 75.3622 24.5206C75.631 24.7894 75.7821 25.1541 75.7821 25.5343C75.7821 25.9145 75.631 26.2791 75.3622 26.548C75.0933 26.8168 74.7287 26.9679 74.3485 26.9679C73.9683 26.9679 73.6036 26.8168 73.3347 26.548C73.0659 26.2791 72.9149 25.9145 72.9149 25.5343C72.9149 25.1541 73.0659 24.7894 73.3347 24.5206C73.6036 24.2517 73.9683 24.1007 74.3485 24.1007ZM74.3361 23.3715C73.9123 23.3925 73.504 23.5374 73.1618 23.7883C72.8196 24.0393 72.5586 24.3851 72.4112 24.783C72.2637 25.1808 72.2363 25.6133 72.3324 26.0266C72.4284 26.4399 72.6437 26.8159 72.9514 27.108C73.2592 27.4001 73.646 27.5954 74.0637 27.6697C74.4815 27.744 74.9119 27.694 75.3015 27.526C75.6911 27.3579 76.0229 27.0792 76.2555 26.7244C76.4882 26.3696 76.6116 25.9542 76.6104 25.5299C76.6086 25.2371 76.5476 24.9477 76.4312 24.679C76.3147 24.4104 76.1452 24.168 75.9328 23.9664C75.7205 23.7649 75.4695 23.6083 75.1952 23.506C74.9208 23.4038 74.6286 23.358 74.3361 23.3715ZM69.5001 27.6643H70.3167V23.3963H69.5001V27.6643ZM64.4081 23.3963V24.1211H65.7374V27.6643H66.56V24.1211H67.8893V23.3963H64.4081ZM60.7184 26.0615L61.4746 24.2684L62.2184 26.0615H60.7184ZM62.8892 27.6657H63.7642L61.9172 23.3978H61.0699L59.198 27.6657H60.0454L60.4231 26.763H62.5086L62.8892 27.6657ZM54.2242 23.3978L55.913 27.6657H56.7603L58.4674 23.3978H57.6259L56.3578 26.7571L55.1022 23.3978H54.2242ZM50.7846 24.1043C51.1648 24.1043 51.5295 24.2554 51.7983 24.5242C52.0672 24.7931 52.2182 25.1577 52.2182 25.5379C52.2182 25.9182 52.0672 26.2828 51.7983 26.5516C51.5295 26.8205 51.1648 26.9715 50.7846 26.9715C50.4044 26.9715 50.0398 26.8205 49.7709 26.5516C49.5021 26.2828 49.351 25.9182 49.351 25.5379C49.351 25.1577 49.5021 24.7931 49.7709 24.5242C50.0398 24.2554 50.4044 24.1043 50.7846 24.1043ZM50.7722 23.3752C50.3484 23.3961 49.9401 23.5411 49.5979 23.792C49.2557 24.0429 48.9948 24.3887 48.8473 24.7866C48.6999 25.1845 48.6725 25.6169 48.7685 26.0302C48.8646 26.4435 49.0798 26.8195 49.3876 27.1116C49.6954 27.4037 50.0821 27.599 50.4999 27.6733C50.9177 27.7476 51.348 27.6977 51.7377 27.5296C52.1273 27.3616 52.459 27.0829 52.6917 26.728C52.9244 26.3732 53.0478 25.9579 53.0466 25.5336C53.0447 25.2408 52.9838 24.9513 52.8673 24.6827C52.7509 24.414 52.5814 24.1716 52.369 23.9701C52.1566 23.7685 51.9057 23.6119 51.6313 23.5097C51.3569 23.4074 51.0647 23.3617 50.7722 23.3752ZM42.9852 23.3992V27.6672H43.7836V24.7504L45.98 27.6672H46.7588V23.3992H45.9669V26.3196L43.7647 23.3992H42.9852ZM37.1371 23.3992V27.6672H37.9355V24.7504L40.1319 27.6672H40.9055V23.3992H40.1136V26.3196L37.9115 23.3992H37.1371ZM34.24 27.6672H35.0567V23.3992H34.24V27.6672Z" fill="#24305E"/>
</g>
</g>
<defs>
<clipPath id="clip0_1937_150">
<rect width="254" height="32" fill="white"/>
</clipPath>
<clipPath id="clip1_1937_150">
<rect width="176" height="32.0815" fill="white"/>
</clipPath>
</defs>
</svg>
